Giphurs-ExtraBlackItalic.ufo
<glyph name="numbersign" format="2">
  <advance width="1602"/>
  <unicode hex="0023"/>
  <outline>
    <contour>
      <point x="-4" y="320" type="line"/>
      <point x="53" y="640" type="line"/>
      <point x="1469" y="640" type="line"/>
      <point x="1412" y="320" type="line"/>
    </contour>
    <contour>
      <point x="134" y="840" type="line"/>
      <point x="191" y="1160" type="line"/>
      <point x="1607" y="1160" type="line"/>
      <point x="1550" y="840" type="line"/>
    </contour>
    <contour>
      <point x="1144" y="1480" type="line"/>
      <point x="1510" y="1480" type="line"/>
      <point x="1016" y="0" type="line"/>
      <point x="948" y="0"/>
      <point x="718" y="0"/>
      <point x="650" y="0" type="curve"/>
    </contour>
    <contour>
      <point x="587" y="1480" type="line"/>
      <point x="953" y="1480" type="line"/>
      <point x="459" y="0" type="line"/>
      <point x="391" y="0"/>
      <point x="161" y="0"/>
      <point x="93" y="0" type="curve"/>
    </contour>
  </outline>
</glyph>
<glyph name="percent" format="2">
  <advance width="2144"/>
  <unicode hex="0025"/>
  <outline>
    <contour>
      <point x="466" y="1116" type="curve" smooth="yes"/>
      <point x="466" y="1066"/>
      <point x="501" y="1032"/>
      <point x="551" y="1032" type="curve" smooth="yes"/>
      <point x="601" y="1032"/>
      <point x="635" y="1066"/>
      <point x="635" y="1116" type="curve" smooth="yes"/>
      <point x="635" y="1166"/>
      <point x="601" y="1200"/>
      <point x="551" y="1200" type="curve" smooth="yes"/>
      <point x="501" y="1200"/>
      <point x="466" y="1166"/>
    </contour>
    <contour>
      <point x="117" y="1116" type="curve" smooth="yes"/>
      <point x="117" y="1341"/>
      <point x="326" y="1520"/>
      <point x="551" y="1520" type="curve" smooth="yes"/>
      <point x="776" y="1520"/>
      <point x="985" y="1341"/>
      <point x="985" y="1116" type="curve" smooth="yes"/>
      <point x="985" y="891"/>
      <point x="776" y="712"/>
      <point x="551" y="712" type="curve" smooth="yes"/>
      <point x="326" y="712"/>
      <point x="117" y="891"/>
    </contour>
    <contour>
      <point x="1509" y="364" type="curve" smooth="yes"/>
      <point x="1509" y="314"/>
      <point x="1544" y="280"/>
      <point x="1594" y="280" type="curve" smooth="yes"/>
      <point x="1644" y="280"/>
      <point x="1678" y="314"/>
      <point x="1678" y="364" type="curve" smooth="yes"/>
      <point x="1678" y="414"/>
      <point x="1644" y="448"/>
      <point x="1594" y="448" type="curve" smooth="yes"/>
      <point x="1544" y="448"/>
      <point x="1509" y="414"/>
    </contour>
    <contour>
      <point x="1160" y="364" type="curve" smooth="yes"/>
      <point x="1160" y="589"/>
      <point x="1369" y="768"/>
      <point x="1594" y="768" type="curve" smooth="yes"/>
      <point x="1819" y="768"/>
      <point x="2028" y="589"/>
      <point x="2028" y="364" type="curve" smooth="yes"/>
      <point x="2028" y="139"/>
      <point x="1819" y="-40"/>
      <point x="1594" y="-40" type="curve" smooth="yes"/>
      <point x="1369" y="-40"/>
      <point x="1160" y="139"/>
    </contour>
    <contour>
      <point x="1702" y="1302" type="line"/>
      <point x="720" y="0" type="line"/>
      <point x="443" y="178" type="line"/>
      <point x="1425" y="1480" type="line"/>
    </contour>
  </outline>
</glyph>
<glyph name="ampersand" format="2">
  <advance width="1498"/>
  <unicode hex="0026"/>
  <outline>
    <contour>
      <point x="730" y="1190" type="curve" smooth="yes"/>
      <point x="594" y="1190"/>
      <point x="589" y="1080"/>
      <point x="589" y="1064" type="curve" smooth="yes"/>
      <point x="589" y="1041"/>
      <point x="598" y="1020"/>
      <point x="620" y="989" type="curve" smooth="yes"/>
      <point x="1318" y="0" type="line"/>
      <point x="890" y="0" type="line"/>
      <point x="304" y="815" type="line"/>
      <point x="304" y="815"/>
      <point x="226" y="904"/>
      <point x="226" y="1030" type="curve" smooth="yes"/>
      <point x="226" y="1191"/>
      <point x="377" y="1510"/>
      <point x="786" y="1510" type="curve" smooth="yes"/>
      <point x="1107" y="1510"/>
      <point x="1206" y="1333"/>
      <point x="1206" y="1195" type="curve" smooth="yes"/>
      <point x="1206" y="1178"/>
      <point x="1205" y="1162"/>
      <point x="1202" y="1147" type="curve"/>
      <point x="835" y="1107" type="line"/>
      <point x="836" y="1114"/>
      <point x="837" y="1120"/>
      <point x="837" y="1126" type="curve" smooth="yes"/>
      <point x="837" y="1172"/>
      <point x="801" y="1190"/>
    </contour>
    <contour>
      <point x="613" y="290" type="curve" smooth="yes"/>
      <point x="883" y="290"/>
      <point x="1021" y="517"/>
      <point x="1047" y="667" type="curve"/>
      <point x="1372" y="573" type="line"/>
      <point x="1302" y="288"/>
      <point x="1015" y="-30"/>
      <point x="515" y="-30" type="curve" smooth="yes"/>
      <point x="192" y="-30"/>
      <point x="-14" y="91"/>
      <point x="-14" y="335" type="curve" smooth="yes"/>
      <point x="-14" y="618"/>
      <point x="194" y="727"/>
      <point x="694" y="989" type="curve" smooth="yes"/>
      <point x="751" y="1019"/>
      <point x="828" y="1067"/>
      <point x="835" y="1107" type="curve"/>
      <point x="1202" y="1147" type="line"/>
      <point x="1119" y="678"/>
      <point x="352" y="612"/>
      <point x="352" y="402" type="curve" smooth="yes"/>
      <point x="352" y="337"/>
      <point x="414" y="290"/>
    </contour>
  </outline>
</glyph>
<glyph name="parenright" format="2">
  <advance width="877"/>
  <unicode hex="0029"/>
  <outline>
    <contour>
      <point x="-114" y="-51" type="line"/>
      <point x="87" y="20"/>
      <point x="466" y="340"/>
      <point x="466" y="801" type="curve" smooth="yes"/>
      <point x="466" y="1133"/>
      <point x="248" y="1324"/>
      <point x="136" y="1369" type="curve"/>
      <point x="355" y="1658" type="line"/>
      <point x="503" y="1592"/>
      <point x="831" y="1329"/>
      <point x="831" y="854" type="curve" smooth="yes"/>
      <point x="831" y="213"/>
      <point x="299" y="-225"/>
      <point x="3" y="-340" type="curve"/>
    </contour>
  </outline>
</glyph>
<glyph name="asterisk" format="2">
  <advance width="1186"/>
  <unicode hex="002A"/>
  <outline>
    <contour>
      <point x="88" y="951" type="line"/>
      <point x="262" y="1301" type="line"/>
      <point x="710" y="1120" type="line"/>
      <point x="634" y="968" type="line"/>
      <point x="558" y="816" type="line"/>
    </contour>
    <contour>
      <point x="390" y="446" type="line"/>
      <point x="130" y="662" type="line"/>
      <point x="521" y="1062" type="line"/>
      <point x="634" y="968" type="line"/>
      <point x="746" y="874" type="line"/>
    </contour>
    <contour>
      <point x="1030" y="662" type="line"/>
      <point x="694" y="446" type="line"/>
      <point x="488" y="874" type="line"/>
      <point x="634" y="968" type="line"/>
      <point x="779" y="1062" type="line"/>
    </contour>
    <contour>
      <point x="1122" y="1301" type="line"/>
      <point x="1174" y="951" type="line"/>
      <point x="656" y="816" type="line"/>
      <point x="634" y="968" type="line"/>
      <point x="610" y="1120" type="line"/>
    </contour>
    <contour>
      <point x="540" y="1480" type="line"/>
      <point x="908" y="1480" type="line"/>
      <point x="794" y="968" type="line"/>
      <point x="634" y="968" type="line"/>
      <point x="474" y="968" type="line"/>
    </contour>
  </outline>
</glyph>
<glyph name="plus" format="2">
  <advance width="1232"/>
  <unicode hex="002B"/>
  <outline>
    <contour>
      <point x="519" y="1207" type="line"/>
      <point x="879" y="1207" type="line"/>
      <point x="686" y="113" type="line"/>
      <point x="326" y="113" type="line"/>
    </contour>
    <contour>
      <point x="28" y="500" type="line"/>
      <point x="85" y="820" type="line"/>
      <point x="1177" y="820" type="line"/>
      <point x="1120" y="500" type="line"/>
    </contour>
  </outline>
</glyph>
<glyph name="eight" format="2">
  <advance width="1232"/>
  <unicode hex="0038"/>
  <outline>
    <contour>
      <point x="481" y="-30" type="curve" smooth="yes"/>
      <point x="890" y="-30"/>
      <point x="1147" y="238"/>
      <point x="1147" y="526" type="curve" smooth="yes"/>
      <point x="1147" y="765"/>
      <point x="940" y="896"/>
      <point x="644" y="896" type="curve" smooth="yes"/>
      <point x="235" y="896"/>
      <point x="-18" y="656"/>
      <point x="-18" y="361" type="curve" smooth="yes"/>
      <point x="-18" y="120"/>
      <point x="182" y="-30"/>
    </contour>
    <contour>
      <point x="369" y="431" type="curve" smooth="yes"/>
      <point x="369" y="511"/>
      <point x="449" y="600"/>
      <point x="592" y="600" type="curve" smooth="yes"/>
      <point x="709" y="600"/>
      <point x="763" y="541"/>
      <point x="763" y="475" type="curve" smooth="yes"/>
      <point x="763" y="395"/>
      <point x="683" y="306"/>
      <point x="540" y="306" type="curve" smooth="yes"/>
      <point x="423" y="306"/>
      <point x="369" y="365"/>
    </contour>
    <contour>
      <point x="595" y="620" type="curve" smooth="yes"/>
      <point x="1006" y="620"/>
      <point x="1218" y="880"/>
      <point x="1218" y="1119" type="curve" smooth="yes"/>
      <point x="1218" y="1322"/>
      <point x="1065" y="1510"/>
      <point x="752" y="1510" type="curve" smooth="yes"/>
      <point x="366" y="1510"/>
      <point x="124" y="1225"/>
      <point x="124" y="977" type="curve" smooth="yes"/>
      <point x="124" y="787"/>
      <point x="266" y="620"/>
    </contour>
    <contour>
      <point x="511" y="1024" type="curve" smooth="yes"/>
      <point x="511" y="1095"/>
      <point x="577" y="1174"/>
      <point x="693" y="1174" type="curve" smooth="yes"/>
      <point x="787" y="1174"/>
      <point x="830" y="1123"/>
      <point x="830" y="1066" type="curve" smooth="yes"/>
      <point x="830" y="995"/>
      <point x="764" y="916"/>
      <point x="648" y="916" type="curve" smooth="yes"/>
      <point x="554" y="916"/>
      <point x="511" y="967"/>
    </contour>
  </outline>
</glyph>
<glyph name="less" format="2">
  <advance width="1232"/>
  <unicode hex="003C"/>
  <outline>
    <contour>
      <point x="28" y="498" type="line"/>
      <point x="85" y="822" type="line"/>
      <point x="1257" y="1274" type="line"/>
      <point x="1196" y="930" type="line"/>
      <point x="458" y="660" type="line"/>
      <point x="1101" y="390" type="line"/>
      <point x="1040" y="46" type="line"/>
    </contour>
  </outline>
</glyph>
<glyph name="question" format="2">
  <advance width="1204"/>
  <unicode hex="003F"/>
  <outline>
    <contour>
      <point x="626" y="876" type="line"/>
      <point x="683" y="876"/>
      <point x="848" y="890"/>
      <point x="848" y="1056" type="curve" smooth="yes"/>
      <point x="848" y="1153"/>
      <point x="759" y="1190"/>
      <point x="682" y="1190" type="curve" smooth="yes"/>
      <point x="510" y="1190"/>
      <point x="437" y="1029"/>
      <point x="437" y="906" type="curve"/>
      <point x="85" y="990" type="line"/>
      <point x="141" y="1310"/>
      <point x="402" y="1510"/>
      <point x="738" y="1510" type="curve" smooth="yes"/>
      <point x="1005" y="1510"/>
      <point x="1213" y="1360"/>
      <point x="1213" y="1111" type="curve" smooth="yes"/>
      <point x="1213" y="854"/>
      <point x="1014" y="540"/>
      <point x="567" y="540" type="curve"/>
    </contour>
    <contour>
      <point x="306" y="160" type="curve" smooth="yes"/>
      <point x="306" y="271"/>
      <point x="395" y="360"/>
      <point x="506" y="360" type="curve" smooth="yes"/>
      <point x="617" y="360"/>
      <point x="706" y="271"/>
      <point x="706" y="160" type="curve" smooth="yes"/>
      <point x="706" y="49"/>
      <point x="617" y="-40"/>
      <point x="506" y="-40" type="curve" smooth="yes"/>
      <point x="395" y="-40"/>
      <point x="306" y="49"/>
    </contour>
    <contour>
      <point x="378" y="452" type="line"/>
      <point x="452" y="876" type="line"/>
      <point x="812" y="876" type="line"/>
      <point x="738" y="452" type="line"/>
    </contour>
  </outline>
</glyph>
<glyph name="D" format="2">
  <advance width="1486"/>
  <unicode hex="0044"/>
  <anchor x="463" y="-20" name="bottom_cedilla"/>
  <anchor x="562" y="0" name="bottom_center"/>
  <anchor x="805" y="1380" name="top_center"/>
  <outline>
    <contour>
      <point x="599" y="336" type="line" smooth="yes"/>
      <point x="890" y="336"/>
      <point x="1065" y="581"/>
      <point x="1065" y="830" type="curve" smooth="yes"/>
      <point x="1065" y="1042"/>
      <point x="913" y="1144"/>
      <point x="742" y="1144" type="curve" smooth="yes"/>
      <point x="522" y="1144" type="line"/>
      <point x="379" y="336" type="line"/>
    </contour>
    <contour>
      <point x="1451" y="895" type="curve" smooth="yes"/>
      <point x="1451" y="448"/>
      <point x="1118" y="0"/>
      <point x="540" y="0" type="curve" smooth="yes"/>
      <point x="-60" y="0" type="line"/>
      <point x="201" y="1480" type="line"/>
      <point x="801" y="1480" type="line" smooth="yes"/>
      <point x="1202" y="1480"/>
      <point x="1451" y="1255"/>
    </contour>
  </outline>
</glyph>
<glyph name="K" format="2">
  <advance width="1493"/>
  <unicode hex="004B"/>
  <anchor x="611" y="0" name="bottom_center"/>
  <anchor x="854" y="1380" name="top_center"/>
  <outline>
    <contour>
      <point x="464" y="801" type="line"/>
      <point x="825" y="925" type="line"/>
      <point x="1328" y="0" type="line"/>
      <point x="888" y="0" type="line"/>
    </contour>
    <contour>
      <point x="399" y="450" type="line"/>
      <point x="320" y="0" type="line"/>
      <point x="-60" y="0" type="line"/>
      <point x="201" y="1480" type="line"/>
      <point x="581" y="1480" type="line"/>
      <point x="486" y="940" type="line"/>
      <point x="1109" y="1480" type="line"/>
      <point x="1589" y="1480" type="line"/>
    </contour>
  </outline>
</glyph>
<glyph name="L" format="2">
  <advance width="1254"/>
  <unicode hex="004C"/>
  <anchor x="497" y="0" name="bottom_center"/>
  <anchor x="373" y="1380" name="top_center"/>
  <outline>
    <contour>
      <point x="581" y="1480" type="line"/>
      <point x="379" y="336" type="line"/>
      <point x="1113" y="336" type="line"/>
      <point x="1054" y="0" type="line"/>
      <point x="-60" y="0" type="line"/>
      <point x="201" y="1480" type="line"/>
    </contour>
  </outline>
</glyph>
<glyph name="Q" format="2">
  <advance width="1620"/>
  <unicode hex="0051"/>
  <anchor x="923" y="1380" name="top_center"/>
  <anchor x="680" y="0" name="bottom_center"/>
  <outline>
    <contour>
      <point x="887" y="1174" type="curve" smooth="yes"/>
      <point x="555" y="1174"/>
      <point x="420" y="859"/>
      <point x="420" y="629" type="curve" smooth="yes"/>
      <point x="420" y="437"/>
      <point x="523" y="306"/>
      <point x="734" y="306" type="curve" smooth="yes"/>
      <point x="1066" y="306"/>
      <point x="1201" y="621"/>
      <point x="1201" y="851" type="curve" smooth="yes"/>
      <point x="1201" y="1043"/>
      <point x="1098" y="1174"/>
    </contour>
    <contour>
      <point x="36" y="577" type="curve" smooth="yes"/>
      <point x="36" y="1039"/>
      <point x="380" y="1510"/>
      <point x="946" y="1510" type="curve" smooth="yes"/>
      <point x="1348" y="1510"/>
      <point x="1585" y="1265"/>
      <point x="1585" y="903" type="curve" smooth="yes"/>
      <point x="1585" y="441"/>
      <point x="1241" y="-30"/>
      <point x="675" y="-30" type="curve" smooth="yes"/>
      <point x="273" y="-30"/>
      <point x="36" y="215"/>
    </contour>
    <contour>
      <point x="1462" y="124" type="line"/>
      <point x="1170" y="-124" type="line"/>
      <point x="692" y="456" type="line"/>
      <point x="984" y="704" type="line"/>
    </contour>
  </outline>
</glyph>
<glyph name="U" format="2">
  <advance width="1482"/>
  <unicode hex="0055"/>
  <anchor x="607" y="-20" name="bottom_cedilla"/>
  <anchor x="854" y="1380" name="top_center"/>
  <anchor x="1543" y="1480" name="top_right"/>
  <anchor x="611" y="0" name="bottom_center"/>
  <anchor x="843" y="0" name="bottom_right"/>
  <outline>
    <contour>
      <point x="581" y="1480" type="line"/>
      <point x="426" y="600" type="line" smooth="yes"/>
      <point x="422" y="575"/>
      <point x="419" y="552"/>
      <point x="419" y="530" type="curve" smooth="yes"/>
      <point x="419" y="371"/>
      <point x="533" y="306"/>
      <point x="665" y="306" type="curve" smooth="yes"/>
      <point x="815" y="306"/>
      <point x="971" y="390"/>
      <point x="1008" y="600" type="curve" smooth="yes"/>
      <point x="1163" y="1480" type="line"/>
      <point x="1543" y="1480" type="line"/>
      <point x="1388" y="600" type="line" smooth="yes"/>
      <point x="1325" y="240"/>
      <point x="1038" y="-30"/>
      <point x="606" y="-30" type="curve" smooth="yes"/>
      <point x="228" y="-30"/>
      <point x="34" y="177"/>
      <point x="34" y="470" type="curve" smooth="yes"/>
      <point x="34" y="512"/>
      <point x="38" y="555"/>
      <point x="46" y="600" type="curve" smooth="yes"/>
      <point x="201" y="1480" type="line"/>
    </contour>
  </outline>
</glyph>
<glyph name="bracketright" format="2">
  <advance width="883"/>
  <unicode hex="005D"/>
  <outline>
    <contour>
      <point x="138" y="1320" type="line"/>
      <point x="194" y="1640" type="line"/>
      <point x="972" y="1640" type="line"/>
      <point x="627" y="-320" type="line"/>
      <point x="-151" y="-320" type="line"/>
      <point x="-95" y="0" type="line"/>
      <point x="323" y="0" type="line"/>
      <point x="556" y="1320" type="line"/>
    </contour>
  </outline>
</glyph>
<glyph name="underscore" format="2">
  <advance width="1232"/>
  <unicode hex="005F"/>
  <outline>
    <contour>
      <point x="-130" y="0" type="line"/>
      <point x="1102" y="0" type="line"/>
      <point x="1046" y="-320" type="line"/>
      <point x="-186" y="-320" type="line"/>
    </contour>
  </outline>
</glyph>
<glyph name="grave" format="2">
  <advance width="652"/>
  <unicode hex="0060"/>
  <outline>
    <contour>
      <point x="347" y="1224" type="line"/>
      <point x="166" y="1480" type="line"/>
      <point x="570" y="1480" type="line"/>
      <point x="703" y="1224" type="line"/>
    </contour>
  </outline>
</glyph>
<glyph name="c" format="2">
  <advance width="1139"/>
  <unicode hex="0063"/>
  <anchor x="653" y="1040" name="top_center"/>
  <anchor x="472" y="0" name="bottom_center"/>
  <anchor x="468" y="-20" name="bottom_cedilla"/>
  <outline>
    <contour>
      <point x="602" y="750" type="curve" smooth="yes"/>
      <point x="443" y="750"/>
      <point x="365" y="621"/>
      <point x="365" y="450" type="curve" smooth="yes"/>
      <point x="365" y="353"/>
      <point x="411" y="290"/>
      <point x="523" y="290" type="curve" smooth="yes"/>
      <point x="627" y="290"/>
      <point x="692" y="344"/>
      <point x="728" y="430" type="curve"/>
      <point x="1003" y="252" type="line"/>
      <point x="884" y="79"/>
      <point x="688" y="-30"/>
      <point x="467" y="-30" type="curve" smooth="yes"/>
      <point x="184" y="-30"/>
      <point x="2" y="149"/>
      <point x="2" y="411" type="curve" smooth="yes"/>
      <point x="2" y="806"/>
      <point x="308" y="1070"/>
      <point x="659" y="1070" type="curve" smooth="yes"/>
      <point x="880" y="1070"/>
      <point x="1039" y="961"/>
      <point x="1096" y="788" type="curve"/>
      <point x="758" y="610" type="line"/>
      <point x="752" y="696"/>
      <point x="706" y="750"/>
    </contour>
  </outline>
</glyph>
<glyph name="e" format="2">
  <advance width="1136"/>
  <unicode hex="0065"/>
  <anchor x="467" y="-20" name="bottom_cedilla"/>
  <anchor x="673" y="0" name="bottom_right"/>
  <anchor x="470" y="0" name="bottom_center"/>
  <anchor x="653" y="1040" name="top_center"/>
  <outline>
    <contour>
      <point x="688" y="695" type="curve" smooth="yes"/>
      <point x="688" y="737"/>
      <point x="636" y="750"/>
      <point x="602" y="750" type="curve" smooth="yes"/>
      <point x="370" y="750"/>
      <point x="365" y="477"/>
      <point x="365" y="451" type="curve" smooth="yes"/>
      <point x="365" y="356"/>
      <point x="409" y="290"/>
      <point x="521" y="290" type="curve" smooth="yes"/>
      <point x="635" y="290"/>
      <point x="673" y="341"/>
      <point x="698" y="380" type="curve"/>
      <point x="1032" y="234" type="line"/>
      <point x="909" y="57"/>
      <point x="687" y="-30"/>
      <point x="465" y="-30" type="curve" smooth="yes"/>
      <point x="182" y="-30"/>
      <point x="2" y="148"/>
      <point x="2" y="410" type="curve" smooth="yes"/>
      <point x="2" y="750"/>
      <point x="276" y="1070"/>
      <point x="659" y="1070" type="curve" smooth="yes"/>
      <point x="942" y="1070"/>
      <point x="1058" y="941"/>
      <point x="1058" y="780" type="curve" smooth="yes"/>
      <point x="1058" y="759"/>
      <point x="1056" y="737"/>
      <point x="1052" y="715" type="curve" smooth="yes"/>
      <point x="1018" y="525"/>
      <point x="839" y="360"/>
      <point x="419" y="360" type="curve" smooth="yes"/>
      <point x="110" y="360" type="line"/>
      <point x="155" y="620" type="line"/>
      <point x="464" y="620" type="line" smooth="yes"/>
      <point x="566" y="620"/>
      <point x="688" y="632"/>
    </contour>
  </outline>
</glyph>
<glyph name="k" format="2">
  <advance width="1163"/>
  <unicode hex="006B"/>
  <anchor x="454" y="0" name="bottom_center"/>
  <anchor x="363" y="1380" name="top_center"/>
  <outline>
    <contour>
      <point x="268" y="643" type="line"/>
      <point x="668" y="660" type="line"/>
      <point x="1028" y="0" type="line"/>
      <point x="608" y="0" type="line"/>
    </contour>
    <contour>
      <point x="361" y="344" type="line"/>
      <point x="300" y="0" type="line"/>
      <point x="-60" y="0" type="line"/>
      <point x="201" y="1480" type="line"/>
      <point x="561" y="1480" type="line"/>
      <point x="442" y="808" type="line"/>
      <point x="715" y="1040" type="line"/>
      <point x="1179" y="1040" type="line"/>
    </contour>
  </outline>
</glyph>
<glyph name="p" format="2">
  <advance width="1250"/>
  <unicode hex="0070"/>
  <anchor x="57" y="-360" name="bottom_center"/>
  <anchor x="683" y="1040" name="top_center"/>
  <outline>
    <contour>
      <point x="632" y="750" type="curve" smooth="yes"/>
      <point x="482" y="749"/>
      <point x="392" y="633"/>
      <point x="388" y="467" type="curve" smooth="yes"/>
      <point x="388" y="366"/>
      <point x="437" y="290"/>
      <point x="551" y="290" type="curve" smooth="yes"/>
      <point x="705" y="293"/>
      <point x="801" y="411"/>
      <point x="807" y="575" type="curve" smooth="yes"/>
      <point x="807" y="677"/>
      <point x="749" y="750"/>
    </contour>
    <contour>
      <point x="123" y="1040" type="line"/>
      <point x="471" y="1040" type="line"/>
      <point x="450" y="920" type="line"/>
      <point x="457" y="960"/>
      <point x="604" y="1070"/>
      <point x="754" y="1070" type="curve" smooth="yes"/>
      <point x="1029" y="1070"/>
      <point x="1174" y="900"/>
      <point x="1174" y="650" type="curve" smooth="yes"/>
      <point x="1174" y="251"/>
      <point x="919" y="-26"/>
      <point x="560" y="-30" type="curve" smooth="yes"/>
      <point x="410" y="-30"/>
      <point x="321" y="81"/>
      <point x="321" y="120" type="curve"/>
      <point x="222" y="-440" type="line"/>
      <point x="-138" y="-440" type="line"/>
    </contour>
  </outline>
</glyph>
<glyph name="t" format="2">
  <advance width="1058"/>
  <unicode hex="0074"/>
  <anchor x="506" y="-20" name="bottom_cedilla"/>
  <anchor x="427" y="0" name="bottom_center"/>
  <anchor x="570" y="1380" name="top_center"/>
  <outline>
    <contour>
      <point x="148" y="1028" type="line" smooth="yes"/>
      <point x="268" y="1028"/>
      <point x="366" y="1106"/>
      <point x="387" y="1226" type="curve" smooth="yes"/>
      <point x="404" y="1320" type="line"/>
      <point x="740" y="1320" type="line"/>
      <point x="690" y="1040" type="line"/>
      <point x="995" y="1040" type="line"/>
      <point x="939" y="720" type="line"/>
      <point x="634" y="720" type="line"/>
      <point x="585" y="440" type="line" smooth="yes"/>
      <point x="582" y="424"/>
      <point x="580" y="410"/>
      <point x="580" y="397" type="curve" smooth="yes"/>
      <point x="580" y="326"/>
      <point x="620" y="290"/>
      <point x="696" y="290" type="curve" smooth="yes"/>
      <point x="756" y="290"/>
      <point x="835" y="313"/>
      <point x="873" y="345" type="curve"/>
      <point x="907" y="22" type="line"/>
      <point x="847" y="-2"/>
      <point x="757" y="-30"/>
      <point x="636" y="-30" type="curve" smooth="yes"/>
      <point x="332" y="-30"/>
      <point x="213" y="105"/>
      <point x="213" y="316" type="curve" smooth="yes"/>
      <point x="213" y="355"/>
      <point x="217" y="396"/>
      <point x="225" y="440" type="curve" smooth="yes"/>
      <point x="274" y="720" type="line"/>
      <point x="22" y="720" type="line"/>
      <point x="76" y="1028" type="line"/>
    </contour>
  </outline>
</glyph>
<glyph name="v" format="2">
  <advance width="1174"/>
  <unicode hex="0076"/>
  <anchor x="457" y="0" name="bottom_center"/>
  <anchor x="640" y="1040" name="top_center"/>
  <outline>
    <contour>
      <point x="536" y="404" type="line"/>
      <point x="808" y="1040" type="line"/>
      <point x="1192" y="1040" type="line"/>
      <point x="654" y="0" type="line"/>
      <point x="260" y="0" type="line"/>
      <point x="88" y="1040" type="line"/>
      <point x="472" y="1040" type="line"/>
    </contour>
  </outline>
</glyph>
<glyph name="y" format="2">
  <advance width="1216"/>
  <unicode hex="0079"/>
  <anchor x="181" y="-360" name="bottom_center"/>
  <anchor x="682" y="1040" name="top_center"/>
  <outline>
    <contour>
      <point x="614" y="-158" type="line" smooth="yes"/>
      <point x="496" y="-386"/>
      <point x="368" y="-470"/>
      <point x="89" y="-470" type="curve" smooth="yes"/>
      <point x="-32" y="-470"/>
      <point x="-116" y="-439"/>
      <point x="-168" y="-415" type="curve"/>
      <point x="-16" y="-95" type="line"/>
      <point x="10" y="-127"/>
      <point x="86" y="-150"/>
      <point x="146" y="-150" type="curve" smooth="yes"/>
      <point x="206" y="-150"/>
      <point x="267" y="-107"/>
      <point x="293" y="-44" type="curve"/>
      <point x="313" y="0" type="line"/>
      <point x="130" y="1040" type="line"/>
      <point x="514" y="1040" type="line"/>
      <point x="578" y="404" type="line"/>
      <point x="850" y="1040" type="line"/>
      <point x="1234" y="1040" type="line"/>
    </contour>
  </outline>
</glyph>
<glyph name="braceleft" format="2">
  <advance width="779"/>
  <unicode hex="007B"/>
  <outline>
    <contour>
      <point x="479" y="152" type="line" smooth="yes"/>
      <point x="477" y="140"/>
      <point x="476" y="129"/>
      <point x="476" y="118" type="curve" smooth="yes"/>
      <point x="476" y="36"/>
      <point x="532" y="-20"/>
      <point x="620" y="-20" type="curve"/>
      <point x="564" y="-340" type="line"/>
      <point x="297" y="-340"/>
      <point x="110" y="-187"/>
      <point x="110" y="58" type="curve" smooth="yes"/>
      <point x="110" y="88"/>
      <point x="113" y="119"/>
      <point x="119" y="152" type="curve" smooth="yes"/>
      <point x="145" y="302" type="line" smooth="yes"/>
      <point x="147" y="314"/>
      <point x="149" y="327"/>
      <point x="149" y="339" type="curve" smooth="yes"/>
      <point x="149" y="425"/>
      <point x="96" y="500"/>
      <point x="8" y="500" type="curve"/>
      <point x="65" y="820" type="line"/>
      <point x="332" y="820"/>
      <point x="514" y="648"/>
      <point x="514" y="399" type="curve" smooth="yes"/>
      <point x="514" y="368"/>
      <point x="511" y="335"/>
      <point x="505" y="302" type="curve" smooth="yes"/>
    </contour>
    <contour>
      <point x="658" y="1168" type="curve" smooth="yes"/>
      <point x="632" y="1018" type="line" smooth="yes"/>
      <point x="579" y="718"/>
      <point x="308" y="500"/>
      <point x="8" y="500" type="curve"/>
      <point x="65" y="820" type="line"/>
      <point x="165" y="820"/>
      <point x="254" y="918"/>
      <point x="272" y="1018" type="curve" smooth="yes"/>
      <point x="298" y="1168" type="line" smooth="yes"/>
      <point x="351" y="1468"/>
      <point x="617" y="1660"/>
      <point x="917" y="1660" type="curve"/>
      <point x="860" y="1340" type="line"/>
      <point x="760" y="1340"/>
      <point x="676" y="1268"/>
    </contour>
  </outline>
</glyph>
<glyph name="exclamdown" format="2">
  <advance width="552"/>
  <unicode hex="00A1"/>
  <outline>
    <contour>
      <point x="501" y="880" type="curve" smooth="yes"/>
      <point x="501" y="769"/>
      <point x="412" y="680"/>
      <point x="301" y="680" type="curve" smooth="yes"/>
      <point x="190" y="680"/>
      <point x="101" y="769"/>
      <point x="101" y="880" type="curve" smooth="yes"/>
      <point x="101" y="991"/>
      <point x="190" y="1080"/>
      <point x="301" y="1080" type="curve" smooth="yes"/>
      <point x="412" y="1080"/>
      <point x="501" y="991"/>
    </contour>
    <contour>
      <point x="274" y="-440" type="line"/>
      <point x="-138" y="-440" type="line"/>
      <point x="90" y="588" type="line"/>
      <point x="410" y="588" type="line"/>
    </contour>
  </outline>
</glyph>
<glyph name="brokenbar" format="2">
  <advance width="460"/>
  <unicode hex="00A6"/>
  <outline>
    <contour>
      <point x="25" y="480" type="line"/>
      <point x="345" y="480" type="line"/>
      <point x="204" y="-320" type="line"/>
      <point x="-116" y="-320" type="line"/>
    </contour>
    <contour>
      <point x="408" y="840" type="line"/>
      <point x="88" y="840" type="line"/>
      <point x="229" y="1640" type="line"/>
      <point x="549" y="1640" type="line"/>
    </contour>
  </outline>
</glyph>
<glyph name="section" format="2">
  <advance width="1292"/>
  <unicode hex="00A7"/>
  <outline>
    <contour>
      <point x="490" y="-150" type="curve" smooth="yes"/>
      <point x="584" y="-150"/>
      <point x="727" y="-132"/>
      <point x="727" y="-19" type="curve" smooth="yes"/>
      <point x="727" y="42"/>
      <point x="645" y="69"/>
      <point x="534" y="101" type="curve" smooth="yes"/>
      <point x="329" y="159"/>
      <point x="34" y="225"/>
      <point x="34" y="497" type="curve" smooth="yes"/>
      <point x="34" y="639"/>
      <point x="97" y="971"/>
      <point x="687" y="971" type="curve"/>
      <point x="642" y="713" type="line"/>
      <point x="447" y="713"/>
      <point x="400" y="602"/>
      <point x="400" y="554" type="curve" smooth="yes"/>
      <point x="400" y="497"/>
      <point x="483" y="469"/>
      <point x="592" y="438" type="curve" smooth="yes"/>
      <point x="797" y="380"/>
      <point x="1093" y="315"/>
      <point x="1093" y="39" type="curve" smooth="yes"/>
      <point x="1093" y="-64"/>
      <point x="1040" y="-470"/>
      <point x="433" y="-470" type="curve" smooth="yes"/>
      <point x="132" y="-470"/>
      <point x="-79" y="-365"/>
      <point x="-79" y="-116" type="curve" smooth="yes"/>
      <point x="-79" y="-113"/>
      <point x="-79" y="-110"/>
      <point x="-79" y="-107" type="curve"/>
      <point x="292" y="-7" type="line"/>
      <point x="291" y="-14"/>
      <point x="290" y="-21"/>
      <point x="290" y="-28" type="curve" smooth="yes"/>
      <point x="290" y="-98"/>
      <point x="354" y="-150"/>
    </contour>
    <contour>
      <point x="726" y="1190" type="curve" smooth="yes"/>
      <point x="683" y="1190"/>
      <point x="541" y="1190"/>
      <point x="541" y="1064" type="curve" smooth="yes"/>
      <point x="541" y="1023"/>
      <point x="609" y="995"/>
      <point x="687" y="971" type="curve" smooth="yes"/>
      <point x="876" y="913"/>
      <point x="1188" y="840"/>
      <point x="1188" y="575" type="curve" smooth="yes"/>
      <point x="1188" y="435"/>
      <point x="1125" y="101"/>
      <point x="534" y="101" type="curve"/>
      <point x="579" y="359" type="line"/>
      <point x="773" y="359"/>
      <point x="822" y="468"/>
      <point x="822" y="518" type="curve" smooth="yes"/>
      <point x="822" y="576"/>
      <point x="737" y="603"/>
      <point x="629" y="634" type="curve" smooth="yes"/>
      <point x="439" y="688"/>
      <point x="176" y="752"/>
      <point x="176" y="1008" type="curve" smooth="yes"/>
      <point x="176" y="1231"/>
      <point x="381" y="1510"/>
      <point x="782" y="1510" type="curve" smooth="yes"/>
      <point x="1046" y="1510"/>
      <point x="1247" y="1390"/>
      <point x="1247" y="1164" type="curve" smooth="yes"/>
      <point x="1247" y="1159"/>
      <point x="1247" y="1154"/>
      <point x="1247" y="1149" type="curve"/>
      <point x="876" y="1049" type="line"/>
      <point x="878" y="1062"/>
      <point x="879" y="1073"/>
      <point x="879" y="1085" type="curve" smooth="yes"/>
      <point x="879" y="1146"/>
      <point x="844" y="1190"/>
    </contour>
  </outline>
</glyph>
<glyph name="macron" format="2">
  <advance width="802"/>
  <unicode hex="00AF"/>
  <outline>
    <contour>
      <point x="115" y="1192" type="line"/>
      <point x="165" y="1472" type="line"/>
      <point x="897" y="1472" type="line"/>
      <point x="847" y="1192" type="line"/>
    </contour>
  </outline>
</glyph>
<glyph name="degree" format="2">
  <advance width="968"/>
  <unicode hex="00B0"/>
  <outline>
    <contour>
      <point x="466" y="1116" type="curve" smooth="yes"/>
      <point x="466" y="1066"/>
      <point x="501" y="1032"/>
      <point x="551" y="1032" type="curve" smooth="yes"/>
      <point x="601" y="1032"/>
      <point x="635" y="1066"/>
      <point x="635" y="1116" type="curve" smooth="yes"/>
      <point x="635" y="1166"/>
      <point x="601" y="1200"/>
      <point x="551" y="1200" type="curve" smooth="yes"/>
      <point x="501" y="1200"/>
      <point x="466" y="1166"/>
    </contour>
    <contour>
      <point x="117" y="1116" type="curve" smooth="yes"/>
      <point x="117" y="1346"/>
      <point x="321" y="1520"/>
      <point x="551" y="1520" type="curve" smooth="yes"/>
      <point x="781" y="1520"/>
      <point x="985" y="1346"/>
      <point x="985" y="1116" type="curve" smooth="yes"/>
      <point x="985" y="886"/>
      <point x="781" y="712"/>
      <point x="551" y="712" type="curve" smooth="yes"/>
      <point x="321" y="712"/>
      <point x="117" y="886"/>
    </contour>
  </outline>
</glyph>
<glyph name="periodcentered" format="2">
  <advance width="500"/>
  <unicode hex="00B7"/>
  <outline>
    <contour>
      <point x="36" y="660" type="curve" smooth="yes"/>
      <point x="36" y="771"/>
      <point x="126" y="860"/>
      <point x="237" y="860" type="curve" smooth="yes"/>
      <point x="348" y="860"/>
      <point x="436" y="771"/>
      <point x="436" y="660" type="curve" smooth="yes"/>
      <point x="436" y="549"/>
      <point x="347" y="460"/>
      <point x="236" y="460" type="curve" smooth="yes"/>
      <point x="125" y="460"/>
      <point x="36" y="549"/>
    </contour>
  </outline>
</glyph>
<glyph name="one.superior" format="2">
  <advance width="796"/>
  <unicode hex="00B9"/>
  <outline>
    <contour>
      <point x="441" y="1266" type="line"/>
      <point x="361" y="810" type="line"/>
      <point x="631" y="810" type="line"/>
      <point x="782" y="1668" type="line"/>
      <point x="529" y="1668" type="line"/>
      <point x="526" y="1652" type="line" smooth="yes"/>
      <point x="513" y="1576"/>
      <point x="423" y="1506"/>
      <point x="321" y="1506" type="curve" smooth="yes"/>
      <point x="265" y="1506" type="line"/>
      <point x="222" y="1266" type="line"/>
    </contour>
  </outline>
</glyph>
<glyph name="questiondown" format="2">
  <advance width="1264"/>
  <unicode hex="00BF"/>
  <outline>
    <contour>
      <point x="704" y="97" type="line"/>
      <point x="704" y="-78"/>
      <point x="553" y="-150"/>
      <point x="476" y="-150" type="curve" smooth="yes"/>
      <point x="399" y="-150"/>
      <point x="310" y="-113"/>
      <point x="310" y="-16" type="curve" smooth="yes"/>
      <point x="310" y="31"/>
      <point x="328" y="164"/>
      <point x="531" y="164" type="curve"/>
      <point x="590" y="500" type="line"/>
      <point x="142" y="500"/>
      <point x="-55" y="185"/>
      <point x="-55" y="-71" type="curve" smooth="yes"/>
      <point x="-55" y="-320"/>
      <point x="153" y="-470"/>
      <point x="419" y="-470" type="curve" smooth="yes"/>
      <point x="715" y="-470"/>
      <point x="1000" y="-307"/>
      <point x="1056" y="13" type="curve"/>
    </contour>
    <contour>
      <point x="851" y="880" type="curve" smooth="yes"/>
      <point x="851" y="769"/>
      <point x="762" y="680"/>
      <point x="651" y="680" type="curve" smooth="yes"/>
      <point x="540" y="680"/>
      <point x="451" y="769"/>
      <point x="451" y="880" type="curve" smooth="yes"/>
      <point x="451" y="991"/>
      <point x="540" y="1080"/>
      <point x="651" y="1080" type="curve" smooth="yes"/>
      <point x="762" y="1080"/>
      <point x="851" y="991"/>
    </contour>
    <contour>
      <point x="780" y="588" type="line"/>
      <point x="420" y="588" type="line"/>
      <point x="345" y="164" type="line"/>
      <point x="705" y="164" type="line"/>
    </contour>
  </outline>
</glyph>
<glyph name="AE" format="2">
  <advance width="2351"/>
  <unicode hex="00C6"/>
  <anchor x="1677" y="1380" name="top_center"/>
  <anchor x="1037" y="0" name="bottom_center"/>
  <outline>
    <contour>
      <point x="948" y="1144" type="line"/>
      <point x="1007" y="1480" type="line"/>
      <point x="1298" y="1480" type="line"/>
      <point x="1371" y="1144" type="line"/>
    </contour>
    <contour>
      <point x="571" y="688" type="line"/>
      <point x="1308" y="688" type="line"/>
      <point x="1249" y="352" type="line"/>
      <point x="512" y="352" type="line"/>
    </contour>
    <contour>
      <point x="-95" y="0" type="line"/>
      <point x="1007" y="1480" type="line"/>
      <point x="1339" y="1358" type="line"/>
      <point x="345" y="0" type="line"/>
    </contour>
    <contour>
      <point x="2197" y="908" type="line"/>
      <point x="2138" y="572" type="line"/>
      <point x="1518" y="572" type="line"/>
      <point x="1476" y="336" type="line"/>
      <point x="2210" y="336" type="line"/>
      <point x="2151" y="0" type="line"/>
      <point x="1037" y="0" type="line"/>
      <point x="1298" y="1480" type="line"/>
      <point x="2412" y="1480" type="line"/>
      <point x="2353" y="1144" type="line"/>
      <point x="1619" y="1144" type="line"/>
      <point x="1577" y="908" type="line"/>
    </contour>
  </outline>
</glyph>
<glyph name="germandbls" format="2">
  <advance width="1300"/>
  <unicode hex="00DF"/>
  <outline>
    <contour>
      <point x="842" y="479" type="curve" smooth="yes"/>
      <point x="842" y="462"/>
      <point x="836" y="290"/>
      <point x="603" y="290" type="curve" smooth="yes"/>
      <point x="561" y="290"/>
      <point x="536" y="296"/>
      <point x="483" y="329" type="curve"/>
      <point x="362" y="10" type="line"/>
      <point x="400" y="-3"/>
      <point x="497" y="-30"/>
      <point x="547" y="-30" type="curve" smooth="yes"/>
      <point x="1002" y="-30"/>
      <point x="1206" y="290"/>
      <point x="1206" y="528" type="curve" smooth="yes"/>
      <point x="1206" y="769"/>
      <point x="980" y="932"/>
      <point x="652" y="932" type="curve"/>
      <point x="596" y="612" type="line"/>
      <point x="708" y="612"/>
      <point x="842" y="581"/>
    </contour>
    <contour>
      <point x="670" y="692" type="line"/>
      <point x="952" y="692"/>
      <point x="1204" y="852"/>
      <point x="1204" y="1128" type="curve" smooth="yes"/>
      <point x="1204" y="1348"/>
      <point x="1019" y="1510"/>
      <point x="742" y="1510" type="curve" smooth="yes"/>
      <point x="436" y="1510"/>
      <point x="171" y="1311"/>
      <point x="126" y="1056" type="curve" smooth="yes"/>
      <point x="81" y="801"/>
      <point x="-60" y="0"/>
      <point x="-60" y="0" type="curve"/>
      <point x="300" y="0" type="line"/>
      <point x="300" y="0"/>
      <point x="472" y="976"/>
      <point x="486" y="1056" type="curve" smooth="yes"/>
      <point x="500" y="1136"/>
      <point x="596" y="1190"/>
      <point x="686" y="1190" type="curve" smooth="yes"/>
      <point x="768" y="1190"/>
      <point x="840" y="1149"/>
      <point x="840" y="1077" type="curve" smooth="yes"/>
      <point x="840" y="1015"/>
      <point x="810" y="932"/>
      <point x="652" y="932" type="curve"/>
    </contour>
  </outline>
</glyph>
<glyph name="eth" format="2">
  <advance width="1296"/>
  <unicode hex="00F0"/>
  <outline>
    <contour>
      <point x="471" y="1052" type="line"/>
      <point x="680" y="1145"/>
      <point x="889" y="1237"/>
      <point x="1098" y="1330" type="curve"/>
      <point x="1051" y="1465" type="line"/>
      <point x="842" y="1375"/>
      <point x="635" y="1282"/>
      <point x="427" y="1190" type="curve"/>
    </contour>
    <contour>
      <point x="439" y="1260" type="line"/>
      <point x="534" y="1200"/>
      <point x="883" y="1103"/>
      <point x="883" y="680" type="curve" smooth="yes"/>
      <point x="883" y="631"/>
      <point x="878" y="578"/>
      <point x="868" y="520" type="curve"/>
      <point x="1208" y="520" type="line"/>
      <point x="1220" y="585"/>
      <point x="1225" y="648"/>
      <point x="1225" y="708" type="curve" smooth="yes"/>
      <point x="1225" y="1092"/>
      <point x="998" y="1377"/>
      <point x="634" y="1540" type="curve"/>
    </contour>
    <contour>
      <point x="367" y="468" type="curve" smooth="yes"/>
      <point x="367" y="592"/>
      <point x="448" y="750"/>
      <point x="650" y="750" type="curve" smooth="yes"/>
      <point x="781" y="750"/>
      <point x="853" y="682"/>
      <point x="853" y="572" type="curve" smooth="yes"/>
      <point x="853" y="446"/>
      <point x="770" y="290"/>
      <point x="569" y="290" type="curve" smooth="yes"/>
      <point x="439" y="290"/>
      <point x="367" y="358"/>
    </contour>
    <contour>
      <point x="707" y="1070" type="curve" smooth="yes"/>
      <point x="291" y="1070"/>
      <point x="3" y="752"/>
      <point x="3" y="419" type="curve" smooth="yes"/>
      <point x="3" y="158"/>
      <point x="195" y="-30"/>
      <point x="513" y="-30" type="curve" smooth="yes"/>
      <point x="870" y="-30"/>
      <point x="1153" y="208"/>
      <point x="1208" y="520" type="curve"/>
      <point x="1048" y="520" type="line"/>
      <point x="1055" y="561"/>
      <point x="1059" y="600"/>
      <point x="1059" y="638" type="curve" smooth="yes"/>
      <point x="1059" y="890"/>
      <point x="907" y="1070"/>
    </contour>
  </outline>
</glyph>
<glyph name="oslash" format="2">
  <advance width="1180"/>
  <unicode hex="00F8"/>
  <anchor x="460" y="0" name="bottom_center"/>
  <anchor x="643" y="1040" name="top_center"/>
  <outline>
    <contour>
      <point x="1006" y="1209" type="line"/>
      <point x="1227" y="1016" type="line"/>
      <point x="95" y="-170" type="line"/>
      <point x="-123" y="26" type="line"/>
    </contour>
    <contour>
      <point x="592" y="750" type="curve" smooth="yes"/>
      <point x="361" y="750"/>
      <point x="355" y="477"/>
      <point x="355" y="451" type="curve" smooth="yes"/>
      <point x="355" y="356"/>
      <point x="399" y="290"/>
      <point x="511" y="290" type="curve" smooth="yes"/>
      <point x="743" y="290"/>
      <point x="749" y="561"/>
      <point x="749" y="591" type="curve" smooth="yes"/>
      <point x="749" y="688"/>
      <point x="704" y="750"/>
    </contour>
    <contour>
      <point x="-8" y="411" type="curve" smooth="yes"/>
      <point x="-8" y="751"/>
      <point x="267" y="1070"/>
      <point x="649" y="1070" type="curve" smooth="yes"/>
      <point x="931" y="1070"/>
      <point x="1112" y="891"/>
      <point x="1112" y="629" type="curve" smooth="yes"/>
      <point x="1112" y="289"/>
      <point x="837" y="-30"/>
      <point x="455" y="-30" type="curve" smooth="yes"/>
      <point x="173" y="-30"/>
      <point x="-8" y="149"/>
    </contour>
  </outline>
</glyph>
<glyph name="thorn" format="2">
  <advance width="1250"/>
  <unicode hex="00FE"/>
  <outline>
    <contour>
      <point x="632" y="750" type="curve" smooth="yes"/>
      <point x="459" y="750"/>
      <point x="376" y="591"/>
      <point x="376" y="464" type="curve" smooth="yes"/>
      <point x="376" y="362"/>
      <point x="434" y="290"/>
      <point x="551" y="290" type="curve" smooth="yes"/>
      <point x="725" y="290"/>
      <point x="807" y="448"/>
      <point x="807" y="575" type="curve" smooth="yes"/>
      <point x="807" y="677"/>
      <point x="749" y="750"/>
    </contour>
    <contour>
      <point x="1174" y="650" type="curve" smooth="yes"/>
      <point x="1174" y="336"/>
      <point x="970" y="-30"/>
      <point x="560" y="-30" type="curve" smooth="yes"/>
      <point x="410" y="-30"/>
      <point x="324" y="81"/>
      <point x="321" y="120" type="curve"/>
      <point x="222" y="-440" type="line"/>
      <point x="-138" y="-440" type="line"/>
      <point x="201" y="1480" type="line"/>
      <point x="561" y="1480" type="line"/>
      <point x="462" y="920" type="line"/>
      <point x="479" y="959"/>
      <point x="604" y="1070"/>
      <point x="754" y="1070" type="curve" smooth="yes"/>
      <point x="1029" y="1070"/>
      <point x="1174" y="901"/>
    </contour>
  </outline>
</glyph>
<glyph name="dcaron" format="2">
  <advance width="1744"/>
  <unicode hex="010F"/>
  <outline>
    <contour>
      <point x="541" y="290" type="curve" smooth="yes"/>
      <point x="691" y="291"/>
      <point x="782" y="407"/>
      <point x="786" y="573" type="curve" smooth="yes"/>
      <point x="786" y="674"/>
      <point x="736" y="750"/>
      <point x="622" y="750" type="curve" smooth="yes"/>
      <point x="468" y="747"/>
      <point x="373" y="629"/>
      <point x="367" y="465" type="curve" smooth="yes"/>
      <point x="367" y="363"/>
      <point x="424" y="290"/>
    </contour>
    <contour>
      <point x="0" y="390" type="curve" smooth="yes"/>
      <point x="0" y="789"/>
      <point x="255" y="1066"/>
      <point x="614" y="1070" type="curve" smooth="yes"/>
      <point x="764" y="1070"/>
      <point x="849" y="959"/>
      <point x="852" y="920" type="curve"/>
      <point x="951" y="1480" type="line"/>
      <point x="1311" y="1480" type="line"/>
      <point x="1080" y="168" type="line" smooth="yes"/>
      <point x="1072" y="125"/>
      <point x="1070" y="89"/>
      <point x="1070" y="61" type="curve" smooth="yes"/>
      <point x="1070" y="23"/>
      <point x="1074" y="0"/>
      <point x="1074" y="0" type="curve"/>
      <point x="726" y="0" type="line"/>
      <point x="726" y="0"/>
      <point x="719" y="30"/>
      <point x="719" y="70" type="curve" smooth="yes"/>
      <point x="719" y="86"/>
      <point x="720" y="103"/>
      <point x="723" y="120" type="curve"/>
      <point x="716" y="80"/>
      <point x="570" y="-30"/>
      <point x="420" y="-30" type="curve" smooth="yes"/>
      <point x="145" y="-30"/>
      <point x="0" y="140"/>
    </contour>
    <contour>
      <point x="1715" y="1120" type="line"/>
      <point x="1367" y="1120" type="line"/>
      <point x="1495" y="1480" type="line"/>
      <point x="1875" y="1480" type="line"/>
    </contour>
  </outline>
</glyph>
<glyph name="Hbar" format="2">
  <advance width="1678"/>
  <unicode hex="0126"/>
  <outline>
    <contour>
      <point x="1725" y="1004" type="line"/>
      <point x="47" y="1004" type="line"/>
      <point x="89" y="1244" type="line"/>
      <point x="1767" y="1244" type="line"/>
    </contour>
    <contour>
      <point x="299" y="1480" type="line"/>
      <point x="679" y="1480" type="line"/>
      <point x="578" y="908" type="line"/>
      <point x="1160" y="908" type="line"/>
      <point x="1261" y="1480" type="line"/>
      <point x="1641" y="1480" type="line"/>
      <point x="1380" y="0" type="line"/>
      <point x="1000" y="0" type="line"/>
      <point x="1101" y="572" type="line"/>
      <point x="519" y="572" type="line"/>
      <point x="418" y="0" type="line"/>
      <point x="36" y="-10" type="line"/>
    </contour>
  </outline>
</glyph>
<glyph name="Lcaron" format="2">
  <advance width="1254"/>
  <unicode hex="013D"/>
  <outline>
    <contour>
      <point x="985" y="1120" type="line"/>
      <point x="637" y="1120" type="line"/>
      <point x="765" y="1480" type="line"/>
      <point x="1145" y="1480" type="line"/>
    </contour>
    <contour>
      <point x="581" y="1480" type="line"/>
      <point x="379" y="336" type="line"/>
      <point x="1113" y="336" type="line"/>
      <point x="1054" y="0" type="line"/>
      <point x="-60" y="0" type="line"/>
      <point x="201" y="1480" type="line"/>
    </contour>
  </outline>
</glyph>
<glyph name="tbar" format="2">
  <advance width="1058"/>
  <unicode hex="0167"/>
  <outline>
    <contour>
      <point x="-33" y="410" type="line"/>
      <point x="10" y="650" type="line"/>
      <point x="927" y="650" type="line"/>
      <point x="884" y="410" type="line"/>
    </contour>
    <contour>
      <point x="148" y="1028" type="line" smooth="yes"/>
      <point x="268" y="1028"/>
      <point x="366" y="1106"/>
      <point x="387" y="1226" type="curve" smooth="yes"/>
      <point x="404" y="1320" type="line"/>
      <point x="740" y="1320" type="line"/>
      <point x="690" y="1040" type="line"/>
      <point x="995" y="1040" type="line"/>
      <point x="939" y="720" type="line"/>
      <point x="634" y="720" type="line"/>
      <point x="585" y="440" type="line" smooth="yes"/>
      <point x="582" y="424"/>
      <point x="581" y="409"/>
      <point x="581" y="396" type="curve" smooth="yes"/>
      <point x="581" y="325"/>
      <point x="620" y="290"/>
      <point x="696" y="290" type="curve" smooth="yes"/>
      <point x="756" y="290"/>
      <point x="835" y="313"/>
      <point x="873" y="345" type="curve"/>
      <point x="907" y="22" type="line"/>
      <point x="847" y="-2"/>
      <point x="757" y="-30"/>
      <point x="636" y="-30" type="curve" smooth="yes"/>
      <point x="332" y="-30"/>
      <point x="213" y="105"/>
      <point x="213" y="316" type="curve" smooth="yes"/>
      <point x="213" y="355"/>
      <point x="217" y="396"/>
      <point x="225" y="440" type="curve" smooth="yes"/>
      <point x="274" y="720" type="line"/>
      <point x="22" y="720" type="line"/>
      <point x="76" y="1028" type="line"/>
    </contour>
  </outline>
</glyph>
<glyph name="longs" format="2">
  <advance width="851"/>
  <unicode hex="017F"/>
  <anchor x="569" y="1380" name="top_center"/>
  <anchor x="120" y="0" name="bottom_center"/>
  <outline>
    <contour>
      <point x="300" y="0" type="line"/>
      <point x="485" y="1050" type="line" smooth="yes"/>
      <point x="503" y="1150"/>
      <point x="558" y="1190"/>
      <point x="648" y="1190" type="curve" smooth="yes"/>
      <point x="708" y="1190"/>
      <point x="779" y="1167"/>
      <point x="805" y="1135" type="curve"/>
      <point x="953" y="1458" type="line"/>
      <point x="901" y="1482"/>
      <point x="821" y="1510"/>
      <point x="700" y="1510" type="curve" smooth="yes"/>
      <point x="340" y="1510"/>
      <point x="172" y="1320"/>
      <point x="123" y="1040" type="curve" smooth="yes"/>
      <point x="-60" y="0" type="line"/>
    </contour>
  </outline>
</glyph>
<glyph name="uni0185" format="2">
  <advance width="1456"/>
  <unicode hex="0185"/>
  <outline>
    <contour>
      <point x="838" y="750" type="curve" smooth="yes"/>
      <point x="684" y="747"/>
      <point x="591" y="617"/>
      <point x="591" y="454" type="curve" smooth="yes"/>
      <point x="591" y="355"/>
      <point x="646" y="290"/>
      <point x="757" y="290" type="curve" smooth="yes"/>
      <point x="911" y="293"/>
      <point x="1007" y="411"/>
      <point x="1013" y="575" type="curve" smooth="yes"/>
      <point x="1013" y="677"/>
      <point x="955" y="750"/>
    </contour>
    <contour>
      <point x="322" y="1000" type="line"/>
      <point x="25" y="1165" type="line"/>
      <point x="491" y="1480" type="line"/>
      <point x="767" y="1480" type="line"/>
      <point x="668" y="920" type="line"/>
      <point x="685" y="959"/>
      <point x="810" y="1070"/>
      <point x="960" y="1070" type="curve" smooth="yes"/>
      <point x="1235" y="1070"/>
      <point x="1380" y="900"/>
      <point x="1380" y="650" type="curve" smooth="yes"/>
      <point x="1380" y="251"/>
      <point x="1125" y="-26"/>
      <point x="766" y="-30" type="curve" smooth="yes"/>
      <point x="616" y="-30"/>
      <point x="515" y="80"/>
      <point x="515" y="120" type="curve"/>
      <point x="494" y="0" type="line"/>
      <point x="146" y="0" type="line"/>
    </contour>
  </outline>
</glyph>
<glyph name="uni0188" format="2">
  <advance width="1201"/>
  <unicode hex="0188"/>
  <outline>
    <contour>
      <point x="1252" y="1228" type="curve" smooth="yes"/>
      <point x="1264" y="1228"/>
      <point x="1275" y="1228"/>
      <point x="1287" y="1227" type="curve"/>
      <point x="1230" y="901" type="line"/>
      <point x="1220" y="906"/>
      <point x="1208" y="908"/>
      <point x="1195" y="908" type="curve" smooth="yes"/>
      <point x="1145" y="908"/>
      <point x="1104" y="874"/>
      <point x="1095" y="824" type="curve" smooth="yes"/>
      <point x="1093" y="811"/>
      <point x="1092" y="799"/>
      <point x="1096" y="788" type="curve"/>
      <point x="742" y="788" type="line"/>
      <point x="743" y="800"/>
      <point x="744" y="812"/>
      <point x="746" y="824" type="curve" smooth="yes"/>
      <point x="790" y="1074"/>
      <point x="1002" y="1228"/>
    </contour>
    <contour>
      <point x="602" y="750" type="curve" smooth="yes"/>
      <point x="372" y="750"/>
      <point x="365" y="480"/>
      <point x="365" y="448" type="curve" smooth="yes"/>
      <point x="365" y="352"/>
      <point x="410" y="290"/>
      <point x="521" y="290" type="curve" smooth="yes"/>
      <point x="625" y="290"/>
      <point x="690" y="344"/>
      <point x="726" y="430" type="curve"/>
      <point x="1001" y="252" type="line"/>
      <point x="882" y="79"/>
      <point x="686" y="-30"/>
      <point x="465" y="-30" type="curve" smooth="yes"/>
      <point x="183" y="-30"/>
      <point x="2" y="149"/>
      <point x="2" y="411" type="curve" smooth="yes"/>
      <point x="2" y="751"/>
      <point x="277" y="1070"/>
      <point x="659" y="1070" type="curve" smooth="yes"/>
      <point x="880" y="1070"/>
      <point x="1039" y="961"/>
      <point x="1096" y="788" type="curve"/>
      <point x="758" y="610" type="line"/>
      <point x="752" y="696"/>
      <point x="706" y="750"/>
    </contour>
  </outline>
</glyph>
<glyph name="uni018F" format="2">
  <advance width="1535"/>
  <unicode hex="018F"/>
  <anchor x="827" y="0" name="bottom_right"/>
  <anchor x="591" y="-20" name="bottom_cedilla"/>
  <anchor x="595" y="0" name="bottom_center"/>
  <anchor x="838" y="1380" name="top_center"/>
  <outline>
    <contour>
      <point x="801" y="656" type="line" smooth="yes"/>
      <point x="452" y="656"/>
      <point x="421" y="500"/>
      <point x="421" y="445" type="curve" smooth="yes"/>
      <point x="421" y="373"/>
      <point x="479" y="306"/>
      <point x="649" y="306" type="curve" smooth="yes"/>
      <point x="981" y="306"/>
      <point x="1115" y="622"/>
      <point x="1115" y="851" type="curve" smooth="yes"/>
      <point x="1115" y="1043"/>
      <point x="1013" y="1174"/>
      <point x="802" y="1174" type="curve" smooth="yes"/>
      <point x="621" y="1174"/>
      <point x="486" y="1078"/>
      <point x="409" y="930" type="curve"/>
      <point x="117" y="1120" type="line"/>
      <point x="279" y="1360"/>
      <point x="546" y="1510"/>
      <point x="861" y="1510" type="curve" smooth="yes"/>
      <point x="1263" y="1510"/>
      <point x="1500" y="1266"/>
      <point x="1500" y="903" type="curve" smooth="yes"/>
      <point x="1500" y="441"/>
      <point x="1156" y="-30"/>
      <point x="590" y="-30" type="curve" smooth="yes"/>
      <point x="188" y="-30"/>
      <point x="34" y="138"/>
      <point x="34" y="367" type="curve" smooth="yes"/>
      <point x="34" y="751"/>
      <point x="427" y="992"/>
      <point x="860" y="992" type="curve" smooth="yes"/>
      <point x="1356" y="992" type="line"/>
      <point x="1297" y="656" type="line"/>
    </contour>
  </outline>
</glyph>
<glyph name="uni0190" format="2">
  <advance width="1326"/>
  <unicode hex="0190"/>
  <anchor x="775" y="0" name="bottom_right"/>
  <anchor x="530" y="-20" name="bottom_cedilla"/>
  <anchor x="534" y="0" name="bottom_center"/>
  <anchor x="777" y="1380" name="top_center"/>
  <outline>
    <contour>
      <point x="378" y="433" type="curve" smooth="yes"/>
      <point x="378" y="470"/>
      <point x="394" y="616"/>
      <point x="643" y="616" type="curve" smooth="yes"/>
      <point x="757" y="616" type="line"/>
      <point x="813" y="936" type="line"/>
      <point x="699" y="936" type="line" smooth="yes"/>
      <point x="620" y="936"/>
      <point x="538" y="966"/>
      <point x="538" y="1034" type="curve" smooth="yes"/>
      <point x="538" y="1067"/>
      <point x="552" y="1174"/>
      <point x="741" y="1174" type="curve" smooth="yes"/>
      <point x="853" y="1174"/>
      <point x="909" y="1138"/>
      <point x="909" y="1073" type="curve" smooth="yes"/>
      <point x="909" y="1066"/>
      <point x="908" y="1058"/>
      <point x="907" y="1050" type="curve"/>
      <point x="1296" y="1146" type="line"/>
      <point x="1296" y="1147"/>
      <point x="1296" y="1149"/>
      <point x="1296" y="1150" type="curve" smooth="yes"/>
      <point x="1296" y="1369"/>
      <point x="1086" y="1510"/>
      <point x="800" y="1510" type="curve" smooth="yes"/>
      <point x="365" y="1510"/>
      <point x="154" y="1230"/>
      <point x="154" y="987" type="curve" smooth="yes"/>
      <point x="154" y="819"/>
      <point x="278" y="781"/>
      <point x="278" y="781" type="curve"/>
      <point x="251" y="771"/>
      <point x="-9" y="667"/>
      <point x="-9" y="353" type="curve" smooth="yes"/>
      <point x="-9" y="90"/>
      <point x="207" y="-30"/>
      <point x="529" y="-30" type="curve" smooth="yes"/>
      <point x="824" y="-30"/>
      <point x="1119" y="91"/>
      <point x="1210" y="361" type="curve"/>
      <point x="854" y="461" type="line"/>
      <point x="836" y="361"/>
      <point x="738" y="306"/>
      <point x="588" y="306" type="curve" smooth="yes"/>
      <point x="453" y="306"/>
      <point x="378" y="351"/>
    </contour>
  </outline>
</glyph>
<glyph name="florin" format="2">
  <advance width="1058"/>
  <unicode hex="0192"/>
  <outline>
    <contour>
      <point x="12" y="-77" type="line"/>
      <point x="22" y="-82"/>
      <point x="34" y="-84"/>
      <point x="47" y="-84" type="curve" smooth="yes"/>
      <point x="97" y="-84"/>
      <point x="138" y="-50"/>
      <point x="147" y="0" type="curve"/>
      <point x="507" y="0" type="line"/>
      <point x="463" y="-250"/>
      <point x="241" y="-404"/>
      <point x="-9" y="-404" type="curve" smooth="yes"/>
      <point x="-21" y="-404"/>
      <point x="-33" y="-404"/>
      <point x="-45" y="-403" type="curve"/>
    </contour>
    <contour>
      <point x="1012" y="1135" type="line"/>
      <point x="986" y="1167"/>
      <point x="915" y="1190"/>
      <point x="855" y="1190" type="curve" smooth="yes"/>
      <point x="765" y="1190"/>
      <point x="710" y="1150"/>
      <point x="692" y="1050" type="curve"/>
      <point x="690" y="1040" type="line"/>
      <point x="995" y="1040" type="line"/>
      <point x="939" y="720" type="line"/>
      <point x="634" y="720" type="line"/>
      <point x="507" y="0" type="line"/>
      <point x="147" y="0" type="line"/>
      <point x="274" y="720" type="line"/>
      <point x="22" y="720" type="line"/>
      <point x="78" y="1040" type="line"/>
      <point x="330" y="1040" type="line"/>
      <point x="332" y="1050" type="line"/>
      <point x="381" y="1330"/>
      <point x="547" y="1510"/>
      <point x="907" y="1510" type="curve" smooth="yes"/>
      <point x="1028" y="1510"/>
      <point x="1108" y="1482"/>
      <point x="1160" y="1458" type="curve"/>
    </contour>
  </outline>
</glyph>
<glyph name="uni0195" format="2">
  <advance width="1864"/>
  <unicode hex="0195"/>
  <outline>
    <contour>
      <point x="1791" y="716" type="curve" smooth="yes"/>
      <point x="1791" y="146"/>
      <point x="1533" y="-31"/>
      <point x="1153" y="-31" type="curve" smooth="yes"/>
      <point x="873" y="-31"/>
      <point x="704" y="106"/>
      <point x="704" y="355" type="curve" smooth="yes"/>
      <point x="704" y="390"/>
      <point x="707" y="427"/>
      <point x="714" y="467" type="curve" smooth="yes"/>
      <point x="733" y="572"/>
      <point x="733" y="572"/>
      <point x="733" y="572" type="curve" smooth="yes"/>
      <point x="737" y="593"/>
      <point x="739" y="613"/>
      <point x="739" y="631" type="curve" smooth="yes"/>
      <point x="739" y="706"/>
      <point x="703" y="750"/>
      <point x="598" y="750" type="curve" smooth="yes"/>
      <point x="468" y="750"/>
      <point x="420" y="682"/>
      <point x="401" y="572" type="curve" smooth="yes"/>
      <point x="300" y="0" type="line"/>
      <point x="-60" y="0" type="line"/>
      <point x="201" y="1480" type="line"/>
      <point x="549" y="1480" type="line"/>
      <point x="450" y="920" type="line"/>
      <point x="496" y="981"/>
      <point x="601" y="1070"/>
      <point x="751" y="1070" type="curve" smooth="yes"/>
      <point x="975" y="1070"/>
      <point x="1106" y="942"/>
      <point x="1106" y="707" type="curve" smooth="yes"/>
      <point x="1106" y="665"/>
      <point x="1102" y="620"/>
      <point x="1093" y="572" type="curve" smooth="yes"/>
      <point x="1074" y="467"/>
      <point x="1074" y="467"/>
      <point x="1074" y="467" type="curve" smooth="yes"/>
      <point x="1070" y="446"/>
      <point x="1068" y="426"/>
      <point x="1068" y="408" type="curve" smooth="yes"/>
      <point x="1068" y="333"/>
      <point x="1104" y="289"/>
      <point x="1209" y="289" type="curve" smooth="yes"/>
      <point x="1359" y="289"/>
      <point x="1428" y="397"/>
      <point x="1428" y="677" type="curve" smooth="yes"/>
      <point x="1428" y="792"/>
      <point x="1400" y="878"/>
      <point x="1334" y="945" type="curve"/>
      <point x="1663" y="1109" type="line"/>
      <point x="1737" y="1015"/>
      <point x="1791" y="904"/>
    </contour>
  </outline>
</glyph>
<glyph name="uni0196" format="2">
  <advance width="851"/>
  <unicode hex="0196"/>
  <anchor x="363" y="1380" name="top_center"/>
  <anchor x="434" y="0" name="bottom_center"/>
  <outline>
    <contour>
      <point x="376" y="430" type="line"/>
      <point x="373" y="415"/>
      <point x="372" y="401"/>
      <point x="372" y="388" type="curve" smooth="yes"/>
      <point x="372" y="319"/>
      <point x="413" y="290"/>
      <point x="489" y="290" type="curve" smooth="yes"/>
      <point x="549" y="290"/>
      <point x="628" y="313"/>
      <point x="666" y="345" type="curve"/>
      <point x="700" y="22" type="line"/>
      <point x="640" y="-2"/>
      <point x="550" y="-30"/>
      <point x="429" y="-30" type="curve" smooth="yes"/>
      <point x="125" y="-30"/>
      <point x="6" y="105"/>
      <point x="6" y="316" type="curve" smooth="yes"/>
      <point x="6" y="355"/>
      <point x="10" y="396"/>
      <point x="18" y="440" type="curve"/>
      <point x="201" y="1480" type="line"/>
      <point x="561" y="1480" type="line"/>
    </contour>
  </outline>
</glyph>
<glyph name="uni0198" format="2">
  <advance width="1493"/>
  <unicode hex="0198"/>
  <outline>
    <contour>
      <point x="464" y="801" type="line"/>
      <point x="825" y="925" type="line"/>
      <point x="1328" y="0" type="line"/>
      <point x="888" y="0" type="line"/>
    </contour>
    <contour>
      <point x="135" y="1106" type="line" smooth="yes"/>
      <point x="179" y="1356"/>
      <point x="421" y="1510"/>
      <point x="671" y="1510" type="curve" smooth="yes"/>
      <point x="683" y="1510"/>
      <point x="695" y="1510"/>
      <point x="707" y="1509" type="curve"/>
      <point x="650" y="1183" type="line"/>
      <point x="640" y="1188"/>
      <point x="628" y="1190"/>
      <point x="615" y="1190" type="curve" smooth="yes"/>
      <point x="565" y="1190"/>
      <point x="524" y="1156"/>
      <point x="515" y="1106" type="curve" smooth="yes"/>
      <point x="486" y="940" type="line"/>
      <point x="1109" y="1480" type="line"/>
      <point x="1181" y="1480"/>
      <point x="1517" y="1480"/>
      <point x="1589" y="1480" type="curve"/>
      <point x="399" y="450" type="line"/>
      <point x="320" y="0" type="line"/>
      <point x="-60" y="0" type="line"/>
    </contour>
  </outline>
</glyph>
<glyph name="uni0199" format="2">
  <advance width="1193"/>
  <unicode hex="0199"/>
  <outline>
    <contour>
      <point x="268" y="643" type="line"/>
      <point x="668" y="660" type="line"/>
      <point x="1028" y="0" type="line"/>
      <point x="608" y="0" type="line"/>
    </contour>
    <contour>
      <point x="135" y="1106" type="line" smooth="yes"/>
      <point x="179" y="1356"/>
      <point x="401" y="1510"/>
      <point x="651" y="1510" type="curve" smooth="yes"/>
      <point x="663" y="1510"/>
      <point x="675" y="1510"/>
      <point x="687" y="1509" type="curve"/>
      <point x="630" y="1183" type="line"/>
      <point x="620" y="1188"/>
      <point x="608" y="1190"/>
      <point x="595" y="1190" type="curve" smooth="yes"/>
      <point x="545" y="1190"/>
      <point x="504" y="1156"/>
      <point x="495" y="1106" type="curve" smooth="yes"/>
      <point x="442" y="808" type="line"/>
      <point x="715" y="1040" type="line"/>
      <point x="787" y="1040"/>
      <point x="1107" y="1040"/>
      <point x="1179" y="1040" type="curve"/>
      <point x="361" y="344" type="line"/>
      <point x="300" y="0" type="line"/>
      <point x="-60" y="0" type="line"/>
    </contour>
  </outline>
</glyph>
<glyph name="uni019B" format="2">
  <advance width="1375"/>
  <unicode hex="019B"/>
  <outline>
    <contour>
      <point x="786" y="1174" type="line"/>
      <point x="950" y="1247" type="line"/>
      <point x="904" y="1382" type="line"/>
      <point x="720" y="1302" type="line"/>
      <point x="279" y="1107" type="line"/>
      <point x="324" y="969" type="line"/>
    </contour>
    <contour>
      <point x="811" y="1198" type="line"/>
      <point x="769" y="1424"/>
      <point x="675" y="1510"/>
      <point x="396" y="1510" type="curve" smooth="yes"/>
      <point x="275" y="1510"/>
      <point x="241" y="1489"/>
      <point x="181" y="1465" type="curve"/>
      <point x="221" y="1145" type="line"/>
      <point x="259" y="1177"/>
      <point x="280" y="1190"/>
      <point x="340" y="1190" type="curve" smooth="yes"/>
      <point x="400" y="1190"/>
      <point x="446" y="1147"/>
      <point x="450" y="1084" type="curve"/>
      <point x="454" y="1040" type="line"/>
      <point x="-95" y="0" type="line"/>
      <point x="289" y="0" type="line"/>
      <point x="558" y="526" type="line"/>
      <point x="593" y="282" type="line"/>
      <point x="626" y="56"/>
      <point x="719" y="-30"/>
      <point x="998" y="-30" type="curve" smooth="yes"/>
      <point x="1119" y="-30"/>
      <point x="1153" y="-9"/>
      <point x="1213" y="15" type="curve"/>
      <point x="1173" y="335" type="line"/>
      <point x="1135" y="303"/>
      <point x="1114" y="290"/>
      <point x="1054" y="290" type="curve" smooth="yes"/>
      <point x="994" y="290"/>
      <point x="948" y="333"/>
      <point x="944" y="396" type="curve"/>
    </contour>
  </outline>
</glyph>
<glyph name="uni019C" format="2">
  <advance width="1644"/>
  <unicode hex="019C"/>
  <anchor x="935" y="1380" name="top_center"/>
  <anchor x="692" y="0" name="bottom_center"/>
  <outline>
    <contour>
      <point x="1475" y="178" type="line"/>
      <point x="1467" y="132"/>
      <point x="1465" y="92"/>
      <point x="1465" y="61" type="curve" smooth="yes"/>
      <point x="1465" y="23"/>
      <point x="1468" y="0"/>
      <point x="1468" y="0" type="curve"/>
      <point x="1120" y="0" type="line"/>
      <point x="1120" y="0"/>
      <point x="1113" y="31"/>
      <point x="1113" y="71" type="curve" smooth="yes"/>
      <point x="1113" y="87"/>
      <point x="1114" y="103"/>
      <point x="1117" y="120" type="curve"/>
      <point x="1117" y="120"/>
      <point x="1027" y="-30"/>
      <point x="877" y="-30" type="curve" smooth="yes"/>
      <point x="667" y="-30"/>
      <point x="577" y="82"/>
      <point x="577" y="289" type="curve" smooth="yes"/>
      <point x="577" y="342"/>
      <point x="583" y="402"/>
      <point x="595" y="468" type="curve"/>
      <point x="769" y="1460" type="line"/>
      <point x="1129" y="1460" type="line"/>
      <point x="955" y="468" type="line" smooth="yes"/>
      <point x="949" y="431"/>
      <point x="944" y="399"/>
      <point x="944" y="372" type="curve" smooth="yes"/>
      <point x="944" y="320"/>
      <point x="963" y="290"/>
      <point x="1029" y="290" type="curve" smooth="yes"/>
      <point x="1129" y="290"/>
      <point x="1148" y="358"/>
      <point x="1167" y="468" type="curve" smooth="yes"/>
      <point x="1341" y="1460" type="line"/>
      <point x="1701" y="1460" type="line"/>
    </contour>
    <contour>
      <point x="763" y="468" type="line"/>
      <point x="707" y="148"/>
      <point x="569" y="-30"/>
      <point x="305" y="-30" type="curve" smooth="yes"/>
      <point x="95" y="-30"/>
      <point x="5" y="82"/>
      <point x="5" y="289" type="curve" smooth="yes"/>
      <point x="5" y="342"/>
      <point x="11" y="402"/>
      <point x="23" y="468" type="curve"/>
      <point x="197" y="1460" type="line"/>
      <point x="557" y="1460" type="line"/>
      <point x="383" y="468" type="line" smooth="yes"/>
      <point x="377" y="431"/>
      <point x="372" y="399"/>
      <point x="372" y="372" type="curve" smooth="yes"/>
      <point x="372" y="320"/>
      <point x="391" y="290"/>
      <point x="457" y="290" type="curve" smooth="yes"/>
      <point x="557" y="290"/>
      <point x="576" y="358"/>
      <point x="595" y="468" type="curve"/>
    </contour>
  </outline>
</glyph>
<glyph name="uni01A3" format="2">
  <advance width="1677"/>
  <unicode hex="01A3"/>
  <outline>
    <contour>
      <point x="1413" y="780" type="curve"/>
      <point x="1300" y="1040" type="line"/>
      <point x="1225" y="988"/>
      <point x="1070" y="898"/>
      <point x="878" y="898" type="curve"/>
      <point x="823" y="582" type="line"/>
      <point x="1129" y="582"/>
      <point x="1317" y="688"/>
    </contour>
    <contour>
      <point x="1039" y="-440" type="line"/>
      <point x="1399" y="-440" type="line"/>
      <point x="1660" y="1040" type="line"/>
      <point x="1300" y="1040" type="line"/>
    </contour>
    <contour>
      <point x="641" y="252" type="line"/>
      <point x="981" y="252" type="line"/>
      <point x="1076" y="788" type="line"/>
      <point x="736" y="788" type="line"/>
    </contour>
    <contour>
      <point x="659" y="1070" type="curve" smooth="yes"/>
      <point x="277" y="1070"/>
      <point x="2" y="751"/>
      <point x="2" y="411" type="curve" smooth="yes"/>
      <point x="2" y="149"/>
      <point x="183" y="-30"/>
      <point x="465" y="-30" type="curve" smooth="yes"/>
      <point x="686" y="-30"/>
      <point x="862" y="79"/>
      <point x="981" y="252" type="curve"/>
      <point x="706" y="430" type="line"/>
      <point x="670" y="344"/>
      <point x="625" y="290"/>
      <point x="521" y="290" type="curve" smooth="yes"/>
      <point x="410" y="290"/>
      <point x="365" y="352"/>
      <point x="365" y="448" type="curve" smooth="yes"/>
      <point x="365" y="480"/>
      <point x="372" y="750"/>
      <point x="602" y="750" type="curve" smooth="yes"/>
      <point x="706" y="750"/>
      <point x="732" y="696"/>
      <point x="738" y="610" type="curve"/>
      <point x="1076" y="788" type="line"/>
      <point x="1019" y="961"/>
      <point x="880" y="1070"/>
    </contour>
  </outline>
</glyph>
<glyph name="uni01A5" format="2">
  <advance width="1250"/>
  <unicode hex="01A5"/>
  <outline>
    <contour>
      <point x="762" y="750" type="curve" smooth="yes"/>
      <point x="589" y="750"/>
      <point x="506" y="592"/>
      <point x="506" y="464" type="curve" smooth="yes"/>
      <point x="506" y="362"/>
      <point x="564" y="290"/>
      <point x="681" y="290" type="curve" smooth="yes"/>
      <point x="855" y="290"/>
      <point x="937" y="448"/>
      <point x="937" y="575" type="curve" smooth="yes"/>
      <point x="937" y="677"/>
      <point x="879" y="750"/>
    </contour>
    <contour>
      <point x="1304" y="650" type="curve" smooth="yes"/>
      <point x="1304" y="338"/>
      <point x="1101" y="-30"/>
      <point x="690" y="-30" type="curve" smooth="yes"/>
      <point x="540" y="-30"/>
      <point x="454" y="81"/>
      <point x="451" y="120" type="curve"/>
      <point x="352" y="-440" type="line"/>
      <point x="-8" y="-440" type="line"/>
      <point x="265" y="1106" type="line" smooth="yes"/>
      <point x="309" y="1356"/>
      <point x="531" y="1510"/>
      <point x="781" y="1510" type="curve" smooth="yes"/>
      <point x="793" y="1510"/>
      <point x="805" y="1510"/>
      <point x="817" y="1509" type="curve"/>
      <point x="760" y="1183" type="line"/>
      <point x="750" y="1188"/>
      <point x="738" y="1190"/>
      <point x="725" y="1190" type="curve" smooth="yes"/>
      <point x="675" y="1190"/>
      <point x="634" y="1156"/>
      <point x="625" y="1106" type="curve" smooth="yes"/>
      <point x="592" y="920" type="line"/>
      <point x="609" y="959"/>
      <point x="734" y="1070"/>
      <point x="884" y="1070" type="curve" smooth="yes"/>
      <point x="1159" y="1070"/>
      <point x="1304" y="900"/>
    </contour>
  </outline>
</glyph>
<glyph name="uni01A8" format="2">
  <advance width="1066"/>
  <unicode hex="01A8"/>
  <anchor x="590" y="1040" name="top_center"/>
  <anchor x="407" y="0" name="bottom_center"/>
  <anchor x="186" y="0" name="bottom_right"/>
  <outline>
    <contour>
      <point x="596" y="1070" type="curve" smooth="yes"/>
      <point x="316" y="1070"/>
      <point x="152" y="931"/>
      <point x="78" y="775" type="curve"/>
      <point x="409" y="685" type="line"/>
      <point x="413" y="705"/>
      <point x="439" y="750"/>
      <point x="539" y="750" type="curve" smooth="yes"/>
      <point x="603" y="750"/>
      <point x="623" y="737"/>
      <point x="623" y="720" type="curve" smooth="yes"/>
      <point x="623" y="718"/>
      <point x="622" y="717"/>
      <point x="622" y="715" type="curve" smooth="yes"/>
      <point x="618" y="695"/>
      <point x="585" y="675"/>
      <point x="524" y="663" type="curve" smooth="yes"/>
      <point x="220" y="601"/>
      <point x="19" y="566"/>
      <point x="-23" y="326" type="curve" smooth="yes"/>
      <point x="-27" y="304"/>
      <point x="-29" y="282"/>
      <point x="-29" y="262" type="curve" smooth="yes"/>
      <point x="-29" y="65"/>
      <point x="152" y="-30"/>
      <point x="402" y="-30" type="curve" smooth="yes"/>
      <point x="641" y="-30"/>
      <point x="853" y="85"/>
      <point x="933" y="265" type="curve"/>
      <point x="597" y="356" type="line"/>
      <point x="592" y="326"/>
      <point x="548" y="290"/>
      <point x="458" y="290" type="curve" smooth="yes"/>
      <point x="373" y="290"/>
      <point x="337" y="295"/>
      <point x="337" y="321" type="curve" smooth="yes"/>
      <point x="337" y="323"/>
      <point x="337" y="324"/>
      <point x="337" y="326" type="curve" smooth="yes"/>
      <point x="342" y="356"/>
      <point x="414" y="371"/>
      <point x="475" y="383" type="curve" smooth="yes"/>
      <point x="765" y="442"/>
      <point x="947" y="515"/>
      <point x="982" y="715" type="curve" smooth="yes"/>
      <point x="986" y="735"/>
      <point x="987" y="755"/>
      <point x="987" y="774" type="curve" smooth="yes"/>
      <point x="987" y="945"/>
      <point x="848" y="1070"/>
    </contour>
  </outline>
</glyph>
<glyph name="uni01AB" format="2">
  <advance width="1058"/>
  <unicode hex="01AB"/>
  <outline>
    <contour>
      <point x="817" y="0" type="line"/>
      <point x="773" y="-250"/>
      <point x="551" y="-404"/>
      <point x="301" y="-404" type="curve" smooth="yes"/>
      <point x="289" y="-404"/>
      <point x="277" y="-404"/>
      <point x="265" y="-403" type="curve"/>
      <point x="322" y="-77" type="line"/>
      <point x="332" y="-82"/>
      <point x="344" y="-84"/>
      <point x="357" y="-84" type="curve" smooth="yes"/>
      <point x="407" y="-84"/>
      <point x="448" y="-50"/>
      <point x="457" y="0" type="curve"/>
    </contour>
    <contour>
      <point x="148" y="1028" type="line"/>
      <point x="268" y="1028"/>
      <point x="366" y="1106"/>
      <point x="387" y="1226" type="curve"/>
      <point x="404" y="1320" type="line"/>
      <point x="740" y="1320" type="line"/>
      <point x="690" y="1040" type="line"/>
      <point x="995" y="1040" type="line"/>
      <point x="939" y="720" type="line"/>
      <point x="634" y="720" type="line"/>
      <point x="585" y="440" type="line" smooth="yes"/>
      <point x="582" y="424"/>
      <point x="581" y="409"/>
      <point x="581" y="396" type="curve" smooth="yes"/>
      <point x="581" y="325"/>
      <point x="620" y="290"/>
      <point x="696" y="290" type="curve" smooth="yes"/>
      <point x="756" y="290"/>
      <point x="835" y="313"/>
      <point x="873" y="345" type="curve"/>
      <point x="907" y="22" type="line"/>
      <point x="847" y="-2"/>
      <point x="757" y="-30"/>
      <point x="636" y="-30" type="curve" smooth="yes"/>
      <point x="332" y="-30"/>
      <point x="213" y="105"/>
      <point x="213" y="316" type="curve" smooth="yes"/>
      <point x="213" y="355"/>
      <point x="217" y="396"/>
      <point x="225" y="440" type="curve" smooth="yes"/>
      <point x="274" y="720" type="line"/>
      <point x="22" y="720" type="line"/>
      <point x="76" y="1028" type="line"/>
    </contour>
  </outline>
</glyph>
<glyph name="uni01AD" format="2">
  <advance width="1103"/>
  <unicode hex="01AD"/>
  <outline>
    <contour>
      <point x="404" y="1320" type="line" smooth="yes"/>
      <point x="448" y="1570"/>
      <point x="646" y="1724"/>
      <point x="896" y="1724" type="curve" smooth="yes"/>
      <point x="908" y="1724"/>
      <point x="920" y="1724"/>
      <point x="932" y="1723" type="curve"/>
      <point x="874" y="1397" type="line"/>
      <point x="864" y="1402"/>
      <point x="853" y="1404"/>
      <point x="840" y="1404" type="curve" smooth="yes"/>
      <point x="790" y="1404"/>
      <point x="749" y="1370"/>
      <point x="740" y="1320" type="curve" smooth="yes"/>
      <point x="690" y="1040" type="line"/>
      <point x="995" y="1040" type="line"/>
      <point x="939" y="720" type="line"/>
      <point x="634" y="720" type="line"/>
      <point x="585" y="440" type="line" smooth="yes"/>
      <point x="582" y="424"/>
      <point x="581" y="409"/>
      <point x="581" y="396" type="curve" smooth="yes"/>
      <point x="581" y="325"/>
      <point x="620" y="290"/>
      <point x="696" y="290" type="curve" smooth="yes"/>
      <point x="756" y="290"/>
      <point x="835" y="313"/>
      <point x="873" y="345" type="curve"/>
      <point x="907" y="22" type="line"/>
      <point x="847" y="-2"/>
      <point x="757" y="-30"/>
      <point x="636" y="-30" type="curve" smooth="yes"/>
      <point x="332" y="-30"/>
      <point x="213" y="105"/>
      <point x="213" y="316" type="curve" smooth="yes"/>
      <point x="213" y="355"/>
      <point x="217" y="396"/>
      <point x="225" y="440" type="curve" smooth="yes"/>
      <point x="274" y="720" type="line"/>
      <point x="22" y="720" type="line"/>
      <point x="76" y="1028" type="line"/>
      <point x="148" y="1028" type="line"/>
      <point x="268" y="1028"/>
      <point x="366" y="1106"/>
      <point x="387" y="1226" type="curve"/>
    </contour>
  </outline>
</glyph>
<glyph name="uni01AE" format="2">
  <advance width="1482"/>
  <unicode hex="01AE"/>
  <outline>
    <contour>
      <point x="908" y="-77" type="line"/>
      <point x="896" y="-82"/>
      <point x="884" y="-84"/>
      <point x="871" y="-84" type="curve" smooth="yes"/>
      <point x="827" y="-84"/>
      <point x="799" y="-58"/>
      <point x="799" y="-18" type="curve" smooth="yes"/>
      <point x="799" y="-12"/>
      <point x="800" y="-6"/>
      <point x="801" y="0" type="curve"/>
      <point x="421" y="0" type="line"/>
      <point x="417" y="-25"/>
      <point x="415" y="-48"/>
      <point x="415" y="-71" type="curve" smooth="yes"/>
      <point x="415" y="-279"/>
      <point x="590" y="-404"/>
      <point x="815" y="-404" type="curve" smooth="yes"/>
      <point x="827" y="-404"/>
      <point x="839" y="-404"/>
      <point x="851" y="-403" type="curve"/>
    </contour>
    <contour>
      <point x="623" y="1144" type="line"/>
      <point x="142" y="1144" type="line"/>
      <point x="201" y="1480" type="line"/>
      <point x="1543" y="1480" type="line"/>
      <point x="1484" y="1144" type="line"/>
      <point x="1003" y="1144" type="line"/>
      <point x="801" y="0" type="line"/>
      <point x="421" y="0" type="line"/>
    </contour>
  </outline>
</glyph>
<glyph name="uni01B1" format="2">
  <advance width="1620"/>
  <unicode hex="01B1"/>
  <anchor x="680" y="0" name="bottom_center"/>
  <anchor x="923" y="1380" name="top_center"/>
  <outline>
    <contour>
      <point x="1701" y="1480" type="line"/>
      <point x="1642" y="1144" type="line"/>
      <point x="1041" y="1144" type="line"/>
      <point x="1100" y="1480" type="line"/>
    </contour>
    <contour>
      <point x="181" y="1480" type="line"/>
      <point x="782" y="1480" type="line"/>
      <point x="723" y="1144" type="line"/>
      <point x="122" y="1144" type="line"/>
    </contour>
    <contour>
      <point x="1201" y="852" type="curve" smooth="yes"/>
      <point x="1201" y="989"/>
      <point x="1148" y="1095"/>
      <point x="1041" y="1144" type="curve"/>
      <point x="1505" y="1144" type="line"/>
      <point x="1552" y="1058"/>
      <point x="1580" y="960"/>
      <point x="1580" y="853" type="curve" smooth="yes"/>
      <point x="1580" y="497"/>
      <point x="1280" y="-30"/>
      <point x="675" y="-30" type="curve"/>
      <point x="734" y="306" type="line"/>
      <point x="1068" y="306"/>
      <point x="1201" y="625"/>
    </contour>
    <contour>
      <point x="35" y="578" type="curve" smooth="yes"/>
      <point x="35" y="776"/>
      <point x="95" y="961"/>
      <point x="259" y="1144" type="curve"/>
      <point x="723" y="1144" type="line"/>
      <point x="496" y="1054"/>
      <point x="420" y="795"/>
      <point x="420" y="630" type="curve" smooth="yes"/>
      <point x="420" y="438"/>
      <point x="523" y="306"/>
      <point x="734" y="306" type="curve"/>
      <point x="675" y="-30" type="line"/>
      <point x="272" y="-30"/>
      <point x="35" y="215"/>
    </contour>
  </outline>
</glyph>
<glyph name="uni01B2" format="2">
  <advance width="1482"/>
  <unicode hex="01B2"/>
  <anchor x="854" y="1380" name="top_center"/>
  <anchor x="611" y="0" name="bottom_center"/>
  <outline>
    <contour>
      <point x="1087" y="1050" type="curve"/>
      <point x="1008" y="600" type="line"/>
      <point x="971" y="390"/>
      <point x="815" y="306"/>
      <point x="665" y="306" type="curve" smooth="yes"/>
      <point x="533" y="306"/>
      <point x="419" y="371"/>
      <point x="419" y="530" type="curve" smooth="yes"/>
      <point x="419" y="552"/>
      <point x="422" y="575"/>
      <point x="426" y="600" type="curve"/>
      <point x="581" y="1480" type="line"/>
      <point x="201" y="1480" type="line"/>
      <point x="46" y="600" type="line"/>
      <point x="38" y="555"/>
      <point x="34" y="512"/>
      <point x="34" y="470" type="curve" smooth="yes"/>
      <point x="34" y="177"/>
      <point x="228" y="-30"/>
      <point x="606" y="-30" type="curve" smooth="yes"/>
      <point x="1038" y="-30"/>
      <point x="1325" y="240"/>
      <point x="1388" y="600" type="curve"/>
      <point x="1467" y="1050" type="line"/>
      <point x="1474" y="1089"/>
      <point x="1477" y="1126"/>
      <point x="1477" y="1161" type="curve" smooth="yes"/>
      <point x="1477" y="1377"/>
      <point x="1344" y="1510"/>
      <point x="1034" y="1510" type="curve" smooth="yes"/>
      <point x="1011" y="1510"/>
      <point x="999" y="1509"/>
      <point x="978" y="1507" type="curve"/>
      <point x="921" y="1183" type="line"/>
      <point x="943" y="1188"/>
      <point x="954" y="1190"/>
      <point x="974" y="1190" type="curve" smooth="yes"/>
      <point x="1050" y="1190"/>
      <point x="1091" y="1161"/>
      <point x="1091" y="1092" type="curve" smooth="yes"/>
      <point x="1091" y="1079"/>
      <point x="1090" y="1065"/>
    </contour>
  </outline>
</glyph>
<glyph name="uni01B3" format="2">
  <advance width="1588"/>
  <unicode hex="01B3"/>
  <outline>
    <contour>
      <point x="1495" y="1133" type="line"/>
      <point x="1490" y="1143"/>
      <point x="1481" y="1152"/>
      <point x="1471" y="1158" type="curve" smooth="yes"/>
      <point x="1458" y="1167"/>
      <point x="1443" y="1170"/>
      <point x="1428" y="1170" type="curve" smooth="yes"/>
      <point x="1400" y="1170"/>
      <point x="1373" y="1152"/>
      <point x="1351" y="1127" type="curve"/>
      <point x="1105" y="1317" type="line"/>
      <point x="1206" y="1434"/>
      <point x="1301" y="1510"/>
      <point x="1427" y="1510" type="curve" smooth="yes"/>
      <point x="1515" y="1510"/>
      <point x="1604" y="1484"/>
      <point x="1680" y="1435" type="curve" smooth="yes"/>
      <point x="1689" y="1429"/>
      <point x="1699" y="1423"/>
      <point x="1708" y="1416" type="curve"/>
    </contour>
    <contour>
      <point x="466" y="0" type="line"/>
      <point x="613" y="834" type="line"/>
      <point x="993" y="834" type="line"/>
      <point x="846" y="0" type="line"/>
    </contour>
    <contour>
      <point x="739" y="454" type="line"/>
      <point x="652" y="578" type="line"/>
      <point x="166" y="1480" type="line"/>
      <point x="594" y="1480" type="line"/>
      <point x="830" y="988" type="line"/>
      <point x="1105" y="1317" type="line"/>
      <point x="1351" y="1127" type="line"/>
    </contour>
  </outline>
</glyph>
<glyph name="uni01B5" format="2">
  <advance width="1304"/>
  <unicode hex="01B5"/>
  <outline>
    <contour>
      <point x="1068" y="620" type="line"/>
      <point x="194" y="620" type="line"/>
      <point x="202" y="666"/>
      <point x="229" y="814"/>
      <point x="237" y="860" type="curve"/>
      <point x="1111" y="860" type="line"/>
    </contour>
    <contour>
      <point x="88" y="0" type="line"/>
      <point x="-42" y="302" type="line"/>
      <point x="1217" y="1480" type="line"/>
      <point x="1346" y="1176" type="line"/>
    </contour>
    <contour>
      <point x="387" y="336" type="line"/>
      <point x="1198" y="336" type="line"/>
      <point x="1139" y="0" type="line"/>
      <point x="695" y="0"/>
      <point x="349" y="0"/>
      <point x="-95" y="0" type="curve"/>
      <point x="-42" y="302" type="line"/>
    </contour>
    <contour>
      <point x="928" y="1144" type="line"/>
      <point x="131" y="1144" type="line"/>
      <point x="190" y="1480" type="line"/>
      <point x="634" y="1480"/>
      <point x="956" y="1480"/>
      <point x="1400" y="1480" type="curve"/>
      <point x="1346" y="1176" type="line"/>
    </contour>
  </outline>
</glyph>
<glyph name="uni01BB" format="2">
  <advance width="1370"/>
  <unicode hex="01BB"/>
  <outline>
    <contour>
      <point x="720" y="1174" type="curve" smooth="yes"/>
      <point x="548" y="1174"/>
      <point x="498" y="1029"/>
      <point x="498" y="906" type="curve"/>
      <point x="126" y="990" type="line"/>
      <point x="182" y="1310"/>
      <point x="443" y="1510"/>
      <point x="779" y="1510" type="curve" smooth="yes"/>
      <point x="1080" y="1510"/>
      <point x="1264" y="1349"/>
      <point x="1264" y="1115" type="curve" smooth="yes"/>
      <point x="1264" y="1088"/>
      <point x="1262" y="1059"/>
      <point x="1257" y="1030" type="curve"/>
      <point x="877" y="1030" type="line"/>
      <point x="878" y="1038"/>
      <point x="879" y="1046"/>
      <point x="879" y="1053" type="curve" smooth="yes"/>
      <point x="879" y="1129"/>
      <point x="807" y="1174"/>
    </contour>
    <contour>
      <point x="1177" y="530" type="line"/>
      <point x="27" y="530" type="line"/>
      <point x="73" y="786" type="line"/>
      <point x="1223" y="786" type="line"/>
    </contour>
    <contour>
      <point x="-66" y="0" type="curve"/>
      <point x="-38" y="160"/>
      <point x="36" y="465"/>
      <point x="652" y="788" type="curve" smooth="yes"/>
      <point x="850" y="892"/>
      <point x="863" y="950"/>
      <point x="877" y="1030" type="curve"/>
      <point x="1257" y="1030" type="line"/>
      <point x="1206" y="739"/>
      <point x="1001" y="628"/>
      <point x="696" y="468" type="curve" smooth="yes"/>
      <point x="410" y="318"/>
      <point x="330" y="90"/>
      <point x="314" y="0" type="curve"/>
      <point x="247" y="0"/>
      <point x="1" y="0"/>
    </contour>
    <contour>
      <point x="273" y="336" type="line"/>
      <point x="1143" y="336" type="line"/>
      <point x="1084" y="0" type="line"/>
      <point x="314" y="0" type="line"/>
    </contour>
  </outline>
</glyph>
<glyph name="uni01BC" format="2">
  <advance width="1425"/>
  <unicode hex="01BC"/>
  <outline>
    <contour>
      <point x="701" y="306" type="curve" smooth="yes"/>
      <point x="880" y="306"/>
      <point x="935" y="442"/>
      <point x="935" y="526" type="curve" smooth="yes"/>
      <point x="935" y="624"/>
      <point x="855" y="676"/>
      <point x="747" y="676" type="curve" smooth="yes"/>
      <point x="693" y="676"/>
      <point x="598" y="668"/>
      <point x="546" y="615" type="curve"/>
      <point x="364" y="678" type="line"/>
      <point x="473" y="829"/>
      <point x="603" y="1012"/>
      <point x="826" y="1012" type="curve" smooth="yes"/>
      <point x="1135" y="1012"/>
      <point x="1321" y="847"/>
      <point x="1321" y="593" type="curve" smooth="yes"/>
      <point x="1321" y="281"/>
      <point x="1074" y="-30"/>
      <point x="642" y="-30" type="curve" smooth="yes"/>
      <point x="350" y="-30"/>
      <point x="119" y="89"/>
      <point x="119" y="353" type="curve" smooth="yes"/>
      <point x="119" y="356"/>
      <point x="119" y="358"/>
      <point x="119" y="361" type="curve"/>
      <point x="509" y="461" type="line"/>
      <point x="507" y="450"/>
      <point x="506" y="438"/>
      <point x="506" y="428" type="curve" smooth="yes"/>
      <point x="506" y="349"/>
      <point x="568" y="306"/>
    </contour>
    <contour>
      <point x="460" y="1412" type="line"/>
      <point x="814" y="1412" type="line"/>
      <point x="577" y="678" type="line"/>
      <point x="364" y="678" type="line"/>
      <point x="240" y="720" type="line"/>
    </contour>
    <contour>
      <point x="107" y="1144" type="line"/>
      <point x="166" y="1480" type="line"/>
      <point x="1414" y="1480" type="line"/>
      <point x="1355" y="1144" type="line"/>
    </contour>
  </outline>
</glyph>
<glyph name="uni01BD" format="2">
  <advance width="1143"/>
  <unicode hex="01BD"/>
  <outline>
    <contour>
      <point x="1009" y="410" type="curve" smooth="yes"/>
      <point x="1009" y="232"/>
      <point x="885" y="-30"/>
      <point x="445" y="-30" type="curve" smooth="yes"/>
      <point x="219" y="-30"/>
      <point x="33" y="62"/>
      <point x="33" y="287" type="curve" smooth="yes"/>
      <point x="33" y="291"/>
      <point x="33" y="295"/>
      <point x="33" y="299" type="curve"/>
      <point x="384" y="353" type="line"/>
      <point x="383" y="348"/>
      <point x="383" y="343"/>
      <point x="383" y="339" type="curve" smooth="yes"/>
      <point x="383" y="306"/>
      <point x="408" y="290"/>
      <point x="501" y="290" type="curve" smooth="yes"/>
      <point x="566" y="290"/>
      <point x="644" y="296"/>
      <point x="644" y="351" type="curve" smooth="yes"/>
      <point x="644" y="387"/>
      <point x="599" y="404"/>
      <point x="521" y="404" type="curve" smooth="yes"/>
      <point x="483" y="404"/>
      <point x="421" y="391"/>
      <point x="388" y="374" type="curve"/>
      <point x="209" y="428" type="line"/>
      <point x="260" y="557"/>
      <point x="433" y="684"/>
      <point x="610" y="684" type="curve" smooth="yes"/>
      <point x="858" y="684"/>
      <point x="1009" y="593"/>
    </contour>
    <contour>
      <point x="249" y="918" type="line"/>
      <point x="564" y="918" type="line"/>
      <point x="401" y="415" type="line"/>
      <point x="209" y="428" type="line"/>
      <point x="86" y="466" type="line"/>
    </contour>
    <contour>
      <point x="32" y="720" type="line"/>
      <point x="88" y="1040" type="line"/>
      <point x="1066" y="1040" type="line"/>
      <point x="1010" y="720" type="line"/>
    </contour>
  </outline>
</glyph>
<glyph name="uni01BE" format="2">
  <advance width="1210"/>
  <unicode hex="01BE"/>
  <outline>
    <contour>
      <point x="780" y="329" type="curve" smooth="yes"/>
      <point x="780" y="410"/>
      <point x="268" y="373"/>
      <point x="268" y="662" type="curve" smooth="yes"/>
      <point x="268" y="670"/>
      <point x="269" y="683"/>
      <point x="271" y="699" type="curve" smooth="yes"/>
      <point x="274" y="720" type="line"/>
      <point x="22" y="720" type="line"/>
      <point x="76" y="1028" type="line"/>
      <point x="148" y="1028" type="line" smooth="yes"/>
      <point x="268" y="1028"/>
      <point x="366" y="1106"/>
      <point x="387" y="1226" type="curve" smooth="yes"/>
      <point x="404" y="1320" type="line"/>
      <point x="740" y="1320" type="line"/>
      <point x="690" y="1040" type="line"/>
      <point x="995" y="1040" type="line"/>
      <point x="939" y="720" type="line"/>
      <point x="634" y="720" type="line"/>
      <point x="634" y="717" type="line" smooth="yes"/>
      <point x="634" y="716"/>
      <point x="633" y="715"/>
      <point x="633" y="714" type="curve" smooth="yes"/>
      <point x="633" y="613"/>
      <point x="1146" y="683"/>
      <point x="1146" y="389" type="curve" smooth="yes"/>
      <point x="1146" y="176"/>
      <point x="968" y="-30"/>
      <point x="591" y="-30" type="curve" smooth="yes"/>
      <point x="352" y="-30"/>
      <point x="180" y="85"/>
      <point x="164" y="265" type="curve"/>
      <point x="532" y="356" type="line"/>
      <point x="532" y="319"/>
      <point x="560" y="290"/>
      <point x="647" y="290" type="curve" smooth="yes"/>
      <point x="701" y="290"/>
      <point x="780" y="292"/>
    </contour>
  </outline>
</glyph>
<glyph name="uni01C1" format="2">
  <advance width="1040"/>
  <unicode hex="01C1"/>
  <outline>
    <contour>
      <point x="1101" y="1480" type="line"/>
      <point x="840" y="0" type="line"/>
      <point x="480" y="0" type="line"/>
      <point x="741" y="1480" type="line"/>
    </contour>
    <contour>
      <point x="561" y="1480" type="line"/>
      <point x="300" y="0" type="line"/>
      <point x="-60" y="0" type="line"/>
      <point x="201" y="1480" type="line"/>
    </contour>
  </outline>
</glyph>
<glyph name="uni01C2" format="2">
  <advance width="1068"/>
  <unicode hex="01C2"/>
  <outline>
    <contour>
      <point x="81" y="800" type="line"/>
      <point x="137" y="1120" type="line"/>
      <point x="1065" y="1120" type="line"/>
      <point x="1009" y="800" type="line"/>
    </contour>
    <contour>
      <point x="3" y="360" type="line"/>
      <point x="60" y="680" type="line"/>
      <point x="988" y="680" type="line"/>
      <point x="931" y="360" type="line"/>
    </contour>
    <contour>
      <point x="845" y="1480" type="line"/>
      <point x="584" y="0" type="line"/>
      <point x="224" y="0" type="line"/>
      <point x="485" y="1480" type="line"/>
    </contour>
  </outline>
</glyph>
<glyph name="uni021C" format="2">
  <advance width="1318"/>
  <unicode hex="021C"/>
  <outline>
    <contour>
      <point x="11" y="-470" type="line"/>
      <point x="883" y="-470"/>
      <point x="1192" y="32"/>
      <point x="1192" y="351" type="curve" smooth="yes"/>
      <point x="1192" y="480"/>
      <point x="1137" y="596"/>
      <point x="1039" y="676" type="curve"/>
      <point x="721" y="434" type="line"/>
      <point x="775" y="408"/>
      <point x="808" y="357"/>
      <point x="808" y="298" type="curve" smooth="yes"/>
      <point x="808" y="290"/>
      <point x="804" y="-134"/>
      <point x="70" y="-134" type="curve"/>
    </contour>
    <contour>
      <point x="467" y="906" type="line"/>
      <point x="457" y="1039"/>
      <point x="554" y="1174"/>
      <point x="709" y="1174" type="curve" smooth="yes"/>
      <point x="824" y="1174"/>
      <point x="897" y="1090"/>
      <point x="879" y="990" type="curve" smooth="yes"/>
      <point x="835" y="740"/>
      <point x="628" y="588"/>
      <point x="198" y="588" type="curve"/>
      <point x="138" y="252" type="line"/>
      <point x="1082" y="252"/>
      <point x="1266" y="847"/>
      <point x="1266" y="1072" type="curve" smooth="yes"/>
      <point x="1266" y="1315"/>
      <point x="1071" y="1510"/>
      <point x="768" y="1510" type="curve" smooth="yes"/>
      <point x="432" y="1510"/>
      <point x="151" y="1310"/>
      <point x="95" y="990" type="curve"/>
    </contour>
  </outline>
</glyph>
<glyph name="uni021D" format="2">
  <advance width="1114"/>
  <unicode hex="021D"/>
  <outline>
    <contour>
      <point x="27" y="-372" type="line"/>
      <point x="739" y="-372"/>
      <point x="973" y="19"/>
      <point x="973" y="244" type="curve" smooth="yes"/>
      <point x="973" y="348"/>
      <point x="916" y="440"/>
      <point x="817" y="504" type="curve"/>
      <point x="535" y="308" type="line"/>
      <point x="582" y="291"/>
      <point x="611" y="258"/>
      <point x="611" y="218" type="curve" smooth="yes"/>
      <point x="611" y="158"/>
      <point x="550" y="-52"/>
      <point x="84" y="-52" type="curve"/>
    </contour>
    <contour>
      <point x="394" y="632" type="line"/>
      <point x="389" y="672"/>
      <point x="409" y="782"/>
      <point x="539" y="782" type="curve" smooth="yes"/>
      <point x="611" y="782"/>
      <point x="645" y="745"/>
      <point x="645" y="698" type="curve" smooth="yes"/>
      <point x="645" y="639"/>
      <point x="609" y="455"/>
      <point x="173" y="455" type="curve"/>
      <point x="117" y="135" type="line"/>
      <point x="883" y="135"/>
      <point x="1012" y="605"/>
      <point x="1012" y="758" type="curve" smooth="yes"/>
      <point x="1012" y="949"/>
      <point x="836" y="1103"/>
      <point x="595" y="1103" type="curve" smooth="yes"/>
      <point x="331" y="1103"/>
      <point x="87" y="947"/>
      <point x="43" y="698" type="curve"/>
    </contour>
  </outline>
</glyph>
<glyph name="uni0220" format="2">
  <advance width="1404"/>
  <unicode hex="0220"/>
  <outline>
    <contour>
      <point x="1359" y="880" type="line"/>
      <point x="1369" y="938"/>
      <point x="1374" y="992"/>
      <point x="1374" y="1042" type="curve" smooth="yes"/>
      <point x="1374" y="1348"/>
      <point x="1190" y="1510"/>
      <point x="872" y="1510" type="curve" smooth="yes"/>
      <point x="732" y="1510"/>
      <point x="612" y="1468"/>
      <point x="527" y="1360" type="curve"/>
      <point x="548" y="1480" type="line"/>
      <point x="201" y="1480" type="line"/>
      <point x="-60" y="0" type="line"/>
      <point x="300" y="0" type="line"/>
      <point x="454" y="874" type="line" smooth="yes"/>
      <point x="491" y="1084"/>
      <point x="618" y="1174"/>
      <point x="768" y="1174" type="curve" smooth="yes"/>
      <point x="899" y="1174"/>
      <point x="985" y="1111"/>
      <point x="985" y="955" type="curve" smooth="yes"/>
      <point x="985" y="932"/>
      <point x="983" y="907"/>
      <point x="979" y="880" type="curve"/>
      <point x="746" y="-440" type="line"/>
      <point x="1126" y="-440" type="line"/>
    </contour>
  </outline>
</glyph>
<glyph name="uni0221" format="2">
  <advance width="1630"/>
  <unicode hex="0221"/>
  <outline>
    <contour>
      <point x="541" y="290" type="curve" smooth="yes"/>
      <point x="715" y="290"/>
      <point x="786" y="446"/>
      <point x="786" y="573" type="curve" smooth="yes"/>
      <point x="786" y="674"/>
      <point x="736" y="750"/>
      <point x="622" y="750" type="curve" smooth="yes"/>
      <point x="447" y="750"/>
      <point x="367" y="591"/>
      <point x="367" y="465" type="curve" smooth="yes"/>
      <point x="367" y="363"/>
      <point x="424" y="290"/>
    </contour>
    <contour>
      <point x="1560" y="376" type="curve" smooth="yes"/>
      <point x="1560" y="159"/>
      <point x="1380" y="-30"/>
      <point x="1135" y="-30" type="curve" smooth="yes"/>
      <point x="961" y="-30"/>
      <point x="828" y="70"/>
      <point x="828" y="243" type="curve" smooth="yes"/>
      <point x="828" y="264"/>
      <point x="830" y="286"/>
      <point x="834" y="309" type="curve"/>
      <point x="723" y="120" type="line"/>
      <point x="716" y="80"/>
      <point x="570" y="-30"/>
      <point x="420" y="-30" type="curve" smooth="yes"/>
      <point x="145" y="-30"/>
      <point x="0" y="139"/>
      <point x="0" y="390" type="curve" smooth="yes"/>
      <point x="0" y="704"/>
      <point x="204" y="1070"/>
      <point x="614" y="1070" type="curve" smooth="yes"/>
      <point x="764" y="1070"/>
      <point x="849" y="959"/>
      <point x="852" y="920" type="curve"/>
      <point x="951" y="1480" type="line"/>
      <point x="1311" y="1480" type="line"/>
      <point x="1104" y="309" type="line" smooth="yes"/>
      <point x="1103" y="303"/>
      <point x="1102" y="296"/>
      <point x="1102" y="290" type="curve" smooth="yes"/>
      <point x="1102" y="246"/>
      <point x="1130" y="210"/>
      <point x="1177" y="210" type="curve" smooth="yes"/>
      <point x="1241" y="210"/>
      <point x="1286" y="272"/>
      <point x="1286" y="330" type="curve" smooth="yes"/>
      <point x="1286" y="374"/>
      <point x="1259" y="408"/>
      <point x="1212" y="408" type="curve" smooth="yes"/>
      <point x="882" y="407"/>
      <point x="648" y="-207"/>
      <point x="648" y="-207" type="curve"/>
      <point x="432" y="-69" type="line"/>
      <point x="432" y="-69"/>
      <point x="729" y="648"/>
      <point x="1254" y="648" type="curve" smooth="yes"/>
      <point x="1428" y="648"/>
      <point x="1560" y="548"/>
    </contour>
  </outline>
</glyph>
<glyph name="uni0223" format="2">
  <advance width="1324"/>
  <unicode hex="0223"/>
  <outline>
    <contour>
      <point x="697" y="936" type="curve" smooth="yes"/>
      <point x="818" y="936"/>
      <point x="902" y="975"/>
      <point x="902" y="1083" type="curve" smooth="yes"/>
      <point x="902" y="1128"/>
      <point x="880" y="1167"/>
      <point x="831" y="1181" type="curve"/>
      <point x="970" y="1510" type="line"/>
      <point x="1169" y="1468"/>
      <point x="1289" y="1334"/>
      <point x="1289" y="1152" type="curve" smooth="yes"/>
      <point x="1289" y="939"/>
      <point x="1149" y="811"/>
      <point x="1065" y="781" type="curve"/>
      <point x="1065" y="781"/>
      <point x="1230" y="709"/>
      <point x="1230" y="517" type="curve" smooth="yes"/>
      <point x="1230" y="499"/>
      <point x="1224" y="-30"/>
      <point x="527" y="-30" type="curve" smooth="yes"/>
      <point x="205" y="-30"/>
      <point x="-9" y="90"/>
      <point x="-9" y="353" type="curve" smooth="yes"/>
      <point x="-9" y="666"/>
      <point x="246" y="770"/>
      <point x="275" y="781" type="curve"/>
      <point x="275" y="781"/>
      <point x="153" y="831"/>
      <point x="153" y="1001" type="curve" smooth="yes"/>
      <point x="153" y="1212"/>
      <point x="318" y="1449"/>
      <point x="626" y="1510" type="curve"/>
      <point x="649" y="1181" type="line"/>
      <point x="563" y="1158"/>
      <point x="535" y="1078"/>
      <point x="535" y="1030" type="curve" smooth="yes"/>
      <point x="535" y="967"/>
      <point x="586" y="936"/>
    </contour>
    <contour>
      <point x="586" y="306" type="curve" smooth="yes"/>
      <point x="645" y="306"/>
      <point x="848" y="319"/>
      <point x="848" y="490" type="curve" smooth="yes"/>
      <point x="848" y="572"/>
      <point x="776" y="616"/>
      <point x="641" y="616" type="curve" smooth="yes"/>
      <point x="584" y="616"/>
      <point x="378" y="604"/>
      <point x="378" y="432" type="curve" smooth="yes"/>
      <point x="378" y="350"/>
      <point x="451" y="306"/>
    </contour>
  </outline>
</glyph>
<glyph name="uni0224" format="2">
  <advance width="1374"/>
  <unicode hex="0224"/>
  <outline>
    <contour>
      <point x="659" y="-77" type="line"/>
      <point x="669" y="-82"/>
      <point x="681" y="-84"/>
      <point x="694" y="-84" type="curve" smooth="yes"/>
      <point x="744" y="-84"/>
      <point x="785" y="-50"/>
      <point x="794" y="0" type="curve"/>
      <point x="1174" y="0" type="line"/>
      <point x="1130" y="-250"/>
      <point x="888" y="-404"/>
      <point x="638" y="-404" type="curve" smooth="yes"/>
      <point x="626" y="-404"/>
      <point x="614" y="-404"/>
      <point x="602" y="-403" type="curve"/>
    </contour>
    <contour>
      <point x="123" y="0" type="line"/>
      <point x="-7" y="302" type="line"/>
      <point x="1252" y="1480" type="line"/>
      <point x="1381" y="1176" type="line"/>
    </contour>
    <contour>
      <point x="422" y="336" type="line"/>
      <point x="1233" y="336" type="line"/>
      <point x="1174" y="0" type="line"/>
      <point x="-60" y="0" type="line"/>
      <point x="-7" y="302" type="line"/>
    </contour>
    <contour>
      <point x="963" y="1144" type="line"/>
      <point x="166" y="1144" type="line"/>
      <point x="225" y="1480" type="line"/>
      <point x="1435" y="1480" type="line"/>
      <point x="1381" y="1176" type="line"/>
    </contour>
  </outline>
</glyph>
<glyph name="uni0225" format="2">
  <advance width="1032"/>
  <unicode hex="0225"/>
  <outline>
    <contour>
      <point x="333" y="-77" type="line"/>
      <point x="343" y="-82"/>
      <point x="355" y="-84"/>
      <point x="368" y="-84" type="curve" smooth="yes"/>
      <point x="418" y="-84"/>
      <point x="459" y="-50"/>
      <point x="468" y="0" type="curve"/>
      <point x="828" y="0" type="line"/>
      <point x="784" y="-250"/>
      <point x="562" y="-404"/>
      <point x="312" y="-404" type="curve" smooth="yes"/>
      <point x="300" y="-404"/>
      <point x="288" y="-404"/>
      <point x="276" y="-403" type="curve"/>
    </contour>
    <contour>
      <point x="123" y="1040" type="line"/>
      <point x="67" y="720" type="line"/>
      <point x="545" y="720" type="line"/>
      <point x="965" y="752" type="line"/>
      <point x="1015" y="1040" type="line"/>
    </contour>
    <contour>
      <point x="884" y="320" type="line"/>
      <point x="410" y="320" type="line"/>
      <point x="-9" y="288" type="line"/>
      <point x="-60" y="0" type="line"/>
      <point x="828" y="0" type="line"/>
    </contour>
    <contour>
      <point x="470" y="320" type="line"/>
      <point x="965" y="752" type="line"/>
      <point x="485" y="720" type="line"/>
      <point x="-9" y="288" type="line"/>
    </contour>
  </outline>
</glyph>
<glyph name="uni0237" format="2">
  <advance width="500"/>
  <unicode hex="0237"/>
  <anchor x="-47" y="-360" name="bottom_center"/>
  <anchor x="303" y="1040" name="top_center"/>
  <outline>
    <contour>
      <point x="286" y="-78" type="line" smooth="yes"/>
      <point x="233" y="-378"/>
      <point x="-27" y="-470"/>
      <point x="-211" y="-470" type="curve" smooth="yes"/>
      <point x="-299" y="-470"/>
      <point x="-341" y="-439"/>
      <point x="-365" y="-426" type="curve"/>
      <point x="-214" y="-134" type="line"/>
      <point x="-203" y="-143"/>
      <point x="-173" y="-150"/>
      <point x="-154" y="-150" type="curve" smooth="yes"/>
      <point x="-102" y="-150"/>
      <point x="-83" y="-128"/>
      <point x="-74" y="-78" type="curve" smooth="yes"/>
      <point x="123" y="1040" type="line"/>
      <point x="483" y="1040" type="line"/>
    </contour>
  </outline>
</glyph>
<glyph name="uni023D" format="2">
  <advance width="1394"/>
  <unicode hex="023D"/>
  <outline>
    <contour>
      <point x="839" y="620" type="line"/>
      <point x="-21" y="620" type="line"/>
      <point x="22" y="860" type="line"/>
      <point x="882" y="860" type="line"/>
    </contour>
    <contour>
      <point x="721" y="1480" type="line"/>
      <point x="519" y="336" type="line"/>
      <point x="1253" y="336" type="line"/>
      <point x="1194" y="0" type="line"/>
      <point x="80" y="0" type="line"/>
      <point x="341" y="1480" type="line"/>
    </contour>
  </outline>
</glyph>
<glyph name="uni0243" format="2">
  <advance width="1564"/>
  <unicode hex="0243"/>
  <outline>
    <contour>
      <point x="1472" y="540" type="curve" smooth="yes"/>
      <point x="1472" y="261"/>
      <point x="1231" y="0"/>
      <point x="809" y="0" type="curve" smooth="yes"/>
      <point x="78" y="0" type="line"/>
      <point x="339" y="1480" type="line"/>
      <point x="1070" y="1480" type="line" smooth="yes"/>
      <point x="1358" y="1480"/>
      <point x="1538" y="1327"/>
      <point x="1538" y="1110" type="curve" smooth="yes"/>
      <point x="1538" y="1096"/>
      <point x="1533" y="620"/>
      <point x="918" y="620" type="curve"/>
      <point x="971" y="916" type="line"/>
      <point x="1085" y="916"/>
      <point x="1152" y="978"/>
      <point x="1152" y="1049" type="curve" smooth="yes"/>
      <point x="1152" y="1109"/>
      <point x="1095" y="1144"/>
      <point x="1011" y="1144" type="curve" smooth="yes"/>
      <point x="660" y="1144" type="line"/>
      <point x="620" y="916" type="line"/>
      <point x="971" y="916" type="line"/>
      <point x="915" y="600" type="line"/>
      <point x="564" y="600" type="line"/>
      <point x="517" y="336" type="line"/>
      <point x="868" y="336" type="line" smooth="yes"/>
      <point x="1009" y="336"/>
      <point x="1089" y="404"/>
      <point x="1089" y="491" type="curve" smooth="yes"/>
      <point x="1089" y="569"/>
      <point x="1008" y="600"/>
      <point x="915" y="600" type="curve"/>
      <point x="967" y="896" type="line"/>
      <point x="1263" y="896"/>
      <point x="1472" y="777"/>
    </contour>
    <contour>
      <point x="789" y="348" type="line"/>
      <point x="-71" y="348" type="line"/>
      <point x="-28" y="588" type="line"/>
      <point x="832" y="588" type="line"/>
    </contour>
  </outline>
</glyph>
<glyph name="uni0246" format="2">
  <advance width="1254"/>
  <unicode hex="0246"/>
  <outline>
    <contour>
      <point x="1039" y="1660" type="line"/>
      <point x="1298" y="1660" type="line"/>
      <point x="216" y="-180" type="line"/>
      <point x="-43" y="-180" type="line"/>
    </contour>
    <contour>
      <point x="1100" y="908" type="line"/>
      <point x="1041" y="572" type="line"/>
      <point x="421" y="572" type="line"/>
      <point x="379" y="336" type="line"/>
      <point x="1113" y="336" type="line"/>
      <point x="1054" y="0" type="line"/>
      <point x="-60" y="0" type="line"/>
      <point x="201" y="1480" type="line"/>
      <point x="1315" y="1480" type="line"/>
      <point x="1256" y="1144" type="line"/>
      <point x="522" y="1144" type="line"/>
      <point x="480" y="908" type="line"/>
    </contour>
  </outline>
</glyph>
<glyph name="uni024A" format="2">
  <advance width="1691"/>
  <unicode hex="024A"/>
  <outline>
    <contour>
      <point x="1536" y="-143" type="curve"/>
      <point x="1478" y="-469" type="line"/>
      <point x="1466" y="-470"/>
      <point x="1454" y="-470"/>
      <point x="1442" y="-470" type="curve" smooth="yes"/>
      <point x="1217" y="-470"/>
      <point x="1042" y="-345"/>
      <point x="1042" y="-137" type="curve" smooth="yes"/>
      <point x="1042" y="-114"/>
      <point x="1044" y="-91"/>
      <point x="1048" y="-66" type="curve"/>
      <point x="1428" y="-66" type="line"/>
      <point x="1427" y="-72"/>
      <point x="1426" y="-78"/>
      <point x="1426" y="-83" type="curve" smooth="yes"/>
      <point x="1426" y="-123"/>
      <point x="1455" y="-150"/>
      <point x="1499" y="-150" type="curve" smooth="yes"/>
      <point x="1512" y="-150"/>
      <point x="1524" y="-148"/>
    </contour>
    <contour>
      <point x="1701" y="1480" type="line"/>
      <point x="1428" y="-66" type="line"/>
      <point x="1048" y="-66" type="line"/>
      <point x="1110" y="285" type="line"/>
      <point x="1174" y="420" type="line"/>
      <point x="1293" y="1092" type="line"/>
      <point x="1267" y="1173" type="line"/>
      <point x="1321" y="1480" type="line"/>
    </contour>
    <contour>
      <point x="887" y="1174" type="curve" smooth="yes"/>
      <point x="556" y="1174"/>
      <point x="420" y="861"/>
      <point x="420" y="630" type="curve" smooth="yes"/>
      <point x="420" y="438"/>
      <point x="523" y="306"/>
      <point x="734" y="306" type="curve" smooth="yes"/>
      <point x="1066" y="306"/>
      <point x="1200" y="622"/>
      <point x="1200" y="851" type="curve" smooth="yes"/>
      <point x="1200" y="1043"/>
      <point x="1098" y="1174"/>
    </contour>
    <contour>
      <point x="35" y="578" type="curve" smooth="yes"/>
      <point x="35" y="1041"/>
      <point x="381" y="1510"/>
      <point x="946" y="1510" type="curve" smooth="yes"/>
      <point x="1341" y="1510"/>
      <point x="1547" y="1274"/>
      <point x="1547" y="922" type="curve" smooth="yes"/>
      <point x="1547" y="492"/>
      <point x="1271" y="-30"/>
      <point x="675" y="-30" type="curve" smooth="yes"/>
      <point x="272" y="-30"/>
      <point x="35" y="215"/>
    </contour>
  </outline>
</glyph>
<glyph name="uni024C" format="2">
  <advance width="1433"/>
  <unicode hex="024C"/>
  <outline>
    <contour>
      <point x="370" y="488" type="line"/>
      <point x="429" y="824" type="line"/>
      <point x="15" y="824" type="line"/>
      <point x="-44" y="488" type="line"/>
    </contour>
    <contour>
      <point x="518" y="643" type="line"/>
      <point x="858" y="0" type="line"/>
      <point x="1298" y="0" type="line"/>
      <point x="938" y="660" type="line"/>
    </contour>
    <contour>
      <point x="1015" y="1021" type="curve" smooth="yes"/>
      <point x="1015" y="973"/>
      <point x="999" y="824"/>
      <point x="792" y="824" type="curve" smooth="yes"/>
      <point x="605" y="824" type="line"/>
      <point x="662" y="1144" type="line"/>
      <point x="849" y="1144" type="line" smooth="yes"/>
      <point x="955" y="1144"/>
      <point x="1015" y="1105"/>
    </contour>
    <contour>
      <point x="733" y="488" type="line" smooth="yes"/>
      <point x="1174" y="488"/>
      <point x="1400" y="800"/>
      <point x="1400" y="1073" type="curve" smooth="yes"/>
      <point x="1400" y="1292"/>
      <point x="1249" y="1480"/>
      <point x="908" y="1480" type="curve" smooth="yes"/>
      <point x="341" y="1480" type="line"/>
      <point x="80" y="0" type="line"/>
      <point x="460" y="0" type="line"/>
      <point x="546" y="488" type="line"/>
    </contour>
  </outline>
</glyph>
<glyph name="uni024F" format="2">
  <advance width="1274"/>
  <unicode hex="024F"/>
  <outline>
    <contour>
      <point x="-59" y="400" type="line"/>
      <point x="-17" y="640" type="line"/>
      <point x="1257" y="640" type="line"/>
      <point x="1215" y="400" type="line"/>
    </contour>
    <contour>
      <point x="643" y="-158" type="line"/>
      <point x="521" y="-384"/>
      <point x="397" y="-470"/>
      <point x="118" y="-470" type="curve" smooth="yes"/>
      <point x="-3" y="-470"/>
      <point x="-87" y="-439"/>
      <point x="-139" y="-415" type="curve"/>
      <point x="13" y="-95" type="line"/>
      <point x="39" y="-127"/>
      <point x="115" y="-150"/>
      <point x="175" y="-150" type="curve" smooth="yes"/>
      <point x="235" y="-150"/>
      <point x="296" y="-107"/>
      <point x="322" y="-44" type="curve"/>
      <point x="342" y="0" type="line"/>
      <point x="159" y="1040" type="line"/>
      <point x="543" y="1040" type="line"/>
      <point x="607" y="404" type="line"/>
      <point x="879" y="1040" type="line"/>
      <point x="1263" y="1040" type="line"/>
      <point x="725" y="0" type="line"/>
    </contour>
  </outline>
</glyph>
<glyph name="uni0250" format="2">
  <advance width="1249"/>
  <unicode hex="0250"/>
  <anchor x="541" y="0" name="bottom_center"/>
  <anchor x="724" y="1040" name="top_center"/>
  <outline>
    <contour>
      <point x="239" y="642" type="curve" smooth="yes"/>
      <point x="239" y="851"/>
      <point x="422" y="1080"/>
      <point x="779" y="1080" type="curve" smooth="yes"/>
      <point x="1055" y="1080"/>
      <point x="1200" y="946"/>
      <point x="1200" y="773" type="curve" smooth="yes"/>
      <point x="1200" y="524"/>
      <point x="916" y="370"/>
      <point x="606" y="370" type="curve" smooth="yes"/>
      <point x="366" y="370"/>
      <point x="239" y="477"/>
    </contour>
    <contour>
      <point x="675" y="760" type="curve" smooth="yes"/>
      <point x="636" y="760"/>
      <point x="496" y="759"/>
      <point x="496" y="699" type="curve" smooth="yes"/>
      <point x="496" y="663"/>
      <point x="561" y="650"/>
      <point x="656" y="650" type="curve" smooth="yes"/>
      <point x="697" y="650"/>
      <point x="834" y="651"/>
      <point x="834" y="711" type="curve" smooth="yes"/>
      <point x="834" y="747"/>
      <point x="770" y="760"/>
    </contour>
    <contour>
      <point x="132" y="673" type="line" smooth="yes"/>
      <point x="134" y="682"/>
      <point x="134" y="690"/>
      <point x="134" y="699" type="curve" smooth="yes"/>
      <point x="134" y="749"/>
      <point x="106" y="792"/>
      <point x="45" y="792" type="curve"/>
      <point x="175" y="1080" type="line"/>
      <point x="423" y="1061"/>
      <point x="516" y="889"/>
      <point x="516" y="815" type="curve" smooth="yes"/>
      <point x="516" y="811"/>
      <point x="516" y="807"/>
      <point x="515" y="803" type="curve"/>
      <point x="481" y="784" type="line"/>
      <point x="453" y="622" type="line"/>
      <point x="479" y="600" type="line"/>
      <point x="442" y="392" type="line" smooth="yes"/>
      <point x="441" y="384"/>
      <point x="440" y="377"/>
      <point x="440" y="370" type="curve" smooth="yes"/>
      <point x="440" y="322"/>
      <point x="477" y="289"/>
      <point x="592" y="289" type="curve" smooth="yes"/>
      <point x="818" y="289"/>
      <point x="920" y="355"/>
      <point x="920" y="355" type="curve"/>
      <point x="1036" y="84" type="line"/>
      <point x="1036" y="84"/>
      <point x="822" y="-30"/>
      <point x="536" y="-30" type="curve" smooth="yes"/>
      <point x="275" y="-30"/>
      <point x="76" y="50"/>
      <point x="76" y="310" type="curve" smooth="yes"/>
      <point x="76" y="344"/>
      <point x="80" y="381"/>
      <point x="87" y="422" type="curve" smooth="yes"/>
    </contour>
  </outline>
</glyph>
<glyph name="uni0253" format="2">
  <advance width="1250"/>
  <unicode hex="0253"/>
  <outline>
    <contour>
      <point x="632" y="750" type="curve" smooth="yes"/>
      <point x="452" y="750"/>
      <point x="385" y="564"/>
      <point x="385" y="454" type="curve" smooth="yes"/>
      <point x="385" y="355"/>
      <point x="440" y="290"/>
      <point x="551" y="290" type="curve" smooth="yes"/>
      <point x="725" y="290"/>
      <point x="807" y="448"/>
      <point x="807" y="575" type="curve" smooth="yes"/>
      <point x="807" y="677"/>
      <point x="749" y="750"/>
    </contour>
    <contour>
      <point x="1174" y="650" type="curve" smooth="yes"/>
      <point x="1174" y="336"/>
      <point x="970" y="-30"/>
      <point x="560" y="-30" type="curve" smooth="yes"/>
      <point x="410" y="-30"/>
      <point x="302" y="80"/>
      <point x="309" y="120" type="curve"/>
      <point x="288" y="0" type="line"/>
      <point x="-60" y="0" type="line"/>
      <point x="135" y="1106" type="line" smooth="yes"/>
      <point x="179" y="1356"/>
      <point x="401" y="1510"/>
      <point x="651" y="1510" type="curve" smooth="yes"/>
      <point x="663" y="1510"/>
      <point x="675" y="1510"/>
      <point x="687" y="1509" type="curve"/>
      <point x="630" y="1183" type="line"/>
      <point x="620" y="1188"/>
      <point x="608" y="1190"/>
      <point x="595" y="1190" type="curve" smooth="yes"/>
      <point x="545" y="1190"/>
      <point x="504" y="1156"/>
      <point x="495" y="1106" type="curve" smooth="yes"/>
      <point x="462" y="920" type="line"/>
      <point x="479" y="959"/>
      <point x="604" y="1070"/>
      <point x="754" y="1070" type="curve" smooth="yes"/>
      <point x="1029" y="1070"/>
      <point x="1174" y="901"/>
    </contour>
  </outline>
</glyph>
<glyph name="uni0255" format="2">
  <advance width="1156"/>
  <unicode hex="0255"/>
  <outline>
    <contour>
      <point x="621" y="750" type="curve" smooth="yes"/>
      <point x="396" y="750"/>
      <point x="383" y="491"/>
      <point x="383" y="434" type="curve" smooth="yes"/>
      <point x="383" y="329"/>
      <point x="423" y="240"/>
      <point x="531" y="240" type="curve" smooth="yes"/>
      <point x="658" y="240" type="line" smooth="yes"/>
      <point x="722" y="240"/>
      <point x="768" y="302"/>
      <point x="768" y="360" type="curve" smooth="yes"/>
      <point x="768" y="404"/>
      <point x="740" y="438"/>
      <point x="693" y="438" type="curve" smooth="yes"/>
      <point x="363" y="437"/>
      <point x="129" y="-177"/>
      <point x="129" y="-177" type="curve"/>
      <point x="-87" y="-39" type="line"/>
      <point x="-87" y="-39"/>
      <point x="211" y="678"/>
      <point x="736" y="678" type="curve" smooth="yes"/>
      <point x="910" y="678"/>
      <point x="1042" y="578"/>
      <point x="1042" y="406" type="curve" smooth="yes"/>
      <point x="1042" y="188"/>
      <point x="860" y="0"/>
      <point x="616" y="0" type="curve" smooth="yes"/>
      <point x="489" y="0" type="line" smooth="yes"/>
      <point x="206" y="0"/>
      <point x="21" y="156"/>
      <point x="21" y="414" type="curve" smooth="yes"/>
      <point x="21" y="746"/>
      <point x="292" y="1070"/>
      <point x="678" y="1070" type="curve" smooth="yes"/>
      <point x="899" y="1070"/>
      <point x="1058" y="961"/>
      <point x="1115" y="788" type="curve"/>
      <point x="777" y="610" type="line"/>
      <point x="771" y="696"/>
      <point x="725" y="750"/>
    </contour>
  </outline>
</glyph>
<glyph name="uni0256" format="2">
  <advance width="1301"/>
  <unicode hex="0256"/>
  <outline>
    <contour>
      <point x="614" y="1070" type="curve" smooth="yes"/>
      <point x="204" y="1070"/>
      <point x="0" y="704"/>
      <point x="0" y="390" type="curve" smooth="yes"/>
      <point x="0" y="139"/>
      <point x="145" y="-30"/>
      <point x="420" y="-30" type="curve" smooth="yes"/>
      <point x="570" y="-30"/>
      <point x="716" y="80"/>
      <point x="723" y="120" type="curve"/>
      <point x="702" y="0" type="line" smooth="yes"/>
      <point x="697" y="-28"/>
      <point x="695" y="-55"/>
      <point x="695" y="-81" type="curve" smooth="yes"/>
      <point x="695" y="-283"/>
      <point x="842" y="-404"/>
      <point x="1064" y="-404" type="curve" smooth="yes"/>
      <point x="1076" y="-404"/>
      <point x="1088" y="-404"/>
      <point x="1100" y="-403" type="curve"/>
      <point x="1157" y="-77" type="line"/>
      <point x="1145" y="-82"/>
      <point x="1133" y="-84"/>
      <point x="1120" y="-84" type="curve" smooth="yes"/>
      <point x="1076" y="-84"/>
      <point x="1048" y="-58"/>
      <point x="1048" y="-18" type="curve" smooth="yes"/>
      <point x="1048" y="-12"/>
      <point x="1049" y="-6"/>
      <point x="1050" y="0" type="curve" smooth="yes"/>
      <point x="1050" y="0"/>
      <point x="1062" y="66"/>
      <point x="1080" y="168" type="curve" smooth="yes"/>
      <point x="1311" y="1480" type="line"/>
      <point x="951" y="1480" type="line"/>
      <point x="852" y="920" type="line"/>
      <point x="849" y="959"/>
      <point x="764" y="1070"/>
    </contour>
    <contour>
      <point x="786" y="573" type="curve" smooth="yes"/>
      <point x="786" y="446"/>
      <point x="715" y="290"/>
      <point x="541" y="290" type="curve" smooth="yes"/>
      <point x="424" y="290"/>
      <point x="367" y="363"/>
      <point x="367" y="465" type="curve" smooth="yes"/>
      <point x="367" y="591"/>
      <point x="447" y="750"/>
      <point x="622" y="750" type="curve" smooth="yes"/>
      <point x="736" y="750"/>
      <point x="786" y="674"/>
    </contour>
  </outline>
</glyph>
<glyph name="uni0263" format="2">
  <advance width="1174"/>
  <unicode hex="0263"/>
  <outline>
    <contour>
      <point x="828" y="-81" type="curve" smooth="yes"/>
      <point x="828" y="-286"/>
      <point x="644" y="-470"/>
      <point x="380" y="-470" type="curve" smooth="yes"/>
      <point x="174" y="-470"/>
      <point x="48" y="-355"/>
      <point x="48" y="-197" type="curve" smooth="yes"/>
      <point x="48" y="-138"/>
      <point x="65" y="-67"/>
      <point x="115" y="4" type="curve" smooth="yes"/>
      <point x="309" y="278" type="line"/>
      <point x="88" y="1040" type="line"/>
      <point x="472" y="1040" type="line"/>
      <point x="564" y="562" type="line"/>
      <point x="808" y="1040" type="line"/>
      <point x="1192" y="1040" type="line"/>
      <point x="703" y="278" type="line"/>
      <point x="812" y="4" type="line" smooth="yes"/>
      <point x="823" y="-23"/>
      <point x="828" y="-51"/>
    </contour>
    <contour>
      <point x="437" y="-149" type="curve" smooth="yes"/>
      <point x="448" y="-149"/>
      <point x="491" y="-145"/>
      <point x="491" y="-82" type="curve" smooth="yes"/>
      <point x="491" y="-73"/>
      <point x="489" y="-67"/>
      <point x="487" y="-61" type="curve" smooth="yes"/>
      <point x="463" y="0" type="line"/>
      <point x="417" y="-61" type="line" smooth="yes"/>
      <point x="415" y="-64"/>
      <point x="399" y="-84"/>
      <point x="399" y="-113" type="curve" smooth="yes"/>
      <point x="399" y="-135"/>
      <point x="411" y="-149"/>
    </contour>
  </outline>
</glyph>
<glyph name="uni0265" format="2">
  <advance width="1192"/>
  <unicode hex="0265"/>
  <anchor x="466" y="0" name="bottom_center"/>
  <anchor x="649" y="1040" name="top_center"/>
  <outline>
    <contour>
      <point x="483" y="1040" type="line"/>
      <point x="383" y="468" type="line" smooth="yes"/>
      <point x="379" y="446"/>
      <point x="377" y="426"/>
      <point x="377" y="408" type="curve" smooth="yes"/>
      <point x="377" y="334"/>
      <point x="413" y="290"/>
      <point x="517" y="290" type="curve" smooth="yes"/>
      <point x="647" y="290"/>
      <point x="696" y="358"/>
      <point x="715" y="468" type="curve" smooth="yes"/>
      <point x="815" y="1040" type="line"/>
      <point x="1175" y="1040" type="line"/>
      <point x="914" y="-440" type="line"/>
      <point x="566" y="-440" type="line"/>
      <point x="665" y="120" type="line"/>
      <point x="619" y="59"/>
      <point x="515" y="-30"/>
      <point x="365" y="-30" type="curve" smooth="yes"/>
      <point x="141" y="-30"/>
      <point x="10" y="98"/>
      <point x="10" y="333" type="curve" smooth="yes"/>
      <point x="10" y="375"/>
      <point x="15" y="420"/>
      <point x="23" y="468" type="curve"/>
      <point x="123" y="1040" type="line"/>
    </contour>
  </outline>
</glyph>
<glyph name="uni0267" format="2">
  <advance width="1192"/>
  <unicode hex="0267"/>
  <outline>
    <contour>
      <point x="497" y="-77" type="line"/>
      <point x="507" y="-82"/>
      <point x="519" y="-84"/>
      <point x="532" y="-84" type="curve" smooth="yes"/>
      <point x="582" y="-84"/>
      <point x="623" y="-50"/>
      <point x="632" y="0" type="curve"/>
      <point x="992" y="0" type="line"/>
      <point x="948" y="-250"/>
      <point x="726" y="-404"/>
      <point x="476" y="-404" type="curve" smooth="yes"/>
      <point x="464" y="-404"/>
      <point x="452" y="-404"/>
      <point x="440" y="-403" type="curve"/>
    </contour>
    <contour>
      <point x="135" y="1106" type="line"/>
      <point x="179" y="1356"/>
      <point x="389" y="1510"/>
      <point x="639" y="1510" type="curve" smooth="yes"/>
      <point x="651" y="1510"/>
      <point x="663" y="1510"/>
      <point x="675" y="1509" type="curve"/>
      <point x="618" y="1183" type="line"/>
      <point x="608" y="1188"/>
      <point x="596" y="1190"/>
      <point x="583" y="1190" type="curve" smooth="yes"/>
      <point x="533" y="1190"/>
      <point x="492" y="1156"/>
      <point x="483" y="1106" type="curve"/>
      <point x="450" y="920" type="line"/>
      <point x="496" y="981"/>
      <point x="601" y="1070"/>
      <point x="751" y="1070" type="curve" smooth="yes"/>
      <point x="975" y="1070"/>
      <point x="1106" y="942"/>
      <point x="1106" y="707" type="curve" smooth="yes"/>
      <point x="1106" y="665"/>
      <point x="1101" y="620"/>
      <point x="1093" y="572" type="curve"/>
      <point x="992" y="0" type="line"/>
      <point x="632" y="0" type="line"/>
      <point x="733" y="572" type="line" smooth="yes"/>
      <point x="737" y="593"/>
      <point x="739" y="613"/>
      <point x="739" y="631" type="curve" smooth="yes"/>
      <point x="739" y="706"/>
      <point x="703" y="750"/>
      <point x="598" y="750" type="curve" smooth="yes"/>
      <point x="468" y="750"/>
      <point x="420" y="682"/>
      <point x="401" y="572" type="curve" smooth="yes"/>
      <point x="300" y="0" type="line"/>
      <point x="-60" y="0" type="line"/>
    </contour>
  </outline>
</glyph>
<glyph name="uni026A" format="2">
  <advance width="738"/>
  <unicode hex="026A"/>
  <anchor x="235" y="-20" name="bottom_cedilla"/>
  <anchor x="422" y="1040" name="top_center"/>
  <anchor x="239" y="0" name="bottom_center"/>
  <anchor x="419" y="0" name="bottom_right"/>
  <outline>
    <contour>
      <point x="123" y="1040" type="line"/>
      <point x="721" y="1040" type="line"/>
      <point x="665" y="720" type="line"/>
      <point x="546" y="720" type="line"/>
      <point x="475" y="320" type="line"/>
      <point x="594" y="320" type="line"/>
      <point x="538" y="0" type="line"/>
      <point x="-60" y="0" type="line"/>
      <point x="-4" y="320" type="line"/>
      <point x="115" y="320" type="line"/>
      <point x="186" y="720" type="line"/>
      <point x="67" y="720" type="line"/>
    </contour>
  </outline>
</glyph>
<glyph name="uni0271" format="2">
  <advance width="1644"/>
  <unicode hex="0271"/>
  <outline>
    <contour>
      <point x="512" y="0" type="line"/>
      <point x="613" y="572" type="line" smooth="yes"/>
      <point x="619" y="609"/>
      <point x="624" y="641"/>
      <point x="624" y="667" type="curve" smooth="yes"/>
      <point x="624" y="720"/>
      <point x="605" y="750"/>
      <point x="538" y="750" type="curve" smooth="yes"/>
      <point x="438" y="750"/>
      <point x="420" y="682"/>
      <point x="401" y="572" type="curve" smooth="yes"/>
      <point x="300" y="0" type="line"/>
      <point x="-60" y="0" type="line"/>
      <point x="123" y="1040" type="line"/>
      <point x="471" y="1040" type="line"/>
      <point x="450" y="920" type="line"/>
      <point x="450" y="920"/>
      <point x="541" y="1070"/>
      <point x="691" y="1070" type="curve" smooth="yes"/>
      <point x="824" y="1070"/>
      <point x="909" y="1024"/>
      <point x="953" y="938" type="curve"/>
      <point x="1027" y="1024"/>
      <point x="1130" y="1070"/>
      <point x="1263" y="1070" type="curve" smooth="yes"/>
      <point x="1473" y="1070"/>
      <point x="1563" y="958"/>
      <point x="1563" y="751" type="curve" smooth="yes"/>
      <point x="1563" y="698"/>
      <point x="1557" y="638"/>
      <point x="1545" y="572" type="curve" smooth="yes"/>
      <point x="1444" y="0" type="line" smooth="yes"/>
      <point x="1400" y="-250"/>
      <point x="1178" y="-404"/>
      <point x="928" y="-404" type="curve" smooth="yes"/>
      <point x="916" y="-404"/>
      <point x="904" y="-404"/>
      <point x="892" y="-403" type="curve"/>
      <point x="949" y="-77" type="line"/>
      <point x="959" y="-82"/>
      <point x="971" y="-84"/>
      <point x="984" y="-84" type="curve" smooth="yes"/>
      <point x="1034" y="-84"/>
      <point x="1075" y="-50"/>
      <point x="1084" y="0" type="curve" smooth="yes"/>
      <point x="1185" y="572" type="line" smooth="yes"/>
      <point x="1191" y="609"/>
      <point x="1196" y="641"/>
      <point x="1196" y="667" type="curve" smooth="yes"/>
      <point x="1196" y="720"/>
      <point x="1177" y="750"/>
      <point x="1110" y="750" type="curve" smooth="yes"/>
      <point x="1010" y="750"/>
      <point x="992" y="682"/>
      <point x="973" y="572" type="curve" smooth="yes"/>
      <point x="872" y="0" type="line"/>
    </contour>
  </outline>
</glyph>
<glyph name="uni0272" format="2">
  <advance width="1243"/>
  <unicode hex="0272"/>
  <anchor x="700" y="1040" name="top_center"/>
  <outline>
    <contour>
      <point x="351" y="0" type="curve" smooth="yes"/>
      <point x="452" y="572" type="line" smooth="yes"/>
      <point x="471" y="682"/>
      <point x="519" y="750"/>
      <point x="649" y="750" type="curve" smooth="yes"/>
      <point x="754" y="750"/>
      <point x="790" y="706"/>
      <point x="790" y="631" type="curve" smooth="yes"/>
      <point x="790" y="613"/>
      <point x="788" y="593"/>
      <point x="784" y="572" type="curve" smooth="yes"/>
      <point x="683" y="0" type="line"/>
      <point x="1043" y="0" type="line"/>
      <point x="1144" y="572" type="line"/>
      <point x="1152" y="620"/>
      <point x="1157" y="665"/>
      <point x="1157" y="707" type="curve" smooth="yes"/>
      <point x="1157" y="942"/>
      <point x="1026" y="1070"/>
      <point x="802" y="1070" type="curve" smooth="yes"/>
      <point x="652" y="1070"/>
      <point x="547" y="981"/>
      <point x="501" y="920" type="curve"/>
      <point x="522" y="1040" type="line"/>
      <point x="174" y="1040" type="line"/>
      <point x="-9" y="0" type="line" smooth="yes"/>
      <point x="-18" y="-50"/>
      <point x="-59" y="-84"/>
      <point x="-109" y="-84" type="curve" smooth="yes"/>
      <point x="-122" y="-84"/>
      <point x="-134" y="-82"/>
      <point x="-144" y="-77" type="curve"/>
      <point x="-201" y="-403" type="line"/>
      <point x="-189" y="-404"/>
      <point x="-177" y="-404"/>
      <point x="-165" y="-404" type="curve" smooth="yes"/>
      <point x="85" y="-404"/>
      <point x="307" y="-250"/>
    </contour>
  </outline>
</glyph>
<glyph name="uni027C" format="2">
  <advance width="887"/>
  <unicode hex="027C"/>
  <outline>
    <contour>
      <point x="767" y="691" type="line"/>
      <point x="736" y="730"/>
      <point x="681" y="750"/>
      <point x="598" y="750" type="curve" smooth="yes"/>
      <point x="468" y="750"/>
      <point x="420" y="682"/>
      <point x="401" y="572" type="curve" smooth="yes"/>
      <point x="222" y="-440" type="line"/>
      <point x="-138" y="-440" type="line"/>
      <point x="123" y="1040" type="line"/>
      <point x="471" y="1040" type="line"/>
      <point x="450" y="920" type="line"/>
      <point x="496" y="981"/>
      <point x="601" y="1070"/>
      <point x="751" y="1070" type="curve" smooth="yes"/>
      <point x="822" y="1070"/>
      <point x="882" y="1058"/>
      <point x="934" y="1034" type="curve"/>
    </contour>
  </outline>
</glyph>
<glyph name="uni027E" format="2">
  <advance width="665"/>
  <unicode hex="027E"/>
  <outline>
    <contour>
      <point x="-60" y="0" type="line"/>
      <point x="300" y="0" type="line"/>
      <point x="420" y="678" type="line" smooth="yes"/>
      <point x="429" y="728"/>
      <point x="448" y="750"/>
      <point x="500" y="750" type="curve" smooth="yes"/>
      <point x="519" y="750"/>
      <point x="548" y="743"/>
      <point x="559" y="734" type="curve"/>
      <point x="711" y="1026" type="line"/>
      <point x="687" y="1039"/>
      <point x="645" y="1070"/>
      <point x="557" y="1070" type="curve" smooth="yes"/>
      <point x="373" y="1070"/>
      <point x="113" y="978"/>
      <point x="60" y="678" type="curve" smooth="yes"/>
    </contour>
  </outline>
</glyph>
<glyph name="uni027F" format="2">
  <advance width="665"/>
  <unicode hex="027F"/>
  <outline>
    <contour>
      <point x="225" y="678" type="line" smooth="yes"/>
      <point x="227" y="688"/>
      <point x="228" y="696"/>
      <point x="228" y="704" type="curve" smooth="yes"/>
      <point x="228" y="736"/>
      <point x="211" y="750"/>
      <point x="169" y="750" type="curve" smooth="yes"/>
      <point x="150" y="750"/>
      <point x="119" y="743"/>
      <point x="104" y="734" type="curve"/>
      <point x="56" y="1026" type="line"/>
      <point x="84" y="1039"/>
      <point x="138" y="1070"/>
      <point x="226" y="1070" type="curve" smooth="yes"/>
      <point x="392" y="1070"/>
      <point x="593" y="996"/>
      <point x="593" y="762" type="curve" smooth="yes"/>
      <point x="593" y="736"/>
      <point x="590" y="708"/>
      <point x="585" y="678" type="curve" smooth="yes"/>
      <point x="387" y="-440" type="line"/>
      <point x="27" y="-440" type="line"/>
    </contour>
  </outline>
</glyph>
<glyph name="uni0280" format="2">
  <advance width="1037"/>
  <unicode hex="0280"/>
  <outline>
    <contour>
      <point x="976" y="744" type="curve" smooth="yes"/>
      <point x="976" y="579"/>
      <point x="890" y="429"/>
      <point x="732" y="361" type="curve"/>
      <point x="902" y="0" type="line"/>
      <point x="500" y="0" type="line"/>
      <point x="370" y="283" type="line"/>
      <point x="350" y="283" type="line"/>
      <point x="300" y="0" type="line"/>
      <point x="-60" y="0" type="line"/>
      <point x="123" y="1040" type="line"/>
      <point x="596" y="1040" type="line" smooth="yes"/>
      <point x="842" y="1040"/>
      <point x="976" y="933"/>
    </contour>
    <contour>
      <point x="520" y="604" type="line" smooth="yes"/>
      <point x="557" y="604"/>
      <point x="609" y="615"/>
      <point x="609" y="675" type="curve" smooth="yes"/>
      <point x="609" y="709"/>
      <point x="580" y="720"/>
      <point x="540" y="720" type="curve" smooth="yes"/>
      <point x="427" y="720" type="line"/>
      <point x="407" y="604" type="line"/>
    </contour>
  </outline>
</glyph>
<glyph name="uni0283" format="2">
  <advance width="1202"/>
  <unicode hex="0283"/>
  <outline>
    <contour>
      <point x="289" y="-10" type="line"/>
      <point x="271" y="-110"/>
      <point x="217" y="-150"/>
      <point x="127" y="-150" type="curve" smooth="yes"/>
      <point x="67" y="-150"/>
      <point x="-5" y="-127"/>
      <point x="-31" y="-95" type="curve"/>
      <point x="-179" y="-418" type="line"/>
      <point x="-127" y="-442"/>
      <point x="-47" y="-470"/>
      <point x="74" y="-470" type="curve" smooth="yes"/>
      <point x="434" y="-470"/>
      <point x="602" y="-280"/>
      <point x="651" y="0" type="curve"/>
      <point x="836" y="1050" type="line"/>
      <point x="854" y="1150"/>
      <point x="909" y="1190"/>
      <point x="999" y="1190" type="curve" smooth="yes"/>
      <point x="1059" y="1190"/>
      <point x="1130" y="1167"/>
      <point x="1156" y="1135" type="curve"/>
      <point x="1304" y="1458" type="line"/>
      <point x="1252" y="1482"/>
      <point x="1172" y="1510"/>
      <point x="1051" y="1510" type="curve" smooth="yes"/>
      <point x="691" y="1510"/>
      <point x="523" y="1320"/>
      <point x="474" y="1040" type="curve"/>
    </contour>
  </outline>
</glyph>
<glyph name="uni028F" format="2">
  <advance width="1182"/>
  <unicode hex="028F"/>
  <outline>
    <contour>
      <point x="736" y="480" type="line"/>
      <point x="651" y="0" type="line"/>
      <point x="271" y="0" type="line"/>
      <point x="356" y="480" type="line"/>
      <point x="88" y="1040" type="line"/>
      <point x="510" y="1040" type="line"/>
      <point x="606" y="822" type="line"/>
      <point x="768" y="1040" type="line"/>
      <point x="1200" y="1040" type="line"/>
    </contour>
  </outline>
</glyph>
<glyph name="uni0292" format="2">
  <advance width="1286"/>
  <unicode hex="0292"/>
  <anchor x="449" y="-360" name="bottom_center"/>
  <anchor x="695" y="1040" name="top_center"/>
  <outline>
    <contour>
      <point x="615" y="194" type="line"/>
      <point x="481" y="472" type="line"/>
      <point x="1086" y="1040" type="line"/>
      <point x="1176" y="736" type="line"/>
    </contour>
    <contour>
      <point x="1114" y="85" type="curve" smooth="yes"/>
      <point x="1114" y="40"/>
      <point x="1099" y="-470"/>
      <point x="429" y="-470" type="curve" smooth="yes"/>
      <point x="147" y="-470"/>
      <point x="-94" y="-351"/>
      <point x="-94" y="-87" type="curve" smooth="yes"/>
      <point x="-94" y="-84"/>
      <point x="-94" y="-82"/>
      <point x="-94" y="-79" type="curve"/>
      <point x="297" y="21" type="line"/>
      <point x="295" y="9"/>
      <point x="294" y="-2"/>
      <point x="294" y="-12" type="curve" smooth="yes"/>
      <point x="294" y="-91"/>
      <point x="355" y="-134"/>
      <point x="488" y="-134" type="curve" smooth="yes"/>
      <point x="580" y="-134"/>
      <point x="733" y="-110"/>
      <point x="733" y="55" type="curve" smooth="yes"/>
      <point x="733" y="133"/>
      <point x="675" y="176"/>
      <point x="543" y="176" type="curve" smooth="yes"/>
      <point x="429" y="176" type="line"/>
      <point x="481" y="472" type="line"/>
      <point x="481" y="472"/>
      <point x="579" y="496"/>
      <point x="599" y="496" type="curve" smooth="yes"/>
      <point x="907" y="496"/>
      <point x="1114" y="318"/>
    </contour>
    <contour>
      <point x="175" y="1040" type="line"/>
      <point x="1229" y="1040" type="line"/>
      <point x="1176" y="736" type="line"/>
      <point x="757" y="704" type="line"/>
      <point x="116" y="704" type="line"/>
    </contour>
  </outline>
</glyph>
<glyph name="uni0296" format="2">
  <advance width="1287"/>
  <unicode hex="0296"/>
  <outline>
    <contour>
      <point x="581" y="1480" type="line"/>
      <point x="961" y="1480" type="line"/>
      <point x="829" y="734" type="line"/>
      <point x="449" y="734" type="line"/>
    </contour>
    <contour>
      <point x="564" y="306" type="curve" smooth="yes"/>
      <point x="736" y="306"/>
      <point x="843" y="425"/>
      <point x="843" y="563" type="curve" smooth="yes"/>
      <point x="843" y="683"/>
      <point x="743" y="734"/>
      <point x="639" y="734" type="curve"/>
      <point x="699" y="1070" type="line"/>
      <point x="1001" y="1070"/>
      <point x="1207" y="879"/>
      <point x="1207" y="615" type="curve" smooth="yes"/>
      <point x="1207" y="300"/>
      <point x="934" y="-30"/>
      <point x="505" y="-30" type="curve" smooth="yes"/>
      <point x="185" y="-30"/>
      <point x="-5" y="158"/>
      <point x="-5" y="420" type="curve" smooth="yes"/>
      <point x="-5" y="421"/>
      <point x="-5" y="423"/>
      <point x="-5" y="424" type="curve"/>
      <point x="365" y="520" type="line"/>
      <point x="362" y="504"/>
      <point x="361" y="490"/>
      <point x="361" y="476" type="curve" smooth="yes"/>
      <point x="361" y="358"/>
      <point x="456" y="306"/>
    </contour>
  </outline>
</glyph>
<glyph name="uni029B" format="2">
  <advance width="1209"/>
  <unicode hex="029B"/>
  <outline>
    <contour>
      <point x="1261" y="1238" type="curve" smooth="yes"/>
      <point x="1273" y="1238"/>
      <point x="1285" y="1238"/>
      <point x="1297" y="1237" type="curve"/>
      <point x="1240" y="911" type="line"/>
      <point x="1230" y="916"/>
      <point x="1218" y="918"/>
      <point x="1205" y="918" type="curve" smooth="yes"/>
      <point x="1155" y="918"/>
      <point x="1114" y="884"/>
      <point x="1105" y="834" type="curve" smooth="yes"/>
      <point x="1103" y="821"/>
      <point x="1102" y="809"/>
      <point x="1106" y="798" type="curve"/>
      <point x="752" y="798" type="line"/>
      <point x="753" y="810"/>
      <point x="754" y="822"/>
      <point x="756" y="834" type="curve" smooth="yes"/>
      <point x="800" y="1084"/>
      <point x="1011" y="1238"/>
    </contour>
    <contour>
      <point x="2" y="411" type="curve" smooth="yes"/>
      <point x="2" y="752"/>
      <point x="278" y="1070"/>
      <point x="658" y="1070" type="curve" smooth="yes"/>
      <point x="880" y="1070"/>
      <point x="1045" y="975"/>
      <point x="1106" y="798" type="curve"/>
      <point x="776" y="672" type="line"/>
      <point x="765" y="711"/>
      <point x="715" y="750"/>
      <point x="601" y="750" type="curve" smooth="yes"/>
      <point x="371" y="750"/>
      <point x="365" y="478"/>
      <point x="365" y="448" type="curve" smooth="yes"/>
      <point x="365" y="352"/>
      <point x="410" y="290"/>
      <point x="521" y="290" type="curve" smooth="yes"/>
      <point x="625" y="290"/>
      <point x="690" y="344"/>
      <point x="726" y="430" type="curve"/>
      <point x="881" y="252" type="line"/>
      <point x="762" y="79"/>
      <point x="686" y="-30"/>
      <point x="465" y="-30" type="curve" smooth="yes"/>
      <point x="183" y="-30"/>
      <point x="2" y="149"/>
    </contour>
    <contour>
      <point x="646" y="277" type="line"/>
      <point x="661" y="363" type="line"/>
      <point x="500" y="363" type="line"/>
      <point x="546" y="623" type="line"/>
      <point x="1075" y="623" type="line"/>
      <point x="965" y="0" type="line"/>
      <point x="605" y="0" type="line"/>
      <point x="644" y="222" type="line"/>
    </contour>
  </outline>
</glyph>
<glyph name="uni029D" format="2">
  <advance width="1228"/>
  <unicode hex="029D"/>
  <outline>
    <contour>
      <point x="1135" y="208" type="line"/>
      <point x="267" y="208" type="line"/>
      <point x="224" y="-32" type="line"/>
      <point x="1092" y="-32" type="line"/>
    </contour>
    <contour>
      <point x="538" y="1352" type="curve" smooth="yes"/>
      <point x="538" y="1463"/>
      <point x="627" y="1552"/>
      <point x="738" y="1552" type="curve" smooth="yes"/>
      <point x="849" y="1552"/>
      <point x="938" y="1463"/>
      <point x="938" y="1352" type="curve" smooth="yes"/>
      <point x="938" y="1241"/>
      <point x="849" y="1152"/>
      <point x="738" y="1152" type="curve" smooth="yes"/>
      <point x="627" y="1152"/>
      <point x="538" y="1241"/>
    </contour>
    <contour>
      <point x="-159" y="-197" type="curve" smooth="yes"/>
      <point x="-159" y="-370"/>
      <point x="-27" y="-470"/>
      <point x="147" y="-470" type="curve" smooth="yes"/>
      <point x="422" y="-470"/>
      <point x="616" y="-364"/>
      <point x="657" y="-131" type="curve" smooth="yes"/>
      <point x="863" y="1040" type="line"/>
      <point x="503" y="1040" type="line"/>
      <point x="297" y="-131" type="line" smooth="yes"/>
      <point x="287" y="-185"/>
      <point x="243" y="-230"/>
      <point x="189" y="-230" type="curve" smooth="yes"/>
      <point x="142" y="-230"/>
      <point x="115" y="-195"/>
      <point x="115" y="-151" type="curve" smooth="yes"/>
      <point x="115" y="-92"/>
      <point x="161" y="-32"/>
      <point x="224" y="-32" type="curve"/>
      <point x="267" y="208" type="line"/>
      <point x="24" y="208"/>
      <point x="-159" y="22"/>
    </contour>
  </outline>
</glyph>
<glyph name="uni029F" format="2">
  <advance width="979"/>
  <unicode hex="029F"/>
  <outline>
    <contour>
      <point x="483" y="1040" type="line"/>
      <point x="356" y="320" type="line"/>
      <point x="835" y="320" type="line"/>
      <point x="779" y="0" type="line"/>
      <point x="-60" y="0" type="line"/>
      <point x="123" y="1040" type="line"/>
    </contour>
  </outline>
</glyph>
<glyph name="uni02A5" format="2">
  <advance width="2712"/>
  <unicode hex="02A5"/>
  <outline>
    <contour>
      <point x="2648" y="406" type="curve" smooth="yes"/>
      <point x="2648" y="188"/>
      <point x="2466" y="0"/>
      <point x="2222" y="0" type="curve" smooth="yes"/>
      <point x="1070" y="0" type="line"/>
      <point x="1121" y="288" type="line"/>
      <point x="1586" y="240" type="line"/>
      <point x="2264" y="240" type="line" smooth="yes"/>
      <point x="2328" y="240"/>
      <point x="2374" y="302"/>
      <point x="2374" y="360" type="curve" smooth="yes"/>
      <point x="2374" y="404"/>
      <point x="2346" y="438"/>
      <point x="2299" y="438" type="curve" smooth="yes"/>
      <point x="1969" y="437"/>
      <point x="1735" y="-177"/>
      <point x="1735" y="-177" type="curve"/>
      <point x="1519" y="-39" type="line"/>
      <point x="1519" y="-39"/>
      <point x="1817" y="678"/>
      <point x="2342" y="678" type="curve" smooth="yes"/>
      <point x="2516" y="678"/>
      <point x="2648" y="578"/>
    </contour>
    <contour>
      <point x="1253" y="1040" type="line"/>
      <point x="2145" y="1040" type="line"/>
      <point x="2095" y="752" type="line"/>
      <point x="1675" y="720" type="line"/>
      <point x="1197" y="720" type="line"/>
    </contour>
    <contour>
      <point x="1580" y="230" type="line"/>
      <point x="1121" y="288" type="line"/>
      <point x="1615" y="720" type="line"/>
      <point x="2095" y="752" type="line"/>
    </contour>
    <contour>
      <point x="561" y="290" type="curve" smooth="yes"/>
      <point x="735" y="290"/>
      <point x="806" y="446"/>
      <point x="806" y="573" type="curve" smooth="yes"/>
      <point x="806" y="674"/>
      <point x="756" y="750"/>
      <point x="642" y="750" type="curve" smooth="yes"/>
      <point x="467" y="750"/>
      <point x="387" y="591"/>
      <point x="387" y="465" type="curve" smooth="yes"/>
      <point x="387" y="363"/>
      <point x="444" y="290"/>
    </contour>
    <contour>
      <point x="20" y="390" type="curve" smooth="yes"/>
      <point x="20" y="704"/>
      <point x="224" y="1070"/>
      <point x="634" y="1070" type="curve" smooth="yes"/>
      <point x="784" y="1070"/>
      <point x="869" y="959"/>
      <point x="872" y="920" type="curve"/>
      <point x="971" y="1480" type="line"/>
      <point x="1331" y="1480" type="line"/>
      <point x="1100" y="168" type="line" smooth="yes"/>
      <point x="1092" y="124"/>
      <point x="1090" y="87"/>
      <point x="1090" y="59" type="curve" smooth="yes"/>
      <point x="1090" y="21"/>
      <point x="1094" y="0"/>
      <point x="1094" y="0" type="curve"/>
      <point x="746" y="0" type="line"/>
      <point x="746" y="0"/>
      <point x="739" y="31"/>
      <point x="739" y="71" type="curve" smooth="yes"/>
      <point x="739" y="87"/>
      <point x="740" y="103"/>
      <point x="743" y="120" type="curve"/>
      <point x="736" y="80"/>
      <point x="590" y="-30"/>
      <point x="440" y="-30" type="curve" smooth="yes"/>
      <point x="165" y="-30"/>
      <point x="20" y="139"/>
    </contour>
  </outline>
</glyph>
<glyph name="uni02A7" format="2">
  <advance width="1752"/>
  <unicode hex="02A7"/>
  <outline>
    <contour>
      <point x="641" y="0" type="line" smooth="yes"/>
      <point x="336" y="0"/>
      <point x="214" y="115"/>
      <point x="214" y="321" type="curve" smooth="yes"/>
      <point x="214" y="358"/>
      <point x="218" y="398"/>
      <point x="225" y="440" type="curve" smooth="yes"/>
      <point x="274" y="720" type="line"/>
      <point x="22" y="720" type="line"/>
      <point x="76" y="1028" type="line"/>
      <point x="148" y="1028" type="line" smooth="yes"/>
      <point x="268" y="1028"/>
      <point x="366" y="1106"/>
      <point x="387" y="1226" type="curve" smooth="yes"/>
      <point x="404" y="1320" type="line"/>
      <point x="740" y="1320" type="line"/>
      <point x="690" y="1040" type="line"/>
      <point x="995" y="1040" type="line"/>
      <point x="939" y="720" type="line"/>
      <point x="634" y="720" type="line"/>
      <point x="585" y="440" type="line" smooth="yes"/>
      <point x="582" y="425"/>
      <point x="581" y="412"/>
      <point x="581" y="401" type="curve" smooth="yes"/>
      <point x="581" y="335"/>
      <point x="624" y="320"/>
      <point x="701" y="320" type="curve" smooth="yes"/>
      <point x="1123" y="320" type="line"/>
      <point x="1067" y="0" type="line"/>
    </contour>
    <contour>
      <point x="1049" y="1040" type="line" smooth="yes"/>
      <point x="1098" y="1320"/>
      <point x="1266" y="1510"/>
      <point x="1626" y="1510" type="curve" smooth="yes"/>
      <point x="1747" y="1510"/>
      <point x="1827" y="1482"/>
      <point x="1879" y="1458" type="curve"/>
      <point x="1731" y="1135" type="line"/>
      <point x="1705" y="1167"/>
      <point x="1634" y="1190"/>
      <point x="1574" y="1190" type="curve" smooth="yes"/>
      <point x="1484" y="1190"/>
      <point x="1429" y="1150"/>
      <point x="1411" y="1050" type="curve" smooth="yes"/>
      <point x="1226" y="0" type="line" smooth="yes"/>
      <point x="1177" y="-280"/>
      <point x="1009" y="-470"/>
      <point x="649" y="-470" type="curve" smooth="yes"/>
      <point x="528" y="-470"/>
      <point x="448" y="-442"/>
      <point x="396" y="-418" type="curve"/>
      <point x="544" y="-95" type="line"/>
      <point x="570" y="-127"/>
      <point x="642" y="-150"/>
      <point x="702" y="-150" type="curve" smooth="yes"/>
      <point x="792" y="-150"/>
      <point x="846" y="-110"/>
      <point x="864" y="-10" type="curve" smooth="yes"/>
    </contour>
  </outline>
</glyph>
<glyph name="uni02AA" format="2">
  <advance width="1568"/>
  <unicode hex="02AA"/>
  <outline>
    <contour>
      <point x="364" y="392" type="line" smooth="yes"/>
      <point x="362" y="382"/>
      <point x="361" y="374"/>
      <point x="361" y="366" type="curve" smooth="yes"/>
      <point x="361" y="334"/>
      <point x="378" y="320"/>
      <point x="423" y="320" type="curve" smooth="yes"/>
      <point x="920" y="320" type="line" smooth="yes"/>
      <point x="1012" y="320"/>
      <point x="1052" y="324"/>
      <point x="1052" y="349" type="curve" smooth="yes"/>
      <point x="1052" y="364"/>
      <point x="1006" y="373"/>
      <point x="941" y="386" type="curve" smooth="yes"/>
      <point x="790" y="416"/>
      <point x="537" y="468"/>
      <point x="537" y="666" type="curve" smooth="yes"/>
      <point x="537" y="858"/>
      <point x="718" y="1070"/>
      <point x="1052" y="1070" type="curve" smooth="yes"/>
      <point x="1332" y="1070"/>
      <point x="1448" y="931"/>
      <point x="1466" y="775" type="curve"/>
      <point x="1103" y="685" type="line"/>
      <point x="1103" y="715"/>
      <point x="1088" y="747"/>
      <point x="995" y="750" type="curve" smooth="yes"/>
      <point x="954" y="750"/>
      <point x="901" y="745"/>
      <point x="901" y="715" type="curve" smooth="yes"/>
      <point x="901" y="696"/>
      <point x="929" y="678"/>
      <point x="982" y="667" type="curve" smooth="yes"/>
      <point x="1237" y="611"/>
      <point x="1415" y="577"/>
      <point x="1415" y="393" type="curve" smooth="yes"/>
      <point x="1415" y="295"/>
      <point x="1373" y="0"/>
      <point x="864" y="0" type="curve" smooth="yes"/>
      <point x="363" y="0" type="line" smooth="yes"/>
      <point x="197" y="0"/>
      <point x="-4" y="74"/>
      <point x="-4" y="308" type="curve" smooth="yes"/>
      <point x="-4" y="334"/>
      <point x="-1" y="362"/>
      <point x="4" y="392" type="curve" smooth="yes"/>
      <point x="196" y="1480" type="line"/>
      <point x="556" y="1480" type="line"/>
    </contour>
  </outline>
</glyph>
<glyph name="uni02AC" format="2">
  <advance width="1172"/>
  <unicode hex="02AC"/>
  <note>w size x0.625</note>
  <outline>
    <contour>
      <point x="680" y="650" type="line"/>
      <point x="727" y="275" type="line"/>
      <point x="884" y="650" type="line"/>
      <point x="1122" y="650" type="line"/>
      <point x="823" y="0" type="line"/>
      <point x="553" y="0" type="line"/>
      <point x="512" y="337" type="line"/>
      <point x="353" y="0" type="line"/>
      <point x="89" y="0" type="line"/>
      <point x="20" y="650" type="line"/>
      <point x="258" y="650" type="line"/>
      <point x="281" y="275" type="line"/>
      <point x="455" y="650" type="line"/>
    </contour>
    <contour>
      <point x="826" y="1480" type="line"/>
      <point x="874" y="1105" type="line"/>
      <point x="1030" y="1480" type="line"/>
      <point x="1268" y="1480" type="line"/>
      <point x="969" y="830" type="line"/>
      <point x="699" y="830" type="line"/>
      <point x="659" y="1167" type="line"/>
      <point x="499" y="830" type="line"/>
      <point x="235" y="830" type="line"/>
      <point x="166" y="1480" type="line"/>
      <point x="404" y="1480" type="line"/>
      <point x="428" y="1105" type="line"/>
      <point x="601" y="1480" type="line"/>
    </contour>
  </outline>
</glyph>
<glyph name="uni02AD" format="2">
  <advance width="1012"/>
  <unicode hex="02AD"/>
  <outline>
    <contour>
      <point x="733" y="1480" type="line"/>
      <point x="1093" y="1480" type="line"/>
      <point x="1019" y="1060" type="line"/>
      <point x="659" y="1060" type="line"/>
    </contour>
    <contour>
      <point x="181" y="1480" type="line"/>
      <point x="541" y="1480" type="line"/>
      <point x="467" y="1060" type="line"/>
      <point x="107" y="1060" type="line"/>
    </contour>
    <contour>
      <point x="485" y="1160" type="line"/>
      <point x="541" y="1480" type="line"/>
      <point x="733" y="1480" type="line"/>
      <point x="677" y="1160" type="line"/>
    </contour>
    <contour>
      <point x="546" y="420" type="line"/>
      <point x="906" y="420" type="line"/>
      <point x="832" y="0" type="line"/>
      <point x="472" y="0" type="line"/>
    </contour>
    <contour>
      <point x="-6" y="420" type="line"/>
      <point x="354" y="420" type="line"/>
      <point x="280" y="0" type="line"/>
      <point x="-80" y="0" type="line"/>
    </contour>
    <contour>
      <point x="298" y="100" type="line"/>
      <point x="354" y="420" type="line"/>
      <point x="546" y="420" type="line"/>
      <point x="490" y="100" type="line"/>
    </contour>
  </outline>
</glyph>
<glyph name="uni02B0" format="2">
  <advance width="817"/>
  <unicode hex="02B0"/>
  <outline>
    <contour>
      <point x="518" y="811" type="line"/>
      <point x="568" y="1096" type="line" smooth="yes"/>
      <point x="570" y="1107"/>
      <point x="571" y="1118"/>
      <point x="571" y="1127" type="curve" smooth="yes"/>
      <point x="571" y="1168"/>
      <point x="551" y="1192"/>
      <point x="489" y="1192" type="curve" smooth="yes"/>
      <point x="413" y="1192"/>
      <point x="385" y="1155"/>
      <point x="375" y="1096" type="curve" smooth="yes"/>
      <point x="325" y="811" type="line"/>
      <point x="55" y="811" type="line"/>
      <point x="206" y="1669" type="line"/>
      <point x="467" y="1669" type="line"/>
      <point x="405" y="1319" type="line"/>
      <point x="436" y="1365"/>
      <point x="508" y="1432"/>
      <point x="609" y="1432" type="curve" smooth="yes"/>
      <point x="762" y="1432"/>
      <point x="851" y="1352"/>
      <point x="851" y="1206" type="curve" smooth="yes"/>
      <point x="851" y="1183"/>
      <point x="849" y="1158"/>
      <point x="844" y="1131" type="curve" smooth="yes"/>
      <point x="788" y="811" type="line"/>
    </contour>
  </outline>
</glyph>
<glyph name="uni02B4" format="2">
  <advance width="579"/>
  <unicode hex="02B4"/>
  <outline>
    <contour>
      <point x="125" y="1061" type="line"/>
      <point x="144" y="1042"/>
      <point x="174" y="1032"/>
      <point x="222" y="1032" type="curve" smooth="yes"/>
      <point x="297" y="1032"/>
      <point x="326" y="1072"/>
      <point x="336" y="1128" type="curve" smooth="yes"/>
      <point x="387" y="1413" type="line"/>
      <point x="657" y="1413" type="line"/>
      <point x="550" y="810" type="line"/>
      <point x="289" y="810" type="line"/>
      <point x="305" y="900" type="line"/>
      <point x="277" y="853"/>
      <point x="214" y="792"/>
      <point x="126" y="792" type="curve" smooth="yes"/>
      <point x="85" y="792"/>
      <point x="50" y="802"/>
      <point x="21" y="823" type="curve"/>
    </contour>
  </outline>
</glyph>
<glyph name="uni02B6" format="2">
  <advance width="732"/>
  <unicode hex="02B6"/>
  <outline>
    <contour>
      <point x="373" y="810" type="line" smooth="yes"/>
      <point x="564" y="810"/>
      <point x="705" y="939"/>
      <point x="705" y="1112" type="curve" smooth="yes"/>
      <point x="705" y="1162"/>
      <point x="688" y="1201"/>
      <point x="636" y="1238" type="curve"/>
      <point x="851" y="1413" type="line"/>
      <point x="551" y="1413" type="line"/>
      <point x="413" y="1274" type="line"/>
      <point x="407" y="1274" type="line"/>
      <point x="431" y="1413" type="line"/>
      <point x="161" y="1413" type="line"/>
      <point x="55" y="810" type="line"/>
    </contour>
    <contour>
      <point x="430" y="1065" type="curve" smooth="yes"/>
      <point x="430" y="1050"/>
      <point x="415" y="1050"/>
      <point x="403" y="1050" type="curve" smooth="yes"/>
      <point x="367" y="1050" type="line"/>
      <point x="371" y="1074" type="line"/>
      <point x="407" y="1074" type="line" smooth="yes"/>
      <point x="423" y="1074"/>
      <point x="430" y="1072"/>
    </contour>
  </outline>
</glyph>
<glyph name="uni02B8" format="2">
  <advance width="763"/>
  <unicode hex="02B8"/>
  <outline>
    <contour>
      <point x="498" y="707" type="line" smooth="yes"/>
      <point x="440" y="595"/>
      <point x="304" y="537"/>
      <point x="136" y="537" type="curve" smooth="yes"/>
      <point x="66" y="537"/>
      <point x="20" y="559"/>
      <point x="-9" y="577" type="curve"/>
      <point x="85" y="810" type="line"/>
      <point x="101" y="791"/>
      <point x="142" y="777"/>
      <point x="177" y="777" type="curve" smooth="yes"/>
      <point x="229" y="777"/>
      <point x="261" y="808"/>
      <point x="266" y="836" type="curve"/>
      <point x="267" y="841" type="line"/>
      <point x="155" y="1413" type="line"/>
      <point x="441" y="1413" type="line"/>
      <point x="457" y="1096" type="line"/>
      <point x="576" y="1413" type="line"/>
      <point x="862" y="1413" type="line"/>
    </contour>
  </outline>
</glyph>
<glyph name="uni02BB" format="2">
  <advance width="565"/>
  <unicode hex="02BB"/>
  <outline>
    <contour>
      <point x="520" y="967" type="curve" smooth="yes"/>
      <point x="520" y="856"/>
      <point x="431" y="767"/>
      <point x="320" y="767" type="curve" smooth="yes"/>
      <point x="209" y="767"/>
      <point x="120" y="886"/>
      <point x="120" y="967" type="curve" smooth="yes"/>
      <point x="120" y="1078"/>
      <point x="209" y="1167"/>
      <point x="320" y="1167" type="curve" smooth="yes"/>
      <point x="431" y="1167"/>
      <point x="520" y="1078"/>
    </contour>
    <contour>
      <point x="595" y="1278" type="line"/>
      <point x="576" y="1275"/>
      <point x="337" y="1236"/>
      <point x="337" y="1083" type="curve" smooth="yes"/>
      <point x="337" y="1036"/>
      <point x="353" y="967"/>
      <point x="353" y="967" type="curve"/>
      <point x="320" y="767" type="line"/>
      <point x="222" y="767"/>
      <point x="105" y="841"/>
      <point x="105" y="1007" type="curve" smooth="yes"/>
      <point x="105" y="1378"/>
      <point x="515" y="1498"/>
      <point x="575" y="1508" type="curve"/>
    </contour>
  </outline>
</glyph>
<glyph name="uni02C0" format="2">
  <advance width="485"/>
  <unicode hex="02C0"/>
  <outline>
    <contour>
      <point x="256" y="1334" type="line"/>
      <point x="336" y="1334" type="line"/>
      <point x="406" y="1276" type="line"/>
      <point x="385" y="1156" type="line"/>
      <point x="225" y="1156" type="line"/>
    </contour>
    <contour>
      <point x="187" y="1368" type="curve"/>
      <point x="174" y="1523" type="line"/>
      <point x="174" y="1523"/>
      <point x="266" y="1558"/>
      <point x="347" y="1558" type="curve" smooth="yes"/>
      <point x="522" y="1558"/>
      <point x="579" y="1487"/>
      <point x="579" y="1408" type="curve" smooth="yes"/>
      <point x="579" y="1356"/>
      <point x="559" y="1193"/>
      <point x="311" y="1193" type="curve"/>
      <point x="336" y="1334" type="line"/>
      <point x="373" y="1334"/>
      <point x="414" y="1341"/>
      <point x="414" y="1369" type="curve" smooth="yes"/>
      <point x="414" y="1387"/>
      <point x="381" y="1398"/>
      <point x="331" y="1398" type="curve" smooth="yes"/>
      <point x="237" y="1398"/>
      <point x="187" y="1368"/>
    </contour>
  </outline>
</glyph>
<glyph name="circumflex" format="2">
  <advance width="886"/>
  <unicode hex="02C6"/>
  <outline>
    <contour>
      <point x="586" y="1224" type="line"/>
      <point x="471" y="1480" type="line"/>
      <point x="777" y="1480" type="line"/>
      <point x="937" y="1224" type="line"/>
    </contour>
    <contour>
      <point x="472" y="1224" type="line"/>
      <point x="121" y="1224" type="line"/>
      <point x="371" y="1480" type="line"/>
      <point x="677" y="1480" type="line"/>
    </contour>
  </outline>
</glyph>
<glyph name="caron" format="2">
  <advance width="886"/>
  <unicode hex="02C7"/>
  <outline>
    <contour>
      <point x="517" y="1480" type="line"/>
      <point x="632" y="1224" type="line"/>
      <point x="326" y="1224" type="line"/>
      <point x="166" y="1480" type="line"/>
    </contour>
    <contour>
      <point x="631" y="1480" type="line"/>
      <point x="982" y="1480" type="line"/>
      <point x="732" y="1224" type="line"/>
      <point x="426" y="1224" type="line"/>
    </contour>
  </outline>
</glyph>
<glyph name="uni02D7" format="2">
  <advance width="732"/>
  <unicode hex="02D7"/>
  <outline>
    <contour>
      <point x="-18" y="434" type="line"/>
      <point x="15" y="624" type="line"/>
      <point x="677" y="624" type="line"/>
      <point x="644" y="434" type="line"/>
    </contour>
  </outline>
</glyph>
<glyph name="breve" format="2">
  <advance width="742"/>
  <unicode hex="02D8"/>
  <outline>
    <contour>
      <point x="452" y="1194" type="curve" smooth="yes"/>
      <point x="263" y="1194"/>
      <point x="162" y="1312"/>
      <point x="162" y="1438" type="curve" smooth="yes"/>
      <point x="162" y="1452"/>
      <point x="164" y="1466"/>
      <point x="166" y="1480" type="curve"/>
      <point x="424" y="1480" type="line"/>
      <point x="423" y="1477"/>
      <point x="423" y="1473"/>
      <point x="423" y="1470" type="curve" smooth="yes"/>
      <point x="423" y="1441"/>
      <point x="444" y="1404"/>
      <point x="489" y="1404" type="curve" smooth="yes"/>
      <point x="539" y="1404"/>
      <point x="573" y="1450"/>
      <point x="578" y="1480" type="curve"/>
      <point x="838" y="1480" type="line"/>
      <point x="813" y="1340"/>
      <point x="662" y="1194"/>
    </contour>
  </outline>
</glyph>
<glyph name="ogonek" format="2">
  <advance width="455"/>
  <unicode hex="02DB"/>
  <outline>
    <contour>
      <point x="-138" y="-269" type="curve" smooth="yes"/>
      <point x="-138" y="-202"/>
      <point x="-115" y="-117"/>
      <point x="28" y="0" type="curve"/>
      <point x="255" y="0" type="line"/>
      <point x="166" y="-57"/>
      <point x="38" y="-139"/>
      <point x="38" y="-214" type="curve" smooth="yes"/>
      <point x="38" y="-237"/>
      <point x="54" y="-261"/>
      <point x="82" y="-261" type="curve" smooth="yes"/>
      <point x="126" y="-261"/>
      <point x="147" y="-256"/>
      <point x="172" y="-225" type="curve"/>
      <point x="225" y="-368" type="line"/>
      <point x="159" y="-418"/>
      <point x="106" y="-432"/>
      <point x="42" y="-432" type="curve" smooth="yes"/>
      <point x="-47" y="-432"/>
      <point x="-138" y="-386"/>
    </contour>
  </outline>
</glyph>
<glyph name="uni02DE" format="2">
  <advance width="893"/>
  <unicode hex="02DE"/>
  <outline>
    <contour>
      <point x="474" y="684" type="curve"/>
      <point x="761" y="843" type="line"/>
      <point x="760" y="837"/>
      <point x="759" y="831"/>
      <point x="759" y="825" type="curve" smooth="yes"/>
      <point x="759" y="775"/>
      <point x="790" y="709"/>
      <point x="852" y="709" type="curve" smooth="yes"/>
      <point x="865" y="709"/>
      <point x="877" y="711"/>
      <point x="889" y="716" type="curve"/>
      <point x="832" y="390" type="line"/>
      <point x="820" y="389"/>
      <point x="808" y="389"/>
      <point x="796" y="389" type="curve" smooth="yes"/>
      <point x="616" y="389"/>
      <point x="521" y="513"/>
      <point x="481" y="656" type="curve" smooth="yes"/>
      <point x="478" y="665"/>
      <point x="476" y="675"/>
    </contour>
    <contour>
      <point x="44" y="421" type="line"/>
      <point x="20" y="654" type="line"/>
      <point x="761" y="843" type="line"/>
      <point x="708" y="668" type="line"/>
      <point x="760" y="604" type="line"/>
    </contour>
  </outline>
</glyph>
<glyph name="uni02E3" format="2">
  <advance width="750"/>
  <unicode hex="02E3"/>
  <outline>
    <contour>
      <point x="248" y="1112" type="line"/>
      <point x="139" y="1413" type="line"/>
      <point x="431" y="1413" type="line"/>
      <point x="468" y="1267" type="line"/>
      <point x="557" y="1413" type="line"/>
      <point x="849" y="1413" type="line"/>
      <point x="634" y="1112" type="line"/>
      <point x="742" y="810" type="line"/>
      <point x="450" y="810" type="line"/>
      <point x="413" y="958" type="line"/>
      <point x="326" y="810" type="line"/>
      <point x="32" y="810" type="line"/>
    </contour>
  </outline>
</glyph>
<glyph name="uni02F3" format="2">
  <advance width="482"/>
  <unicode hex="02F3"/>
  <outline>
    <contour>
      <point x="-19" y="-307" type="curve" smooth="yes"/>
      <point x="-19" y="-197"/>
      <point x="67" y="-112"/>
      <point x="187" y="-112" type="curve" smooth="yes"/>
      <point x="307" y="-112"/>
      <point x="393" y="-197"/>
      <point x="393" y="-307" type="curve" smooth="yes"/>
      <point x="393" y="-417"/>
      <point x="307" y="-502"/>
      <point x="187" y="-502" type="curve" smooth="yes"/>
      <point x="67" y="-502"/>
      <point x="-19" y="-417"/>
    </contour>
    <contour>
      <point x="141" y="-307" type="curve" smooth="yes"/>
      <point x="141" y="-333"/>
      <point x="161" y="-352"/>
      <point x="187" y="-352" type="curve" smooth="yes"/>
      <point x="213" y="-352"/>
      <point x="232" y="-333"/>
      <point x="232" y="-307" type="curve" smooth="yes"/>
      <point x="232" y="-281"/>
      <point x="213" y="-262"/>
      <point x="187" y="-262" type="curve" smooth="yes"/>
      <point x="161" y="-262"/>
      <point x="141" y="-281"/>
    </contour>
  </outline>
</glyph>
<glyph name="uni0304" format="2">
  <advance width="0"/>
  <unicode hex="0304"/>
  <anchor x="826" y="1040" name="_mkmk_top_center"/>
  <anchor x="887" y="1384" name="mkmk_top_center"/>
  <anchor x="826" y="1040" name="_top_center"/>
  <outline>
    <contour>
      <point x="493" y="1224" type="line"/>
      <point x="526" y="1414" type="line"/>
      <point x="1258" y="1414" type="line"/>
      <point x="1225" y="1224" type="line"/>
    </contour>
  </outline>
</glyph>
<glyph name="uni0307" format="2">
  <advance width="0"/>
  <unicode hex="0307"/>
  <anchor x="825" y="1040" name="_mkmk_top_center"/>
  <anchor x="896" y="1440" name="mkmk_top_center"/>
  <anchor x="825" y="1040" name="_top_center"/>
  <outline>
    <contour>
      <point x="680" y="1352" type="curve" smooth="yes"/>
      <point x="680" y="1463"/>
      <point x="769" y="1552"/>
      <point x="880" y="1552" type="curve" smooth="yes"/>
      <point x="991" y="1552"/>
      <point x="1080" y="1463"/>
      <point x="1080" y="1352" type="curve" smooth="yes"/>
      <point x="1080" y="1241"/>
      <point x="991" y="1152"/>
      <point x="880" y="1152" type="curve" smooth="yes"/>
      <point x="769" y="1152"/>
      <point x="680" y="1241"/>
    </contour>
  </outline>
</glyph>
<glyph name="uni0308" format="2">
  <advance width="0"/>
  <unicode hex="0308"/>
  <anchor x="896" y="1440" name="mkmk_top_center"/>
  <anchor x="825" y="1040" name="_mkmk_top_center"/>
  <anchor x="825" y="1040" name="_top_center"/>
  <outline>
    <contour>
      <point x="993" y="1352" type="curve" smooth="yes"/>
      <point x="993" y="1463"/>
      <point x="1083" y="1552"/>
      <point x="1194" y="1552" type="curve" smooth="yes"/>
      <point x="1305" y="1552"/>
      <point x="1393" y="1463"/>
      <point x="1393" y="1352" type="curve" smooth="yes"/>
      <point x="1393" y="1241"/>
      <point x="1304" y="1152"/>
      <point x="1193" y="1152" type="curve" smooth="yes"/>
      <point x="1082" y="1152"/>
      <point x="993" y="1241"/>
    </contour>
    <contour>
      <point x="363" y="1352" type="curve" smooth="yes"/>
      <point x="363" y="1463"/>
      <point x="452" y="1552"/>
      <point x="563" y="1552" type="curve" smooth="yes"/>
      <point x="674" y="1552"/>
      <point x="763" y="1463"/>
      <point x="763" y="1352" type="curve" smooth="yes"/>
      <point x="763" y="1241"/>
      <point x="674" y="1152"/>
      <point x="563" y="1152" type="curve" smooth="yes"/>
      <point x="452" y="1152"/>
      <point x="363" y="1241"/>
    </contour>
  </outline>
</glyph>
<glyph name="uni030D" format="2">
  <advance width="0"/>
  <unicode hex="030D"/>
  <anchor x="755" y="1376" name="mkmk_top_center"/>
  <anchor x="695" y="1040" name="_mkmk_top_center"/>
  <anchor x="695" y="1040" name="_top_center"/>
  <outline>
    <contour>
      <point x="906" y="1224" type="line"/>
      <point x="550" y="1224" type="line"/>
      <point x="595" y="1480" type="line"/>
      <point x="951" y="1480" type="line"/>
    </contour>
  </outline>
</glyph>
<glyph name="uni0312" format="2">
  <advance width="0"/>
  <unicode hex="0312"/>
  <anchor x="825" y="1040" name="_mkmk_top_center"/>
  <anchor x="903" y="1480" name="mkmk_top_center"/>
  <anchor x="825" y="1040" name="_top_center"/>
  <outline>
    <contour>
      <point x="720" y="1243" type="curve" smooth="yes"/>
      <point x="720" y="1310"/>
      <point x="773" y="1363"/>
      <point x="840" y="1363" type="curve" smooth="yes"/>
      <point x="907" y="1363"/>
      <point x="960" y="1310"/>
      <point x="960" y="1243" type="curve" smooth="yes"/>
      <point x="960" y="1176"/>
      <point x="907" y="1123"/>
      <point x="840" y="1123" type="curve" smooth="yes"/>
      <point x="773" y="1123"/>
      <point x="720" y="1176"/>
    </contour>
    <contour>
      <point x="1007" y="1440" type="line"/>
      <point x="925" y="1428"/>
      <point x="850" y="1374"/>
      <point x="850" y="1313" type="curve" smooth="yes"/>
      <point x="850" y="1285"/>
      <point x="860" y="1243"/>
      <point x="860" y="1243" type="curve"/>
      <point x="840" y="1123" type="line"/>
      <point x="781" y="1123"/>
      <point x="711" y="1155"/>
      <point x="711" y="1267" type="curve" smooth="yes"/>
      <point x="711" y="1492"/>
      <point x="960" y="1562"/>
      <point x="993" y="1568" type="curve"/>
    </contour>
  </outline>
</glyph>
<glyph name="uni031B" format="2">
  <advance width="0"/>
  <unicode hex="031B"/>
  <anchor x="261" y="1480" name="_top_right"/>
  <outline>
    <contour>
      <point x="272" y="1368" type="curve" smooth="yes"/>
      <point x="272" y="1442"/>
      <point x="339" y="1510"/>
      <point x="415" y="1510" type="curve" smooth="yes"/>
      <point x="472" y="1510"/>
      <point x="525" y="1480"/>
      <point x="525" y="1378" type="curve" smooth="yes"/>
      <point x="525" y="1313"/>
      <point x="502" y="1087"/>
      <point x="182" y="1033" type="curve"/>
      <point x="210" y="1193" type="line"/>
      <point x="332" y="1214"/>
      <point x="380" y="1256"/>
      <point x="383" y="1272" type="curve"/>
      <point x="380" y="1271"/>
      <point x="376" y="1270"/>
      <point x="373" y="1270" type="curve" smooth="yes"/>
      <point x="313" y="1270"/>
      <point x="272" y="1312"/>
    </contour>
  </outline>
</glyph>
<glyph name="uni0326" format="2">
  <advance width="0"/>
  <unicode hex="0326"/>
  <anchor x="642" y="0" name="_mkmk_bottom_center"/>
  <anchor x="564" y="-440" name="mkmk_bottom_center"/>
  <anchor x="642" y="0" name="_bottom_center"/>
  <outline>
    <contour>
      <point x="507" y="-203" type="curve" smooth="yes"/>
      <point x="507" y="-136"/>
      <point x="560" y="-83"/>
      <point x="627" y="-83" type="curve" smooth="yes"/>
      <point x="694" y="-83"/>
      <point x="747" y="-136"/>
      <point x="747" y="-203" type="curve" smooth="yes"/>
      <point x="747" y="-270"/>
      <point x="694" y="-323"/>
      <point x="627" y="-323" type="curve" smooth="yes"/>
      <point x="560" y="-323"/>
      <point x="507" y="-270"/>
    </contour>
    <contour>
      <point x="460" y="-400" type="line"/>
      <point x="542" y="-388"/>
      <point x="617" y="-334"/>
      <point x="617" y="-273" type="curve" smooth="yes"/>
      <point x="617" y="-245"/>
      <point x="607" y="-203"/>
      <point x="607" y="-203" type="curve"/>
      <point x="627" y="-83" type="line"/>
      <point x="686" y="-83"/>
      <point x="756" y="-115"/>
      <point x="756" y="-227" type="curve" smooth="yes"/>
      <point x="756" y="-452"/>
      <point x="507" y="-522"/>
      <point x="474" y="-528" type="curve"/>
    </contour>
  </outline>
</glyph>
<glyph name="uni0327" format="2">
  <advance width="0"/>
  <unicode hex="0327"/>
  <anchor x="642" y="0" name="_mkmk_bottom_center"/>
  <anchor x="575" y="-380" name="mkmk_bottom_center"/>
  <anchor x="620" y="-20" name="_bottom_cedilla"/>
  <outline>
    <contour>
      <point x="817" y="-219" type="curve" smooth="yes"/>
      <point x="817" y="-294"/>
      <point x="758" y="-432"/>
      <point x="566" y="-432" type="curve" smooth="yes"/>
      <point x="466" y="-432"/>
      <point x="396" y="-375"/>
      <point x="381" y="-314" type="curve"/>
      <point x="537" y="-237" type="line"/>
      <point x="543" y="-262"/>
      <point x="561" y="-272"/>
      <point x="594" y="-272" type="curve" smooth="yes"/>
      <point x="632" y="-272"/>
      <point x="655" y="-259"/>
      <point x="655" y="-243" type="curve" smooth="yes"/>
      <point x="655" y="-229"/>
      <point x="636" y="-220"/>
      <point x="603" y="-220" type="curve" smooth="yes"/>
      <point x="588" y="-220"/>
      <point x="569" y="-223"/>
      <point x="554" y="-232" type="curve"/>
      <point x="435" y="-170" type="line"/>
      <point x="479" y="-120"/>
      <point x="533" y="-60"/>
      <point x="631" y="-60" type="curve" smooth="yes"/>
      <point x="740" y="-60"/>
      <point x="817" y="-131"/>
    </contour>
    <contour>
      <point x="567" y="0" type="line"/>
      <point x="727" y="0" type="line"/>
      <point x="566" y="-205" type="line"/>
      <point x="554" y="-232" type="line"/>
      <point x="436" y="-171" type="line"/>
    </contour>
  </outline>
</glyph>
<glyph name="uni0329" format="2">
  <advance width="0"/>
  <unicode hex="0329"/>
  <anchor x="512" y="0" name="_bottom_center"/>
  <anchor x="464" y="-270" name="mkmk_bottom_center"/>
  <anchor x="512" y="0" name="_mkmk_bottom_center"/>
  <outline>
    <contour>
      <point x="612" y="-440" type="line"/>
      <point x="256" y="-440" type="line"/>
      <point x="302" y="-184" type="line"/>
      <point x="658" y="-184" type="line"/>
    </contour>
  </outline>
</glyph>
<glyph name="uni032D" format="2">
  <advance width="0"/>
  <unicode hex="032D"/>
  <anchor x="642" y="0" name="_mkmk_bottom_center"/>
  <anchor x="583" y="-336" name="mkmk_bottom_center"/>
  <anchor x="642" y="0" name="_bottom_center"/>
  <outline>
    <contour>
      <point x="621" y="-440" type="line"/>
      <point x="507" y="-184" type="line"/>
      <point x="813" y="-184" type="line"/>
      <point x="972" y="-440" type="line"/>
    </contour>
    <contour>
      <point x="507" y="-440" type="line"/>
      <point x="156" y="-440" type="line"/>
      <point x="407" y="-184" type="line"/>
      <point x="713" y="-184" type="line"/>
    </contour>
  </outline>
</glyph>
<glyph name="uni032E" format="2">
  <advance width="0"/>
  <unicode hex="032E"/>
  <anchor x="642" y="0" name="_mkmk_bottom_center"/>
  <anchor x="583" y="-336" name="mkmk_bottom_center"/>
  <anchor x="642" y="0" name="_bottom_center"/>
  <outline>
    <contour>
      <point x="559" y="-470" type="curve" smooth="yes"/>
      <point x="370" y="-470"/>
      <point x="270" y="-352"/>
      <point x="270" y="-226" type="curve" smooth="yes"/>
      <point x="270" y="-212"/>
      <point x="272" y="-198"/>
      <point x="274" y="-184" type="curve"/>
      <point x="532" y="-184" type="line"/>
      <point x="531" y="-187"/>
      <point x="531" y="-191"/>
      <point x="531" y="-194" type="curve" smooth="yes"/>
      <point x="531" y="-223"/>
      <point x="551" y="-260"/>
      <point x="596" y="-260" type="curve" smooth="yes"/>
      <point x="646" y="-260"/>
      <point x="681" y="-214"/>
      <point x="686" y="-184" type="curve"/>
      <point x="946" y="-184" type="line"/>
      <point x="921" y="-324"/>
      <point x="769" y="-470"/>
    </contour>
  </outline>
</glyph>
<glyph name="uni0332" format="2">
  <advance width="0"/>
  <unicode hex="0332"/>
  <anchor x="512" y="0" name="_mkmk_bottom_center"/>
  <anchor x="464" y="-270" name="mkmk_bottom_center"/>
  <anchor x="512" y="0" name="_bottom_center"/>
  <outline>
    <contour>
      <point x="-102" y="-374" type="line"/>
      <point x="-68" y="-184" type="line"/>
      <point x="1030" y="-184" type="line"/>
      <point x="996" y="-374" type="line"/>
    </contour>
  </outline>
</glyph>
<glyph name="uni035F" format="2">
  <advance width="0"/>
  <unicode hex="035F"/>
  <anchor x="642" y="0" name="_mkmk_bottom_center"/>
  <anchor x="594" y="-270" name="mkmk_bottom_center"/>
  <anchor x="642" y="0" name="_bottom_center"/>
  <outline>
    <contour>
      <point x="576" y="-374" type="line"/>
      <point x="-156" y="-374" type="line"/>
      <point x="-122" y="-184" type="line"/>
      <point x="610" y="-184" type="line"/>
      <point x="1342" y="-184" type="line"/>
      <point x="1308" y="-374" type="line"/>
    </contour>
  </outline>
</glyph>
<glyph name="uni0370" format="2">
  <advance width="1140"/>
  <unicode hex="0370"/>
  <outline>
    <contour>
      <point x="480" y="908" type="line"/>
      <point x="1100" y="908" type="line"/>
      <point x="1041" y="572" type="line"/>
      <point x="421" y="572" type="line"/>
      <point x="320" y="0" type="line"/>
      <point x="-60" y="0" type="line"/>
      <point x="201" y="1480" type="line"/>
      <point x="581" y="1480" type="line"/>
    </contour>
  </outline>
</glyph>
<glyph name="uni0371" format="2">
  <advance width="1055"/>
  <unicode hex="0371"/>
  <outline>
    <contour>
      <point x="585" y="678" type="curve" smooth="yes"/>
      <point x="581" y="660" type="line"/>
      <point x="971" y="660" type="line"/>
      <point x="915" y="340" type="line"/>
      <point x="525" y="340" type="line"/>
      <point x="465" y="0" type="line"/>
      <point x="105" y="0" type="line"/>
      <point x="225" y="678" type="line" smooth="yes"/>
      <point x="227" y="688"/>
      <point x="228" y="696"/>
      <point x="228" y="704" type="curve" smooth="yes"/>
      <point x="228" y="736"/>
      <point x="211" y="750"/>
      <point x="169" y="750" type="curve" smooth="yes"/>
      <point x="150" y="750"/>
      <point x="119" y="743"/>
      <point x="104" y="734" type="curve"/>
      <point x="56" y="1026" type="line"/>
      <point x="84" y="1039"/>
      <point x="138" y="1070"/>
      <point x="226" y="1070" type="curve" smooth="yes"/>
      <point x="392" y="1070"/>
      <point x="593" y="996"/>
      <point x="593" y="762" type="curve" smooth="yes"/>
      <point x="593" y="736"/>
      <point x="590" y="708"/>
    </contour>
  </outline>
</glyph>
<glyph name="uni0374" format="2">
  <advance width="652"/>
  <unicode hex="0374"/>
  <outline>
    <contour>
      <point x="477" y="1224" type="line"/>
      <point x="121" y="1224" type="line"/>
      <point x="344" y="1480" type="line"/>
      <point x="748" y="1480" type="line"/>
    </contour>
  </outline>
</glyph>
<glyph name="uni037C" format="2">
  <advance width="1137"/>
  <unicode hex="037C"/>
  <outline>
    <contour>
      <point x="722" y="520" type="curve" smooth="yes"/>
      <point x="722" y="609"/>
      <point x="651" y="680"/>
      <point x="562" y="680" type="curve" smooth="yes"/>
      <point x="473" y="680"/>
      <point x="402" y="609"/>
      <point x="402" y="520" type="curve" smooth="yes"/>
      <point x="402" y="431"/>
      <point x="472" y="360"/>
      <point x="561" y="360" type="curve" smooth="yes"/>
      <point x="650" y="360"/>
      <point x="722" y="431"/>
    </contour>
    <contour>
      <point x="602" y="750" type="curve" smooth="yes"/>
      <point x="372" y="750"/>
      <point x="365" y="480"/>
      <point x="365" y="448" type="curve" smooth="yes"/>
      <point x="365" y="352"/>
      <point x="410" y="290"/>
      <point x="521" y="290" type="curve" smooth="yes"/>
      <point x="625" y="290"/>
      <point x="690" y="344"/>
      <point x="726" y="430" type="curve"/>
      <point x="1001" y="252" type="line"/>
      <point x="882" y="79"/>
      <point x="686" y="-30"/>
      <point x="465" y="-30" type="curve" smooth="yes"/>
      <point x="183" y="-30"/>
      <point x="2" y="149"/>
      <point x="2" y="411" type="curve" smooth="yes"/>
      <point x="2" y="751"/>
      <point x="277" y="1070"/>
      <point x="659" y="1070" type="curve" smooth="yes"/>
      <point x="880" y="1070"/>
      <point x="1039" y="961"/>
      <point x="1096" y="788" type="curve"/>
      <point x="758" y="610" type="line"/>
      <point x="752" y="696"/>
      <point x="706" y="750"/>
    </contour>
  </outline>
</glyph>
<glyph name="uni037D" format="2">
  <advance width="1137"/>
  <unicode hex="037D"/>
  <outline>
    <contour>
      <point x="339" y="520" type="curve" smooth="yes"/>
      <point x="339" y="609"/>
      <point x="410" y="680"/>
      <point x="499" y="680" type="curve" smooth="yes"/>
      <point x="588" y="680"/>
      <point x="659" y="609"/>
      <point x="659" y="520" type="curve" smooth="yes"/>
      <point x="659" y="431"/>
      <point x="587" y="360"/>
      <point x="498" y="360" type="curve" smooth="yes"/>
      <point x="409" y="360"/>
      <point x="339" y="431"/>
    </contour>
    <contour>
      <point x="696" y="591" type="curve" smooth="yes"/>
      <point x="696" y="561"/>
      <point x="690" y="290"/>
      <point x="458" y="290" type="curve" smooth="yes"/>
      <point x="354" y="290"/>
      <point x="309" y="344"/>
      <point x="303" y="430" type="curve"/>
      <point x="-36" y="252" type="line"/>
      <point x="21" y="79"/>
      <point x="181" y="-30"/>
      <point x="402" y="-30" type="curve" smooth="yes"/>
      <point x="784" y="-30"/>
      <point x="1059" y="289"/>
      <point x="1059" y="629" type="curve" smooth="yes"/>
      <point x="1059" y="891"/>
      <point x="878" y="1070"/>
      <point x="596" y="1070" type="curve" smooth="yes"/>
      <point x="375" y="1070"/>
      <point x="178" y="961"/>
      <point x="59" y="788" type="curve"/>
      <point x="335" y="610" type="line"/>
      <point x="371" y="696"/>
      <point x="435" y="750"/>
      <point x="539" y="750" type="curve" smooth="yes"/>
      <point x="651" y="750"/>
      <point x="696" y="688"/>
    </contour>
  </outline>
</glyph>
<glyph name="Xi" format="2">
  <advance width="1254"/>
  <unicode hex="039E"/>
  <anchor x="740" y="1380" name="top_center"/>
  <anchor x="497" y="0" name="bottom_center"/>
  <outline>
    <contour>
      <point x="201" y="1480" type="line"/>
      <point x="1315" y="1480" type="line"/>
      <point x="1256" y="1144" type="line"/>
      <point x="142" y="1144" type="line"/>
    </contour>
    <contour>
      <point x="214" y="908" type="line"/>
      <point x="1100" y="908" type="line"/>
      <point x="1041" y="572" type="line"/>
      <point x="155" y="572" type="line"/>
    </contour>
    <contour>
      <point x="-1" y="336" type="line"/>
      <point x="1113" y="336" type="line"/>
      <point x="1054" y="0" type="line"/>
      <point x="-60" y="0" type="line"/>
    </contour>
  </outline>
</glyph>
<glyph name="Pi" format="2">
  <advance width="1482"/>
  <unicode hex="03A0"/>
  <anchor x="854" y="1380" name="top_center"/>
  <anchor x="611" y="0" name="bottom_center"/>
  <outline>
    <contour>
      <point x="1543" y="1480" type="line"/>
      <point x="1282" y="0" type="line"/>
      <point x="902" y="0" type="line"/>
      <point x="1104" y="1144" type="line"/>
      <point x="522" y="1144" type="line"/>
      <point x="320" y="0" type="line"/>
      <point x="-60" y="0" type="line"/>
      <point x="201" y="1480" type="line"/>
    </contour>
  </outline>
</glyph>
<glyph name="beta" format="2">
  <advance width="1300"/>
  <unicode hex="03B2"/>
  <anchor x="-136" y="-360" name="bottom_center"/>
  <anchor x="832" y="1380" name="top_center"/>
  <outline>
    <contour>
      <point x="796" y="479" type="curve" smooth="yes"/>
      <point x="793" y="462"/>
      <point x="757" y="290"/>
      <point x="524" y="290" type="curve" smooth="yes"/>
      <point x="324" y="290"/>
      <point x="231" y="416"/>
      <point x="231" y="416" type="curve"/>
      <point x="36" y="152" type="line"/>
      <point x="36" y="152"/>
      <point x="183" y="-30"/>
      <point x="412" y="-30" type="curve" smooth="yes"/>
      <point x="867" y="-30"/>
      <point x="1127" y="290"/>
      <point x="1169" y="528" type="curve" smooth="yes"/>
      <point x="1211" y="769"/>
      <point x="1014" y="932"/>
      <point x="686" y="932" type="curve"/>
      <point x="574" y="612" type="line"/>
      <point x="686" y="612"/>
      <point x="814" y="581"/>
    </contour>
    <contour>
      <point x="633" y="932" type="line"/>
      <point x="521" y="612" type="line"/>
      <point x="574" y="612" type="line"/>
      <point x="686" y="932" type="line"/>
    </contour>
    <contour>
      <point x="602" y="692" type="line"/>
      <point x="736" y="692"/>
      <point x="1201" y="722"/>
      <point x="1273" y="1128" type="curve" smooth="yes"/>
      <point x="1312" y="1348"/>
      <point x="1155" y="1510"/>
      <point x="878" y="1510" type="curve" smooth="yes"/>
      <point x="572" y="1510"/>
      <point x="272" y="1311"/>
      <point x="182" y="1056" type="curve" smooth="yes"/>
      <point x="-346" y="-440" type="line"/>
      <point x="14" y="-440" type="line"/>
      <point x="542" y="1056" type="line" smooth="yes"/>
      <point x="570" y="1136"/>
      <point x="676" y="1190"/>
      <point x="766" y="1190" type="curve" smooth="yes"/>
      <point x="848" y="1190"/>
      <point x="913" y="1149"/>
      <point x="900" y="1077" type="curve" smooth="yes"/>
      <point x="889" y="1015"/>
      <point x="844" y="932"/>
      <point x="686" y="932" type="curve"/>
    </contour>
  </outline>
</glyph>
<glyph name="delta" format="2">
  <advance width="1200"/>
  <unicode hex="03B4"/>
  <anchor x="470" y="0" name="bottom_center"/>
  <anchor x="713" y="1380" name="top_center"/>
  <outline>
    <contour>
      <point x="1122" y="629" type="curve" smooth="yes"/>
      <point x="1122" y="289"/>
      <point x="847" y="-30"/>
      <point x="465" y="-30" type="curve" smooth="yes"/>
      <point x="183" y="-30"/>
      <point x="2" y="149"/>
      <point x="2" y="411" type="curve" smooth="yes"/>
      <point x="2" y="629"/>
      <point x="114" y="970"/>
      <point x="641" y="970" type="curve"/>
      <point x="602" y="750" type="line"/>
      <point x="371" y="750"/>
      <point x="365" y="477"/>
      <point x="365" y="451" type="curve" smooth="yes"/>
      <point x="365" y="356"/>
      <point x="409" y="290"/>
      <point x="521" y="290" type="curve" smooth="yes"/>
      <point x="753" y="290"/>
      <point x="759" y="561"/>
      <point x="759" y="591" type="curve" smooth="yes"/>
      <point x="759" y="688"/>
      <point x="714" y="750"/>
      <point x="602" y="750" type="curve"/>
      <point x="659" y="1070" type="line"/>
      <point x="941" y="1070"/>
      <point x="1122" y="891"/>
    </contour>
    <contour>
      <point x="182" y="1071" type="curve" smooth="yes"/>
      <point x="182" y="1269"/>
      <point x="367" y="1510"/>
      <point x="736" y="1510" type="curve" smooth="yes"/>
      <point x="952" y="1510"/>
      <point x="1092" y="1484"/>
      <point x="1205" y="1433" type="curve"/>
      <point x="1071" y="1119" type="line"/>
      <point x="954" y="1174"/>
      <point x="819" y="1190"/>
      <point x="680" y="1190" type="curve" smooth="yes"/>
      <point x="646" y="1190"/>
      <point x="546" y="1189"/>
      <point x="546" y="1120" type="curve" smooth="yes"/>
      <point x="546" y="1087"/>
      <point x="580" y="1070"/>
      <point x="659" y="1070" type="curve"/>
      <point x="602" y="750" type="line"/>
      <point x="302" y="750"/>
      <point x="182" y="909"/>
    </contour>
  </outline>
</glyph>
<glyph name="iota" format="2">
  <advance width="665"/>
  <unicode hex="03B9"/>
  <anchor x="303" y="1040" name="greek_t"/>
  <anchor x="303" y="1040" name="greek_k"/>
  <anchor x="303" y="1040" name="greek_kt"/>
  <anchor x="303" y="1040" name="greek_v"/>
  <anchor x="303" y="1040" name="top_center"/>
  <anchor x="191" y="0" name="bottom_center"/>
  <outline>
    <contour>
      <point x="123" y="1040" type="line"/>
      <point x="483" y="1040" type="line"/>
      <point x="364" y="362" type="line" smooth="yes"/>
      <point x="362" y="352"/>
      <point x="361" y="344"/>
      <point x="361" y="336" type="curve" smooth="yes"/>
      <point x="361" y="305"/>
      <point x="377" y="290"/>
      <point x="419" y="290" type="curve" smooth="yes"/>
      <point x="438" y="290"/>
      <point x="469" y="297"/>
      <point x="484" y="306" type="curve"/>
      <point x="532" y="14" type="line"/>
      <point x="504" y="1"/>
      <point x="451" y="-30"/>
      <point x="363" y="-30" type="curve" smooth="yes"/>
      <point x="197" y="-30"/>
      <point x="-4" y="44"/>
      <point x="-4" y="278" type="curve" smooth="yes"/>
      <point x="-4" y="304"/>
      <point x="-1" y="332"/>
      <point x="4" y="362" type="curve" smooth="yes"/>
    </contour>
  </outline>
</glyph>
<glyph name="upsilon" format="2">
  <advance width="1172"/>
  <unicode hex="03C5"/>
  <anchor x="589" y="1040" name="greek_t"/>
  <anchor x="589" y="1040" name="greek_k"/>
  <anchor x="589" y="1040" name="greek_kt"/>
  <anchor x="589" y="1040" name="greek_v"/>
  <anchor x="589" y="1040" name="top_center"/>
  <anchor x="466" y="0" name="bottom_center"/>
  <outline>
    <contour>
      <point x="461" y="-31" type="curve" smooth="yes"/>
      <point x="181" y="-31"/>
      <point x="12" y="106"/>
      <point x="12" y="355" type="curve" smooth="yes"/>
      <point x="12" y="390"/>
      <point x="15" y="427"/>
      <point x="22" y="467" type="curve"/>
      <point x="123" y="1040" type="line"/>
      <point x="483" y="1040" type="line"/>
      <point x="382" y="467" type="line" smooth="yes"/>
      <point x="378" y="446"/>
      <point x="376" y="426"/>
      <point x="376" y="408" type="curve" smooth="yes"/>
      <point x="376" y="333"/>
      <point x="412" y="289"/>
      <point x="517" y="289" type="curve" smooth="yes"/>
      <point x="667" y="289"/>
      <point x="736" y="397"/>
      <point x="736" y="677" type="curve" smooth="yes"/>
      <point x="736" y="792"/>
      <point x="708" y="878"/>
      <point x="642" y="945" type="curve"/>
      <point x="971" y="1109" type="line"/>
      <point x="1045" y="1015"/>
      <point x="1099" y="904"/>
      <point x="1099" y="716" type="curve" smooth="yes"/>
      <point x="1099" y="146"/>
      <point x="841" y="-31"/>
    </contour>
  </outline>
</glyph>
